<svg width="24" height="18" viewBox="0 0 24 18" fill="none" xmlns="http://www.w3.org/2000/svg">
<path d="M7.63326 10.5001C6.44831 10.5001 5.26056 10.4861 4.08118 10.4527C1.79213 10.3857 0.448248 9.62179 0.085791 8.18869C-0.10659 7.42752 -0.000641144 6.34014 0.662934 5.62916C1.12019 5.13845 1.75309 4.93492 2.44176 5.05481C2.91574 5.13845 3.23359 5.59292 3.14995 6.0669C3.0663 6.54089 2.61184 6.85595 2.13786 6.77509C2.00403 6.75 1.97336 6.78346 1.9399 6.8197C1.77261 6.99815 1.69733 7.44146 1.78097 7.76489C1.92875 8.3504 2.72057 8.66825 4.13416 8.71007C7.3182 8.80487 10.5803 8.74074 13.7337 8.67661C15.5348 8.64037 17.3945 8.60412 19.2235 8.59576H19.533C20.2049 8.59297 20.8741 8.59018 21.5432 8.59018H22.3908C22.8732 8.59018 23.2635 8.98052 23.2635 9.46287C23.2635 9.94522 22.8732 10.3356 22.3908 10.3356H21.5432C20.8741 10.3356 20.2077 10.3356 19.5386 10.3411H19.2319C17.4168 10.3495 15.5627 10.3857 13.7699 10.422C11.7541 10.461 9.69369 10.5028 7.63326 10.5028V10.5001Z" fill="#F2C94C"/>
<path d="M5.07399 17.4288C3.43736 17.4288 2.10742 16.0988 2.10742 14.4622C2.10742 12.8256 3.43736 11.4956 5.07399 11.4956C6.71063 11.4956 8.04056 12.8256 8.04056 14.4622C8.04056 16.0988 6.71063 17.4288 5.07399 17.4288ZM5.07399 13.241C4.39927 13.241 3.85279 13.7903 3.85279 14.4622C3.85279 15.1341 4.40205 15.6834 5.07399 15.6834C5.74593 15.6834 6.29519 15.1341 6.29519 14.4622C6.29519 13.7903 5.74593 13.241 5.07399 13.241Z" fill="#F2C94C"/>
<path d="M19.2459 17.4288C17.6092 17.4288 16.2793 16.0988 16.2793 14.4622C16.2793 12.8256 17.6092 11.4956 19.2459 11.4956C20.8825 11.4956 22.2124 12.8256 22.2124 14.4622C22.2124 16.0988 20.8825 17.4288 19.2459 17.4288ZM19.2459 13.241C18.5711 13.241 18.0247 13.7903 18.0247 14.4622C18.0247 15.1341 18.5739 15.6834 19.2459 15.6834C19.9178 15.6834 20.4671 15.1341 20.4671 14.4622C20.4671 13.7903 19.9178 13.241 19.2459 13.241Z" fill="#F2C94C"/>
<path d="M23.9968 5.07722C23.9968 4.40806 23.152 3.86995 22.0925 3.83928C22.0925 3.83928 22.0925 3.83649 22.0925 3.8337C22.0925 2.74354 21.2086 1.86248 20.1213 1.86248C19.8062 1.86248 19.5135 1.94334 19.2514 2.07438C18.914 1.47493 18.2783 1.06786 17.5423 1.06786C17.0711 1.06786 16.6445 1.24073 16.3071 1.51396C15.9056 0.621757 15.0134 0 13.9707 0C12.6965 0 11.6426 0.931242 11.4446 2.14687C11.0571 1.81787 10.5608 1.61155 10.0115 1.61155C8.99943 1.61155 8.15462 2.29186 7.88696 3.21474C7.6667 3.1283 7.42971 3.07812 7.17878 3.07812C6.37022 3.07812 5.67598 3.56604 5.37207 4.26587C4.6137 4.39691 4.03098 5.04655 4.00867 5.84396C4.00867 5.91366 4.01704 5.98337 4.0254 6.05028C3.91667 6.21757 3.85254 6.41274 3.85254 6.62464C3.85254 7.09863 4.1676 7.49733 4.59697 7.63395C5.2466 7.93507 6.72989 7.63395 9.62955 7.50012C9.89442 7.48897 10.1593 7.47503 10.4242 7.46387C10.8061 7.44436 11.1881 7.42763 11.5701 7.40811C11.9298 7.38859 12.2894 7.37187 12.6491 7.34956C12.9865 7.33004 13.3238 7.31053 13.6612 7.29101C13.9762 7.27149 14.2941 7.25197 14.6091 7.23246C14.9047 7.21294 15.2002 7.19342 15.4958 7.17391C15.7718 7.15439 16.0478 7.13487 16.3238 7.11536C16.5804 7.09584 16.8369 7.07632 17.0962 7.05402C17.3359 7.0345 17.5729 7.01498 17.8127 6.99268C18.033 6.97316 18.256 6.95364 18.4763 6.93134C18.6798 6.91182 18.8834 6.8923 19.0869 6.87C19.2737 6.85048 19.4633 6.82818 19.6501 6.80866C19.823 6.78914 19.993 6.76684 20.1659 6.74453C20.322 6.72501 20.4809 6.70271 20.6371 6.6804C20.7793 6.66089 20.9215 6.63858 21.0637 6.61628C21.1919 6.59676 21.323 6.57445 21.4512 6.55215C21.5683 6.53263 21.6826 6.51033 21.7997 6.48802C21.9029 6.46851 22.0061 6.4462 22.112 6.4239C22.204 6.40438 22.296 6.38207 22.388 6.35698C22.4689 6.33746 22.5497 6.31516 22.6306 6.29006C22.7031 6.27055 22.7728 6.24824 22.8425 6.22315C22.9038 6.20363 22.9652 6.18133 23.0265 6.15623C23.0795 6.13672 23.1325 6.11441 23.1854 6.08932C23.23 6.06701 23.2747 6.04471 23.3193 6.0224C23.3583 6.0001 23.3945 5.97779 23.4308 5.95549C23.4615 5.93318 23.4921 5.91088 23.52 5.88857C23.5312 5.88021 23.5423 5.86905 23.5535 5.8579C23.8295 5.64321 23.9996 5.37834 23.9996 5.0828L23.9968 5.07722Z" fill="#F2C94C"/>
<path d="M10.4569 3.33179C10.0721 3.33179 9.72359 3.49071 9.47266 3.74443C9.61764 3.68031 9.77935 3.64685 9.94943 3.64685C10.6158 3.64685 11.1539 4.18775 11.1539 4.85133C11.1539 5.46751 10.6939 5.97216 10.0972 6.04744C10.2115 6.07811 10.3314 6.09484 10.4541 6.09484C11.218 6.09484 11.8342 5.47587 11.8342 4.71471C11.8342 3.95354 11.2152 3.33457 10.4541 3.33457L10.4569 3.33179Z" fill="white"/>
<path d="M11.1571 4.85145C11.1571 4.18509 10.6162 3.64697 9.95262 3.64697C9.78255 3.64697 9.62083 3.68322 9.47585 3.74456C9.2305 3.9927 9.07715 4.33564 9.07715 4.71483C9.07715 5.35332 9.5121 5.89143 10.1004 6.04757C10.6943 5.97508 11.1571 5.46763 11.1571 4.85145Z" fill="black"/>
<path d="M16.867 2.97778C16.4823 2.97778 16.1337 3.13671 15.8828 3.39043C16.0278 3.3263 16.1895 3.29284 16.3596 3.29284C17.0259 3.29284 17.5641 3.83375 17.5641 4.49732C17.5641 5.11351 17.104 5.61816 16.5074 5.69344C16.6217 5.72411 16.7416 5.74084 16.8642 5.74084C17.6282 5.74084 18.2444 5.12187 18.2444 4.3607C18.2444 3.59954 17.6254 2.98057 16.8642 2.98057L16.867 2.97778Z" fill="white"/>
<path d="M17.5643 4.4972C17.5643 3.83084 17.0234 3.29272 16.3598 3.29272C16.1898 3.29272 16.0281 3.32897 15.8831 3.39031C15.6377 3.63845 15.4844 3.9814 15.4844 4.36059C15.4844 4.99907 15.9193 5.53718 16.5076 5.69332C17.1015 5.62083 17.5643 5.11339 17.5643 4.4972Z" fill="black"/>
</svg>
