<svg width="16" height="16" viewBox="0 0 16 16" fill="none" xmlns="http://www.w3.org/2000/svg">
<path d="M7.91693 13.3334C7.96137 13.3334 8.00582 13.3223 8.05026 13.3C8.09471 13.2778 8.12804 13.2556 8.15026 13.2334L13.6169 7.76671C13.7503 7.63337 13.8476 7.48337 13.9089 7.31671C13.9703 7.15004 14.0007 6.98337 14.0003 6.81671C14.0003 6.63893 13.9698 6.46937 13.9089 6.30804C13.848 6.14671 13.7507 6.00515 13.6169 5.88337L10.7836 3.05004C10.6614 2.91671 10.5196 2.8196 10.3583 2.75871C10.1969 2.69782 10.0278 2.66715 9.85093 2.66671C9.68426 2.66671 9.5176 2.69737 9.35093 2.75871C9.18426 2.82004 9.03426 2.91715 8.90093 3.05004L8.7176 3.23337L9.95093 4.48337C10.1176 4.63893 10.2398 4.81671 10.3176 5.01671C10.3954 5.21671 10.4343 5.42782 10.4343 5.65004C10.4343 6.11671 10.276 6.50849 9.9596 6.82537C9.64315 7.14226 9.25137 7.30049 8.78426 7.30004C8.56204 7.30004 8.34826 7.26115 8.14293 7.18337C7.9376 7.1056 7.75693 6.98893 7.60093 6.83337L6.35026 5.60004L3.4336 8.51671C3.40026 8.55004 3.37537 8.58626 3.35893 8.62537C3.34248 8.66449 3.33404 8.70604 3.3336 8.75004C3.3336 8.83893 3.36693 8.9196 3.4336 8.99204C3.50026 9.06449 3.57804 9.10049 3.66693 9.10004C3.71137 9.10004 3.75582 9.08893 3.80026 9.06671C3.84471 9.04449 3.87804 9.02226 3.90026 9.00004L5.70026 7.20004C5.82248 7.07782 5.97537 7.01382 6.15893 7.00804C6.34248 7.00226 6.50071 7.06626 6.6336 7.20004C6.75582 7.32226 6.81693 7.47782 6.81693 7.66671C6.81693 7.8556 6.75582 8.01115 6.6336 8.13337L4.85026 9.93337C4.81693 9.96671 4.79204 10.0029 4.7756 10.042C4.75915 10.0812 4.75071 10.1227 4.75026 10.1667C4.75026 10.2556 4.7836 10.3334 4.85026 10.4C4.91693 10.4667 4.99471 10.5 5.0836 10.5C5.12804 10.5 5.17248 10.4889 5.21693 10.4667C5.26137 10.4445 5.29471 10.4223 5.31693 10.4L7.11693 8.61671C7.23915 8.49449 7.39204 8.43049 7.5756 8.42471C7.75915 8.41893 7.91737 8.48293 8.05026 8.61671C8.17248 8.73893 8.2336 8.89449 8.2336 9.08337C8.2336 9.27226 8.17248 9.42782 8.05026 9.55004L6.26693 11.35C6.2336 11.3723 6.20871 11.4056 6.19226 11.45C6.17582 11.4945 6.16737 11.5389 6.16693 11.5834C6.16693 11.6723 6.20026 11.75 6.26693 11.8167C6.3336 11.8834 6.41137 11.9167 6.50026 11.9167C6.54471 11.9167 6.58648 11.9083 6.6256 11.8914C6.66471 11.8745 6.70071 11.8496 6.7336 11.8167L8.5336 10.0334C8.65582 9.91115 8.80871 9.84715 8.99226 9.84137C9.17582 9.8356 9.33404 9.8996 9.46693 10.0334C9.58915 10.1556 9.65026 10.3112 9.65026 10.5C9.65026 10.6889 9.58915 10.8445 9.46693 10.9667L7.66693 12.7667C7.6336 12.8 7.60871 12.8363 7.59226 12.8754C7.57582 12.9145 7.56737 12.956 7.56693 13C7.56693 13.0889 7.60315 13.1667 7.6756 13.2334C7.74804 13.3 7.82848 13.3334 7.91693 13.3334ZM7.90026 14.6667C7.48915 14.6667 7.12537 14.5307 6.80893 14.2587C6.49248 13.9867 6.30626 13.6449 6.25026 13.2334C5.87248 13.1778 5.55582 13.0223 5.30026 12.7667C5.04471 12.5112 4.88915 12.1945 4.8336 11.8167C4.45582 11.7612 4.14204 11.6029 3.89226 11.342C3.64248 11.0812 3.4896 10.7672 3.4336 10.4C3.01137 10.3445 2.66693 10.1612 2.40026 9.85004C2.1336 9.53893 2.00026 9.17226 2.00026 8.75004C2.00026 8.52782 2.04204 8.31404 2.1256 8.10871C2.20915 7.90337 2.32848 7.72271 2.4836 7.56671L5.40026 4.65004C5.65582 4.39449 5.96982 4.26671 6.34226 4.26671C6.71471 4.26671 7.02848 4.39449 7.2836 4.65004L8.5336 5.90004C8.55582 5.93337 8.58915 5.95849 8.6336 5.97537C8.67804 5.99226 8.72248 6.00049 8.76693 6.00004C8.86693 6.00004 8.95026 5.9696 9.01693 5.90871C9.0836 5.84782 9.11693 5.76715 9.11693 5.66671C9.11693 5.62226 9.10848 5.57782 9.0916 5.53337C9.07471 5.48893 9.04982 5.4556 9.01693 5.43337L6.6336 3.05004C6.51137 2.91671 6.36982 2.8196 6.20893 2.75871C6.04804 2.69782 5.87848 2.66715 5.70026 2.66671C5.5336 2.66671 5.36693 2.69737 5.20026 2.75871C5.0336 2.82004 4.8836 2.91715 4.75026 3.05004L2.40026 5.41671C2.24471 5.57226 2.1336 5.7556 2.06693 5.96671C2.00026 6.17782 1.9836 6.38893 2.01693 6.60004C2.05026 6.78893 2.01137 6.9556 1.90026 7.10004C1.78915 7.24449 1.63915 7.32782 1.45026 7.35004C1.26137 7.37226 1.09471 7.33049 0.950262 7.22471C0.805818 7.11893 0.722484 6.97182 0.700262 6.78337C0.633596 6.36115 0.664262 5.94737 0.792262 5.54204C0.920262 5.13671 1.1396 4.77826 1.45026 4.46671L3.80026 2.11671C4.06693 1.86115 4.36426 1.66671 4.69226 1.53337C5.02026 1.40004 5.35626 1.33337 5.70026 1.33337C6.04426 1.33337 6.38048 1.40004 6.70893 1.53337C7.03737 1.66671 7.32893 1.86115 7.5836 2.11671L7.76693 2.30004L7.95026 2.11671C8.21693 1.86115 8.51426 1.66671 8.84226 1.53337C9.17026 1.40004 9.50626 1.33337 9.85026 1.33337C10.1943 1.33337 10.5305 1.40004 10.8589 1.53337C11.1874 1.66671 11.4789 1.86115 11.7336 2.11671L14.5503 4.93337C14.8058 5.18893 15.0003 5.48337 15.1336 5.81671C15.2669 6.15004 15.3336 6.48893 15.3336 6.83337C15.3336 7.17782 15.2669 7.51404 15.1336 7.84204C15.0003 8.17004 14.8058 8.4616 14.5503 8.71671L9.0836 14.1667C8.92804 14.3223 8.7476 14.4445 8.54226 14.5334C8.33693 14.6223 8.12293 14.6667 7.90026 14.6667Z" fill="#00A8A3"/>
</svg>
