<svg width="16" height="16" viewBox="0 0 16 16" fill="none" xmlns="http://www.w3.org/2000/svg">
<path d="M6.09963 5.22072C6.01055 4.92443 5.99201 4.61142 6.04547 4.30668C6.09894 4.00195 6.22293 3.71395 6.40754 3.46567C6.59215 3.2174 6.83226 3.01575 7.1087 2.87681C7.38514 2.73788 7.69024 2.66553 7.99963 2.66553C8.30901 2.66553 8.61411 2.73788 8.89055 2.87681C9.16699 3.01575 9.4071 3.2174 9.59171 3.46567C9.77633 3.71395 9.90032 4.00195 9.95378 4.30668C10.0072 4.61142 9.9887 4.92443 9.89963 5.22072L8.85763 8.69472C8.81096 8.85072 8.78763 8.92872 8.75163 8.99272C8.70584 9.07442 8.64334 9.14557 8.56822 9.20151C8.4931 9.25745 8.40703 9.29693 8.31563 9.31738C8.24363 9.33338 8.16229 9.33338 7.99963 9.33338C7.83696 9.33338 7.75563 9.33338 7.68363 9.31738C7.59222 9.29693 7.50615 9.25745 7.43103 9.20151C7.35591 9.14557 7.29341 9.07442 7.24763 8.99272C7.21163 8.92872 7.18763 8.85072 7.14096 8.69472L6.09963 5.22072Z" fill="#6B7280" stroke="#6B7280" stroke-width="1.33333"/>
<path d="M7.99935 14.0002C8.73573 14.0002 9.33268 13.4032 9.33268 12.6668C9.33268 11.9304 8.73573 11.3335 7.99935 11.3335C7.26297 11.3335 6.66602 11.9304 6.66602 12.6668C6.66602 13.4032 7.26297 14.0002 7.99935 14.0002Z" fill="#6B7280" stroke="#6B7280" stroke-width="1.33333"/>
</svg>
