<svg width="12" height="12" viewBox="0 0 12 12" fill="none" xmlns="http://www.w3.org/2000/svg">
<path d="M6 1C8.7615 1 11 3.2385 11 6C11 8.7615 8.7615 11 6 11H2C1.73478 11 1.48043 10.8946 1.29289 10.7071C1.10536 10.5196 1 10.2652 1 10V6C1 3.2385 3.2385 1 6 1ZM6 2C4.93913 2 3.92172 2.42143 3.17157 3.17157C2.42143 3.92172 2 4.93913 2 6V10H6C7.06087 10 8.07828 9.57857 8.82843 8.82843C9.57857 8.07828 10 7.06087 10 6C10 4.93913 9.57857 3.92172 8.82843 3.17157C8.07828 2.42143 7.06087 2 6 2ZM6 7C6.12744 7.00014 6.25002 7.04894 6.34268 7.13642C6.43535 7.22391 6.49112 7.34348 6.49859 7.4707C6.50605 7.59792 6.46466 7.72319 6.38287 7.82092C6.30107 7.91864 6.18505 7.98145 6.0585 7.9965L6 8H4.5C4.37256 7.99986 4.24998 7.95106 4.15732 7.86358C4.06465 7.77609 4.00888 7.65652 4.00141 7.5293C3.99395 7.40208 4.03534 7.27681 4.11713 7.17908C4.19893 7.08136 4.31495 7.01855 4.4415 7.0035L4.5 7H6ZM7.5 5C7.63261 5 7.75979 5.05268 7.85355 5.14645C7.94732 5.24021 8 5.36739 8 5.5C8 5.63261 7.94732 5.75979 7.85355 5.85355C7.75979 5.94732 7.63261 6 7.5 6H4.5C4.36739 6 4.24021 5.94732 4.14645 5.85355C4.05268 5.75979 4 5.63261 4 5.5C4 5.36739 4.05268 5.24021 4.14645 5.14645C4.24021 5.05268 4.36739 5 4.5 5H7.5Z" fill="#6B7280"/>
</svg>
