<svg width="16" height="16" viewBox="0 0 16 16" fill="none" xmlns="http://www.w3.org/2000/svg">
<path d="M13 2H3C2.73478 2 2.48043 2.10536 2.29289 2.29289C2.10536 2.48043 2 2.73478 2 3V13C2 13.2652 2.10536 13.5196 2.29289 13.7071C2.48043 13.8946 2.73478 14 3 14H13C13.2652 14 13.5196 13.8946 13.7071 13.7071C13.8946 13.5196 14 13.2652 14 13V3C14 2.73478 13.8946 2.48043 13.7071 2.29289C13.5196 2.10536 13.2652 2 13 2Z" stroke="#00A8A3" stroke-width="1.33333" stroke-linecap="round" stroke-linejoin="round"/>
<path d="M7.00033 10.3333L8.66699 11.6667L11.3337 8.33333M4.66699 5H11.3337M4.66699 7.66667H7.33366" stroke="#00A8A3" stroke-width="1.33333" stroke-linecap="round" stroke-linejoin="round"/>
</svg>
