<svg width="16" height="16" viewBox="0 0 16 16" fill="none" xmlns="http://www.w3.org/2000/svg">
<path d="M7.75 0.25C3.46875 0.25 0 3.71875 0 8C0 12.2812 3.46875 15.75 7.75 15.75C12.0312 15.75 15.5 12.2812 15.5 8C15.5 3.71875 12.0312 0.25 7.75 0.25ZM7.75 14.25C4.30312 14.25 1.5 11.4469 1.5 8C1.5 4.55312 4.30312 1.75 7.75 1.75C11.1969 1.75 14 4.55312 14 8C14 11.4469 11.1969 14.25 7.75 14.25ZM5.25 7.5C5.80313 7.5 6.25 7.05313 6.25 6.5C6.25 5.94687 5.80313 5.5 5.25 5.5C4.69687 5.5 4.25 5.94687 4.25 6.5C4.25 7.05313 4.69687 7.5 5.25 7.5ZM10.25 7.5C10.8031 7.5 11.25 7.05313 11.25 6.5C11.25 5.94687 10.8031 5.5 10.25 5.5C9.69687 5.5 9.25 5.94687 9.25 6.5C9.25 7.05313 9.69687 7.5 10.25 7.5ZM10.375 9.76875C9.725 10.55 8.76562 11 7.75 11C6.73438 11 5.775 10.5531 5.125 9.76875C4.85938 9.45 4.38437 9.40938 4.06875 9.67188C3.75 9.9375 3.70937 10.4094 3.97187 10.7281C4.90937 11.8531 6.2875 12.4969 7.75 12.4969C9.2125 12.4969 10.5906 11.8531 11.5281 10.7281C11.7937 10.4094 11.75 9.9375 11.4312 9.67188C11.1156 9.40938 10.6406 9.45 10.375 9.76875Z" fill="#F2C94C"/>
</svg>
