<svg width="84" height="84" viewBox="0 0 84 84" fill="none" xmlns="http://www.w3.org/2000/svg">
<g filter="url(#filter0_i_1782_1406)">
<circle cx="42" cy="42" r="40.5" stroke="#00A8A3" stroke-width="3"/>
</g>
<g filter="url(#filter1_ii_1782_1406)">
<path d="M31.9472 44.3121C29.3164 44.3121 26.6794 44.2811 24.061 44.2068C18.9788 44.0583 15.9952 42.3622 15.1905 39.1804C14.7634 37.4905 14.9986 35.0764 16.4718 33.4979C17.487 32.4084 18.8922 31.9565 20.4211 32.2227C21.4735 32.4084 22.1791 33.4174 21.9934 34.4697C21.8077 35.5221 20.7987 36.2215 19.7464 36.042C19.4493 35.9863 19.3812 36.0606 19.3069 36.1411C18.9355 36.5372 18.7684 37.5215 18.9541 38.2395C19.2822 39.5395 21.0402 40.2451 24.1786 40.338C31.2477 40.5485 38.4902 40.4061 45.4912 40.2637C49.4901 40.1832 53.6189 40.1028 57.6796 40.0842H58.3667C59.8586 40.078 61.3442 40.0718 62.8298 40.0718H64.7116C65.7825 40.0718 66.6492 40.9384 66.6492 42.0093C66.6492 43.0802 65.7825 43.9469 64.7116 43.9469H62.8298C61.3442 43.9469 59.8648 43.9469 58.3791 43.9592H57.6982C53.6684 43.9778 49.552 44.0583 45.5717 44.1387C41.0962 44.2254 36.5217 44.3183 31.9472 44.3183V44.3121Z" fill="#00A8A3"/>
<path d="M26.2641 59.6946C22.6304 59.6946 19.6777 56.7419 19.6777 53.1083C19.6777 49.4747 22.6304 46.522 26.2641 46.522C29.8977 46.522 32.8504 49.4747 32.8504 53.1083C32.8504 56.7419 29.8977 59.6946 26.2641 59.6946ZM26.2641 50.397C24.766 50.397 23.5528 51.6165 23.5528 53.1083C23.5528 54.6001 24.7722 55.8196 26.2641 55.8196C27.7559 55.8196 28.9753 54.6001 28.9753 53.1083C28.9753 51.6165 27.7559 50.397 26.2641 50.397Z" fill="#00A8A3"/>
<path d="M57.7289 59.6946C54.0953 59.6946 51.1426 56.7419 51.1426 53.1083C51.1426 49.4747 54.0953 46.522 57.7289 46.522C61.3625 46.522 64.3152 49.4747 64.3152 53.1083C64.3152 56.7419 61.3625 59.6946 57.7289 59.6946ZM57.7289 50.397C56.2309 50.397 55.0176 51.6165 55.0176 53.1083C55.0176 54.6001 56.2371 55.8196 57.7289 55.8196C59.2207 55.8196 60.4402 54.6001 60.4402 53.1083C60.4402 51.6165 59.2207 50.397 57.7289 50.397Z" fill="#00A8A3"/>
<path d="M68.2765 32.2723C68.2765 30.7866 66.4009 29.5919 64.0487 29.5238C64.0487 29.5238 64.0487 29.5176 64.0487 29.5115C64.0487 27.0911 62.0864 25.135 59.6722 25.135C58.9728 25.135 58.3228 25.3145 57.7409 25.6055C56.9919 24.2746 55.5806 23.3708 53.9464 23.3708C52.9002 23.3708 51.9531 23.7546 51.2041 24.3612C50.3127 22.3804 48.3319 21 46.0168 21C43.1879 21 40.848 23.0675 40.4085 25.7664C39.5481 25.036 38.4462 24.5779 37.2268 24.5779C34.9797 24.5779 33.1041 26.0883 32.5099 28.1372C32.0209 27.9453 31.4947 27.8339 30.9376 27.8339C29.1424 27.8339 27.6011 28.9172 26.9264 30.4709C25.2426 30.7619 23.9489 32.2042 23.8994 33.9745C23.8994 34.1293 23.918 34.2841 23.9365 34.4326C23.6951 34.804 23.5527 35.2373 23.5527 35.7078C23.5527 36.7601 24.2522 37.6453 25.2055 37.9486C26.6478 38.6172 29.941 37.9486 36.3787 37.6515C36.9668 37.6267 37.5548 37.5958 38.1429 37.571C38.991 37.5277 39.839 37.4906 40.6871 37.4472C41.4856 37.4039 42.2841 37.3667 43.0826 37.3172C43.8317 37.2739 44.5807 37.2306 45.3297 37.1872C46.0292 37.1439 46.7348 37.1006 47.4343 37.0572C48.0905 37.0139 48.7466 36.9706 49.4028 36.9272C50.0156 36.8839 50.6284 36.8406 51.2413 36.7973C51.8108 36.7539 52.3802 36.7106 52.9559 36.6611C53.4883 36.6177 54.0144 36.5744 54.5468 36.5249C55.0358 36.4816 55.531 36.4382 56.0201 36.3887C56.4719 36.3454 56.9238 36.302 57.3757 36.2525C57.7904 36.2092 58.2114 36.1597 58.6261 36.1163C59.0099 36.073 59.3875 36.0235 59.7713 35.974C60.1179 35.9306 60.4708 35.8811 60.8174 35.8316C61.1331 35.7883 61.4488 35.7387 61.7645 35.6892C62.0493 35.6459 62.3402 35.5964 62.6249 35.5468C62.8849 35.5035 63.1387 35.454 63.3987 35.4045C63.6277 35.3611 63.8568 35.3116 64.092 35.2621C64.2963 35.2188 64.5006 35.1692 64.7048 35.1135C64.8843 35.0702 65.0639 35.0207 65.2434 34.965C65.4043 34.9216 65.5591 34.8721 65.7138 34.8164C65.85 34.7731 65.9862 34.7236 66.1224 34.6678C66.24 34.6245 66.3576 34.575 66.4752 34.5193C66.5743 34.4698 66.6733 34.4202 66.7723 34.3707C66.859 34.3212 66.9395 34.2717 67.0199 34.2222C67.088 34.1726 67.1561 34.1231 67.218 34.0736C67.2428 34.055 67.2676 34.0303 67.2923 34.0055C67.9051 33.5289 68.2827 32.9408 68.2827 32.2846L68.2765 32.2723Z" fill="#00A8A3"/>
<path d="M38.2183 28.3972C37.3641 28.3972 36.5903 28.7501 36.0332 29.3134C36.3551 29.171 36.7141 29.0967 37.0917 29.0967C38.5712 29.0967 39.7659 30.2976 39.7659 31.7708C39.7659 33.1389 38.7445 34.2593 37.4198 34.4264C37.6736 34.4945 37.9398 34.5317 38.2121 34.5317C39.9082 34.5317 41.2763 33.1574 41.2763 31.4675C41.2763 29.7776 39.902 28.4034 38.2121 28.4034L38.2183 28.3972Z" fill="white"/>
<g filter="url(#filter2_i_1782_1406)">
<path d="M39.7721 31.7709C39.7721 30.2915 38.5713 29.0968 37.098 29.0968C36.7204 29.0968 36.3614 29.1773 36.0395 29.3135C35.4948 29.8644 35.1543 30.6258 35.1543 31.4676C35.1543 32.8852 36.12 34.0799 37.4261 34.4265C38.7446 34.2656 39.7721 33.139 39.7721 31.7709Z" fill="black"/>
</g>
<path d="M52.4488 27.6111C51.5946 27.6111 50.8208 27.9639 50.2637 28.5272C50.5856 28.3849 50.9446 28.3106 51.3222 28.3106C52.8016 28.3106 53.9963 29.5115 53.9963 30.9847C53.9963 32.3527 52.975 33.4732 51.6503 33.6403C51.9041 33.7084 52.1702 33.7455 52.4426 33.7455C54.1387 33.7455 55.5067 32.3713 55.5067 30.6814C55.5067 28.9915 54.1325 27.6173 52.4426 27.6173L52.4488 27.6111Z" fill="white"/>
<g filter="url(#filter3_i_1782_1406)">
<path d="M53.9968 30.9847C53.9968 29.5052 52.7959 28.3105 51.3226 28.3105C50.945 28.3105 50.586 28.391 50.2641 28.5272C49.7194 29.0781 49.3789 29.8395 49.3789 30.6814C49.3789 32.0989 50.3446 33.2936 51.6507 33.6403C52.9692 33.4793 53.9968 32.3527 53.9968 30.9847Z" fill="black"/>
</g>
</g>
<defs>
<filter id="filter0_i_1782_1406" x="0" y="0" width="84" height="88" filterUnits="userSpaceOnUse" color-interpolation-filters="sRGB">
<feFlood flood-opacity="0" result="BackgroundImageFix"/>
<feBlend mode="normal" in="SourceGraphic" in2="BackgroundImageFix" result="shape"/>
<feColorMatrix in="SourceAlpha" type="matrix" values="0 0 0 0 0 0 0 0 0 0 0 0 0 0 0 0 0 0 127 0" result="hardAlpha"/>
<feOffset dy="6"/>
<feGaussianBlur stdDeviation="2"/>
<feComposite in2="hardAlpha" operator="arithmetic" k2="-1" k3="1"/>
<feColorMatrix type="matrix" values="0 0 0 0 0.862745 0 0 0 0 0.882353 0 0 0 0 0.65098 0 0 0 0.31 0"/>
<feBlend mode="normal" in2="shape" result="effect1_innerShadow_1782_1406"/>
</filter>
<filter id="filter1_ii_1782_1406" x="12" y="21" width="57.2832" height="39.7946" filterUnits="userSpaceOnUse" color-interpolation-filters="sRGB">
<feFlood flood-opacity="0" result="BackgroundImageFix"/>
<feBlend mode="normal" in="SourceGraphic" in2="BackgroundImageFix" result="shape"/>
<feColorMatrix in="SourceAlpha" type="matrix" values="0 0 0 0 0 0 0 0 0 0 0 0 0 0 0 0 0 0 127 0" result="hardAlpha"/>
<feOffset dx="1" dy="2"/>
<feGaussianBlur stdDeviation="0.55"/>
<feComposite in2="hardAlpha" operator="arithmetic" k2="-1" k3="1"/>
<feColorMatrix type="matrix" values="0 0 0 0 0.862224 0 0 0 0 0.88141 0 0 0 0 0.65117 0 0 0 0.42 0"/>
<feBlend mode="normal" in2="shape" result="effect1_innerShadow_1782_1406"/>
<feColorMatrix in="SourceAlpha" type="matrix" values="0 0 0 0 0 0 0 0 0 0 0 0 0 0 0 0 0 0 127 0" result="hardAlpha"/>
<feOffset dx="-3"/>
<feGaussianBlur stdDeviation="9.65"/>
<feComposite in2="hardAlpha" operator="arithmetic" k2="-1" k3="1"/>
<feColorMatrix type="matrix" values="0 0 0 0 0.944851 0 0 0 0 0.964743 0 0 0 0 0.666353 0 0 0 0.25 0"/>
<feBlend mode="normal" in2="effect1_innerShadow_1782_1406" result="effect2_innerShadow_1782_1406"/>
</filter>
<filter id="filter2_i_1782_1406" x="34.1543" y="27.0968" width="5.61816" height="7.32971" filterUnits="userSpaceOnUse" color-interpolation-filters="sRGB">
<feFlood flood-opacity="0" result="BackgroundImageFix"/>
<feBlend mode="normal" in="SourceGraphic" in2="BackgroundImageFix" result="shape"/>
<feColorMatrix in="SourceAlpha" type="matrix" values="0 0 0 0 0 0 0 0 0 0 0 0 0 0 0 0 0 0 127 0" result="hardAlpha"/>
<feOffset dx="-1" dy="-2"/>
<feGaussianBlur stdDeviation="1.85"/>
<feComposite in2="hardAlpha" operator="arithmetic" k2="-1" k3="1"/>
<feColorMatrix type="matrix" values="0 0 0 0 0.464743 0 0 0 0 0.422291 0 0 0 0 0.422291 0 0 0 0.52 0"/>
<feBlend mode="normal" in2="shape" result="effect1_innerShadow_1782_1406"/>
</filter>
<filter id="filter3_i_1782_1406" x="48.3789" y="26.3105" width="5.61816" height="7.32971" filterUnits="userSpaceOnUse" color-interpolation-filters="sRGB">
<feFlood flood-opacity="0" result="BackgroundImageFix"/>
<feBlend mode="normal" in="SourceGraphic" in2="BackgroundImageFix" result="shape"/>
<feColorMatrix in="SourceAlpha" type="matrix" values="0 0 0 0 0 0 0 0 0 0 0 0 0 0 0 0 0 0 127 0" result="hardAlpha"/>
<feOffset dx="-1" dy="-2"/>
<feGaussianBlur stdDeviation="1.85"/>
<feComposite in2="hardAlpha" operator="arithmetic" k2="-1" k3="1"/>
<feColorMatrix type="matrix" values="0 0 0 0 0.464743 0 0 0 0 0.422291 0 0 0 0 0.422291 0 0 0 0.52 0"/>
<feBlend mode="normal" in2="shape" result="effect1_innerShadow_1782_1406"/>
</filter>
</defs>
</svg>
