<svg width="84" height="84" viewBox="0 0 84 84" fill="none" xmlns="http://www.w3.org/2000/svg">
<g filter="url(#filter0_i_1778_1356)">
<circle cx="42" cy="42" r="40.5" stroke="#00A8A3" stroke-width="3"/>
</g>
<g clip-path="url(#clip0_1778_1356)">
<g filter="url(#filter1_i_1778_1356)">
<path d="M71.9259 26.9929C71.5167 25.709 69.563 25.1888 67.5127 25.7816C67.5127 25.7774 67.5127 25.7745 67.5099 25.7702C66.8421 23.6755 64.6071 22.5198 62.5184 23.1896C61.916 23.3819 61.4045 23.7168 60.9796 24.1301C59.9637 23.1881 58.496 22.7934 57.0836 23.2451C56.1814 23.5344 55.4681 24.1272 54.9864 24.8654C53.6707 23.3948 51.5735 22.7478 49.5758 23.3876C47.1334 24.1714 45.6841 26.6081 46.0507 29.0705C45.1044 28.6758 44.0288 28.5846 42.9759 28.9223C41.035 29.545 39.833 31.3719 39.8827 33.3156C39.4082 33.2871 38.9208 33.3341 38.4391 33.488C36.8861 33.9868 35.8546 35.3533 35.7011 36.8824C34.33 37.5991 33.6068 39.2079 34.0558 40.7541C34.0956 40.8909 34.1581 41.0163 34.2135 41.1431C34.1083 41.5293 34.1069 41.9468 34.2376 42.3558C34.5289 43.2692 35.3758 43.8406 36.2837 43.8363C36.7668 43.8962 37.392 43.7651 38.2175 43.4872L38.6494 46.635C39.0018 45.9382 39.9239 45.1773 42.0083 44.5588C47.2214 43.0113 75.3246 38.5297 71.008 29.4111C71.0734 29.3498 71.1388 29.2871 71.1999 29.2216C71.2595 29.1574 71.3164 29.0919 71.3704 29.0235C71.4172 28.9636 71.4613 28.9009 71.5011 28.8368C71.5167 28.8112 71.5295 28.7827 71.5451 28.757C71.9415 28.1771 72.1078 27.5572 71.9259 26.99V26.9929Z" fill="#00A8A3"/>
<path d="M38.9238 48.6329L38.6496 46.6379C38.1054 47.7138 38.9238 48.6329 38.9238 48.6329Z" fill="#F89F1E"/>
</g>
<path d="M44.8914 31.9618C44.1539 32.1983 43.5827 32.7156 43.2588 33.3583C43.5003 33.1474 43.7873 32.9806 44.1127 32.8752C45.3887 32.4662 46.7555 33.1716 47.1633 34.4512C47.5398 35.634 46.9672 36.8908 45.8717 37.3996C46.109 37.3882 46.3477 37.3483 46.585 37.2727C48.0471 36.8039 48.8541 35.2336 48.3867 33.7672C47.9192 32.3009 46.3534 31.4915 44.8914 31.9603V31.9618Z" fill="white"/>
<g filter="url(#filter2_i_1778_1356)">
<path d="M47.163 34.4526C46.7552 33.173 45.3883 32.4662 44.1124 32.8766C43.787 32.9806 43.5 33.1473 43.2584 33.3597C42.9402 33.9909 42.8578 34.7419 43.0894 35.4686C43.4815 36.6984 44.6438 37.4622 45.8714 37.4024C46.9669 36.8951 47.5395 35.6368 47.163 34.454V34.4526Z" fill="#2B282B"/>
</g>
<path d="M56.9636 27.3406C56.2262 27.5771 55.655 28.0944 55.3311 28.7371C55.5726 28.5262 55.8596 28.3594 56.185 28.254C57.4609 27.845 58.8278 28.5504 59.2356 29.83C59.6121 31.0128 59.0395 32.2696 57.944 32.7783C58.1813 32.7669 58.42 32.727 58.6573 32.6515C60.1193 32.1827 60.9264 30.6124 60.4589 29.146C59.9915 27.6797 58.4257 26.8703 56.9636 27.3391V27.3406Z" fill="white"/>
<g filter="url(#filter3_i_1778_1356)">
<path d="M59.2352 29.8314C58.8274 28.5518 57.4606 27.845 56.1846 28.2554C55.8593 28.3594 55.5723 28.5261 55.3307 28.7384C55.0124 29.3697 54.93 30.1207 55.1616 30.8474C55.5538 32.0772 56.716 32.841 57.9437 32.7812C59.0392 32.2739 59.6118 31.0156 59.2352 29.8328V29.8314Z" fill="#2B282B"/>
</g>
<g filter="url(#filter4_i_1778_1356)">
<path d="M19.6388 52.9492C19.3469 52.1714 18.4816 51.7781 17.7061 52.0708C16.9305 52.3634 16.5383 53.2313 16.8302 54.0091L20.2127 63.025C20.5046 63.8028 21.3699 64.1961 22.1454 63.9034C22.921 63.6107 23.3132 62.7429 23.0213 61.9651L19.6388 52.9492Z" fill="#BBBEC0"/>
</g>
<g filter="url(#filter5_i_1778_1356)">
<path d="M20.101 43.1654L18.1169 43.9141C17.7886 44.038 17.6226 44.4053 17.7461 44.7346L20.159 51.1657C20.2825 51.495 20.6488 51.6615 20.9771 51.5376L22.9612 50.7888C23.2895 50.6649 23.4555 50.2976 23.332 49.9683L20.9191 43.5372C20.7956 43.208 20.4293 43.0415 20.101 43.1654Z" fill="#BBBEC0"/>
</g>
<g filter="url(#filter6_i_1778_1356)">
<path d="M16.0146 43.5354L13.3709 44.533C12.5674 44.8362 12.1611 45.7353 12.4634 46.5411L14.9999 53.3017C15.3022 54.1075 16.1986 54.5149 17.0021 54.2117L19.6458 53.2141C20.4493 52.9109 20.8556 52.0118 20.5532 51.206L18.0168 44.4454C17.7145 43.6396 16.818 43.2322 16.0146 43.5354Z" fill="#D6DADD"/>
</g>
<g filter="url(#filter7_i_1778_1356)">
<path d="M23.6115 41.8399L21.0838 42.7932C20.6831 42.9443 20.4813 43.3917 20.6319 43.7936L22.9465 49.9638C23.0971 50.3657 23.5433 50.568 23.9439 50.417L26.4717 49.4636C28.62 48.6528 37.9763 52.5758 40.3236 51.6895C39.6146 49.7999 36.4432 41.3483 36.4432 41.3483C36.4432 41.3483 33.2719 32.8966 32.5629 31.0071C30.217 31.892 25.7598 41.0291 23.6115 41.8399Z" fill="#D6DADD"/>
</g>
<g filter="url(#filter8_i_1778_1356)">
<path d="M32.2019 30.0475L32.2006 30.048C31.3978 30.351 30.9919 31.2492 31.294 32.0543L38.6811 51.7438C38.9832 52.5489 39.8788 52.956 40.6815 52.653L40.6829 52.6525C41.4856 52.3496 41.8915 51.4514 41.5895 50.6463L34.2023 30.9568C33.9003 30.1517 33.0047 29.7446 32.2019 30.0475Z" fill="#BBBEC0"/>
</g>
</g>
<defs>
<filter id="filter0_i_1778_1356" x="0" y="0" width="84" height="88" filterUnits="userSpaceOnUse" color-interpolation-filters="sRGB">
<feFlood flood-opacity="0" result="BackgroundImageFix"/>
<feBlend mode="normal" in="SourceGraphic" in2="BackgroundImageFix" result="shape"/>
<feColorMatrix in="SourceAlpha" type="matrix" values="0 0 0 0 0 0 0 0 0 0 0 0 0 0 0 0 0 0 127 0" result="hardAlpha"/>
<feOffset dy="6"/>
<feGaussianBlur stdDeviation="2"/>
<feComposite in2="hardAlpha" operator="arithmetic" k2="-1" k3="1"/>
<feColorMatrix type="matrix" values="0 0 0 0 0.862745 0 0 0 0 0.882353 0 0 0 0 0.65098 0 0 0 0.31 0"/>
<feBlend mode="normal" in2="shape" result="effect1_innerShadow_1778_1356"/>
</filter>
<filter id="filter1_i_1778_1356" x="33.9229" y="22.9994" width="38.0762" height="27.3335" filterUnits="userSpaceOnUse" color-interpolation-filters="sRGB">
<feFlood flood-opacity="0" result="BackgroundImageFix"/>
<feBlend mode="normal" in="SourceGraphic" in2="BackgroundImageFix" result="shape"/>
<feColorMatrix in="SourceAlpha" type="matrix" values="0 0 0 0 0 0 0 0 0 0 0 0 0 0 0 0 0 0 127 0" result="hardAlpha"/>
<feOffset dy="4"/>
<feGaussianBlur stdDeviation="0.85"/>
<feComposite in2="hardAlpha" operator="arithmetic" k2="-1" k3="1"/>
<feColorMatrix type="matrix" values="0 0 0 0 0.862745 0 0 0 0 0.882353 0 0 0 0 0.65098 0 0 0 0.45 0"/>
<feBlend mode="normal" in2="shape" result="effect1_innerShadow_1778_1356"/>
</filter>
<filter id="filter2_i_1778_1356" x="41.957" y="30.7599" width="5.32129" height="6.64575" filterUnits="userSpaceOnUse" color-interpolation-filters="sRGB">
<feFlood flood-opacity="0" result="BackgroundImageFix"/>
<feBlend mode="normal" in="SourceGraphic" in2="BackgroundImageFix" result="shape"/>
<feColorMatrix in="SourceAlpha" type="matrix" values="0 0 0 0 0 0 0 0 0 0 0 0 0 0 0 0 0 0 127 0" result="hardAlpha"/>
<feOffset dx="-1" dy="-2"/>
<feGaussianBlur stdDeviation="1.85"/>
<feComposite in2="hardAlpha" operator="arithmetic" k2="-1" k3="1"/>
<feColorMatrix type="matrix" values="0 0 0 0 0.464743 0 0 0 0 0.422291 0 0 0 0 0.422291 0 0 0 0.52 0"/>
<feBlend mode="normal" in2="shape" result="effect1_innerShadow_1778_1356"/>
</filter>
<filter id="filter3_i_1778_1356" x="54.0293" y="26.1387" width="5.32129" height="6.64575" filterUnits="userSpaceOnUse" color-interpolation-filters="sRGB">
<feFlood flood-opacity="0" result="BackgroundImageFix"/>
<feBlend mode="normal" in="SourceGraphic" in2="BackgroundImageFix" result="shape"/>
<feColorMatrix in="SourceAlpha" type="matrix" values="0 0 0 0 0 0 0 0 0 0 0 0 0 0 0 0 0 0 127 0" result="hardAlpha"/>
<feOffset dx="-1" dy="-2"/>
<feGaussianBlur stdDeviation="1.85"/>
<feComposite in2="hardAlpha" operator="arithmetic" k2="-1" k3="1"/>
<feColorMatrix type="matrix" values="0 0 0 0 0.464743 0 0 0 0 0.422291 0 0 0 0 0.422291 0 0 0 0.52 0"/>
<feBlend mode="normal" in2="shape" result="effect1_innerShadow_1778_1356"/>
</filter>
<filter id="filter4_i_1778_1356" x="16.7334" y="51.974" width="6.38477" height="16.0262" filterUnits="userSpaceOnUse" color-interpolation-filters="sRGB">
<feFlood flood-opacity="0" result="BackgroundImageFix"/>
<feBlend mode="normal" in="SourceGraphic" in2="BackgroundImageFix" result="shape"/>
<feColorMatrix in="SourceAlpha" type="matrix" values="0 0 0 0 0 0 0 0 0 0 0 0 0 0 0 0 0 0 127 0" result="hardAlpha"/>
<feOffset dy="10"/>
<feGaussianBlur stdDeviation="2"/>
<feComposite in2="hardAlpha" operator="arithmetic" k2="-1" k3="1"/>
<feColorMatrix type="matrix" values="0 0 0 0 1 0 0 0 0 1 0 0 0 0 1 0 0 0 0.79 0"/>
<feBlend mode="normal" in2="shape" result="effect1_innerShadow_1778_1356"/>
</filter>
<filter id="filter5_i_1778_1356" x="17.7051" y="43.1244" width="9.76797" height="12.5541" filterUnits="userSpaceOnUse" color-interpolation-filters="sRGB">
<feFlood flood-opacity="0" result="BackgroundImageFix"/>
<feBlend mode="normal" in="SourceGraphic" in2="BackgroundImageFix" result="shape"/>
<feColorMatrix in="SourceAlpha" type="matrix" values="0 0 0 0 0 0 0 0 0 0 0 0 0 0 0 0 0 0 127 0" result="hardAlpha"/>
<feOffset dx="6" dy="10"/>
<feGaussianBlur stdDeviation="2.05"/>
<feComposite in2="hardAlpha" operator="arithmetic" k2="-1" k3="1"/>
<feColorMatrix type="matrix" values="0 0 0 0 1 0 0 0 0 1 0 0 0 0 1 0 0 0 0.7 0"/>
<feBlend mode="normal" in2="shape" result="effect1_innerShadow_1778_1356"/>
</filter>
<filter id="filter6_i_1778_1356" x="12.3633" y="43.4351" width="10.29" height="14.877" filterUnits="userSpaceOnUse" color-interpolation-filters="sRGB">
<feFlood flood-opacity="0" result="BackgroundImageFix"/>
<feBlend mode="normal" in="SourceGraphic" in2="BackgroundImageFix" result="shape"/>
<feColorMatrix in="SourceAlpha" type="matrix" values="0 0 0 0 0 0 0 0 0 0 0 0 0 0 0 0 0 0 127 0" result="hardAlpha"/>
<feOffset dx="2" dy="6"/>
<feGaussianBlur stdDeviation="2"/>
<feComposite in2="hardAlpha" operator="arithmetic" k2="-1" k3="1"/>
<feColorMatrix type="matrix" values="0 0 0 0 1 0 0 0 0 1 0 0 0 0 1 0 0 0 0.79 0"/>
<feBlend mode="normal" in2="shape" result="effect1_innerShadow_1778_1356"/>
</filter>
<filter id="filter7_i_1778_1356" x="20.582" y="31.0071" width="19.7412" height="24.8136" filterUnits="userSpaceOnUse" color-interpolation-filters="sRGB">
<feFlood flood-opacity="0" result="BackgroundImageFix"/>
<feBlend mode="normal" in="SourceGraphic" in2="BackgroundImageFix" result="shape"/>
<feColorMatrix in="SourceAlpha" type="matrix" values="0 0 0 0 0 0 0 0 0 0 0 0 0 0 0 0 0 0 127 0" result="hardAlpha"/>
<feOffset dy="10"/>
<feGaussianBlur stdDeviation="2"/>
<feComposite in2="hardAlpha" operator="arithmetic" k2="-1" k3="1"/>
<feColorMatrix type="matrix" values="0 0 0 0 1 0 0 0 0 1 0 0 0 0 1 0 0 0 0.79 0"/>
<feBlend mode="normal" in2="shape" result="effect1_innerShadow_1778_1356"/>
</filter>
<filter id="filter8_i_1778_1356" x="31.1943" y="29.9474" width="10.4951" height="26.8059" filterUnits="userSpaceOnUse" color-interpolation-filters="sRGB">
<feFlood flood-opacity="0" result="BackgroundImageFix"/>
<feBlend mode="normal" in="SourceGraphic" in2="BackgroundImageFix" result="shape"/>
<feColorMatrix in="SourceAlpha" type="matrix" values="0 0 0 0 0 0 0 0 0 0 0 0 0 0 0 0 0 0 127 0" result="hardAlpha"/>
<feOffset dy="10"/>
<feGaussianBlur stdDeviation="2"/>
<feComposite in2="hardAlpha" operator="arithmetic" k2="-1" k3="1"/>
<feColorMatrix type="matrix" values="0 0 0 0 1 0 0 0 0 1 0 0 0 0 1 0 0 0 0.79 0"/>
<feBlend mode="normal" in2="shape" result="effect1_innerShadow_1778_1356"/>
</filter>
<clipPath id="clip0_1778_1356">
<rect width="60" height="41" fill="white" transform="translate(12 23)"/>
</clipPath>
</defs>
</svg>
