<svg width="84" height="84" viewBox="0 0 84 84" fill="none" xmlns="http://www.w3.org/2000/svg">
<g filter="url(#filter0_i_1778_1374)">
<path d="M78 41.3248C78 38.9157 75.0187 36.9665 71.2856 36.8568C71.2856 36.8498 71.2873 36.8427 71.2873 36.8356C71.2873 32.9071 68.1764 29.7232 64.3378 29.7232C63.2317 29.7232 62.1999 30.0115 61.2719 30.482C60.0776 28.3241 57.8429 26.8525 55.247 26.8525C53.5879 26.8525 52.086 27.4715 50.89 28.4638C49.4797 25.2464 46.3273 23 42.6564 23C38.1698 23 34.4574 26.3537 33.7574 30.7438C32.3903 29.557 30.6448 28.8141 28.7108 28.8141C25.1453 28.8141 22.1692 31.2656 21.2187 34.5998C20.4409 34.2921 19.6044 34.1063 18.7213 34.1063C15.8679 34.1063 13.4223 35.8698 12.3508 38.3868C9.68231 38.8591 7.62219 41.201 7.5496 44.0753C7.54268 44.3318 7.58071 44.5759 7.6049 44.8235C7.22641 45.4214 7 46.1324 7 46.9001C7 48.6141 8.10784 50.0468 9.62528 50.535C11.9101 51.6175 17.1382 50.535 27.3645 50.0539C28.2978 50.0097 29.231 49.9654 30.1626 49.9195C31.5089 49.854 32.8535 49.785 34.1999 49.7143C35.4667 49.6471 36.7336 49.5781 37.9987 49.5073C39.1877 49.4401 40.3785 49.3711 41.5676 49.2986C42.6823 49.2314 43.7971 49.1606 44.9136 49.0864C45.9557 49.0174 46.9996 48.9466 48.0418 48.8723C49.0148 48.8033 49.9878 48.7308 50.9609 48.6565C51.8665 48.5876 52.7738 48.515 53.6795 48.439C54.5211 48.3682 55.3628 48.2957 56.2028 48.2196C56.9822 48.1489 57.76 48.0746 58.5394 47.9985C59.2584 47.9278 59.9774 47.8535 60.6946 47.7757C61.3565 47.7031 62.0168 47.6289 62.677 47.551C63.2836 47.4785 63.8885 47.4042 64.4934 47.3246C65.0464 47.2521 65.5995 47.176 66.1526 47.0964C66.6555 47.0239 67.1584 46.9479 67.6596 46.8665C68.1142 46.794 68.5687 46.7162 69.0232 46.6348C69.4329 46.5605 69.8407 46.4844 70.2486 46.4013C70.615 46.327 70.9797 46.2492 71.3443 46.1661C71.6693 46.0918 71.9942 46.0139 72.3174 45.929C72.6043 45.8547 72.8912 45.7751 73.1763 45.6902C73.4269 45.616 73.6775 45.5364 73.9264 45.4515C74.1442 45.3772 74.3619 45.2976 74.5763 45.2109C74.7629 45.1348 74.9496 45.0552 75.131 44.9686C75.29 44.8925 75.4473 44.8129 75.5994 44.7245C75.7325 44.6484 75.8621 44.5671 75.9883 44.4804C76.0972 44.4043 76.2043 44.323 76.3063 44.2345C76.346 44.1991 76.3823 44.1585 76.4221 44.1213C77.3916 43.3519 77.9965 42.3879 77.9965 41.3231L78 41.3248Z" fill="#00A8A3"/>
</g>
<path d="M30.2869 35.0728C28.9301 35.0728 27.7047 35.6305 26.8232 36.5261C27.3383 36.3026 27.9069 36.1779 28.5032 36.1779C30.8486 36.1779 32.7515 38.0833 32.7515 40.4357C32.7515 42.6078 31.1286 44.3955 29.0321 44.657C29.4331 44.7644 29.8531 44.8268 30.2886 44.8268C32.9762 44.8268 35.1557 42.6425 35.1557 39.9489C35.1557 37.2553 32.9762 35.071 30.2886 35.071L30.2869 35.0728Z" fill="white"/>
<g filter="url(#filter1_i_1778_1374)">
<path d="M32.7499 40.4357C32.7499 38.0851 30.8487 36.178 28.5016 36.178C27.9053 36.178 27.3367 36.3027 26.8216 36.5262C25.9557 37.4061 25.4199 38.6152 25.4199 39.949C25.4199 42.206 26.953 44.0993 29.0305 44.6553C31.127 44.3938 32.7499 42.6062 32.7499 40.434V40.4357Z" fill="#4A4445"/>
</g>
<path d="M52.8699 33.8222C51.5131 33.8222 50.2877 34.3799 49.4062 35.2755C49.9213 35.052 50.4899 34.9273 51.0862 34.9273C53.4316 34.9273 55.3345 36.8327 55.3345 39.185C55.3345 41.3572 53.7116 43.1449 51.6151 43.4064C52.0161 43.5138 52.4361 43.5762 52.8716 43.5762C55.5592 43.5762 57.7387 41.3919 57.7387 38.6983C57.7387 36.0047 55.5592 33.8204 52.8716 33.8204L52.8699 33.8222Z" fill="white"/>
<g filter="url(#filter2_i_1778_1374)">
<path d="M55.3329 39.1868C55.3329 36.8362 53.4317 34.9291 51.0846 34.9291C50.4883 34.9291 49.9197 35.0538 49.4046 35.2772C48.5387 36.1572 48.0029 37.3663 48.0029 38.7001C48.0029 40.9571 49.536 42.8504 51.6135 43.4064C53.71 43.1449 55.3329 41.3573 55.3329 39.1851V39.1868Z" fill="#4A4445"/>
</g>
<g filter="url(#filter3_i_1778_1374)">
<path fill-rule="evenodd" clip-rule="evenodd" d="M52.671 47.9102C52.2527 47.4875 51.8483 47.0424 51.4058 46.6526C51.0619 46.3495 50.6678 46.1174 50.2962 45.8541C50.2409 45.7952 50.196 45.7172 50.1303 45.6809C49.3491 45.2374 48.5748 44.7818 47.7814 44.3679C47.4133 44.1756 47.0089 44.0699 46.6217 43.9261C46.4126 43.8551 46.2034 43.7841 45.9926 43.7131C45.8733 43.6525 45.7575 43.5676 45.6313 43.5347C45.1872 43.4151 44.743 43.2679 44.2884 43.2159C43.623 43.1415 42.9507 43.1397 42.2818 43.1068C42.0951 43.1172 41.9084 43.1259 41.7218 43.1363C41.5109 43.1363 41.2932 43.1033 41.0875 43.1467C40.2924 43.3147 39.4957 43.4792 38.711 43.7044C38.227 43.843 37.7638 44.0838 37.292 44.2795C37.1779 44.3315 37.0638 44.3834 36.9498 44.4354C36.8305 44.4527 36.6957 44.4354 36.5937 44.4943C35.8039 44.9533 35.0175 45.421 34.2362 45.9008C34.1377 45.9615 34.0772 46.1035 33.9995 46.2074C33.7817 46.3703 33.5362 46.5019 33.3479 46.6994C32.7671 47.3126 32.2054 47.9483 31.642 48.5806C31.4691 48.7746 31.502 48.9616 31.6938 49.1106C32.055 49.3947 32.4197 49.6753 32.7827 49.9576C33.0419 50.1672 33.2839 50.4115 33.5639 50.5812C34.2069 50.9727 34.8671 51.3278 35.5204 51.6968C35.6898 51.7713 35.8592 51.8457 36.0286 51.9202C36.5937 52.1662 37.1503 52.4434 37.7275 52.6478C38.1856 52.8106 38.6712 52.8868 39.1448 53.0011C39.3505 53.041 39.5544 53.0825 39.7601 53.1224C39.8655 53.1553 39.971 53.2142 40.0781 53.2176C40.6813 53.2384 41.2862 53.28 41.8894 53.2506C42.4788 53.2211 43.0682 53.1172 43.6576 53.0444C43.8356 53.0271 44.0119 53.0115 44.1899 52.9942C45.0783 52.8158 45.9736 52.672 46.8516 52.4434C47.3096 52.3238 47.7382 52.0536 48.1807 51.8527C48.3743 51.7539 48.5678 51.6552 48.7597 51.5547C48.8046 51.5478 48.853 51.5547 48.891 51.5322C49.9108 50.9537 50.8164 50.1863 51.7014 49.3843C51.7325 49.3548 51.7428 49.296 51.7619 49.2526C52.0574 48.9824 52.353 48.7122 52.652 48.442C52.849 48.2636 52.8386 48.0851 52.6641 47.9102H52.671Z" fill="#1A1B1C"/>
</g>
<g filter="url(#filter4_i_1778_1374)">
<path fill-rule="evenodd" clip-rule="evenodd" d="M41.4443 45.5319C41.4443 45.8835 41.1626 46.3495 40.791 46.4742C40.0859 46.7028 39.3202 46.7028 38.6133 46.4742C38.2417 46.3495 37.96 45.8835 37.96 45.5319V43.2991C37.96 42.9457 38.2642 42.6512 38.6392 42.6443H40.7668C41.1402 42.6495 41.4461 42.9457 41.4461 43.2991V45.5319H41.4443Z" fill="white"/>
<path fill-rule="evenodd" clip-rule="evenodd" d="M45.2363 45.5319C45.2363 45.8835 44.9546 46.3495 44.583 46.4742C43.8778 46.7028 43.1122 46.7028 42.4053 46.4742C42.0337 46.3495 41.752 45.8835 41.752 45.5319V43.2991C41.752 42.9457 42.0561 42.6512 42.4312 42.6443H44.5588C44.9321 42.6495 45.2381 42.9457 45.2381 43.2991V45.5319H45.2363Z" fill="white"/>
<path fill-rule="evenodd" clip-rule="evenodd" d="M48.8964 45.1958C48.8394 45.5474 48.5265 46.0134 48.205 46.1381C47.588 46.3668 46.9831 46.3668 46.3661 46.1381C46.0446 46.0134 45.7318 45.5474 45.6747 45.1958C45.5641 44.4527 45.4535 43.7078 45.3446 42.963C45.2876 42.6096 45.6004 42.3152 46.0411 42.3082H48.53C48.9707 42.3134 49.2835 42.6096 49.2265 42.963C49.1159 43.7078 49.0053 44.451 48.8964 45.1958Z" fill="white"/>
<path fill-rule="evenodd" clip-rule="evenodd" d="M37.5233 45.1958C37.4663 45.5474 37.1535 46.0134 36.832 46.1381C36.215 46.3668 35.61 46.3668 34.993 46.1381C34.6715 46.0134 34.3587 45.5474 34.3017 45.1958C34.1911 44.4527 34.0804 43.7078 33.9716 42.963C33.9145 42.6096 34.2274 42.3152 34.6681 42.3082H37.1569C37.5977 42.3134 37.9105 42.6096 37.8535 42.963C37.7428 43.7078 37.6322 44.451 37.5233 45.1958Z" fill="white"/>
<path fill-rule="evenodd" clip-rule="evenodd" d="M41.9324 51.2377C41.9324 50.8861 42.2141 50.4201 42.5857 50.2954C43.2909 50.0667 44.0566 50.0667 44.7635 50.2954C45.1351 50.4201 45.4168 50.8861 45.4168 51.2377V53.4705C45.4168 53.8239 45.1126 54.1183 44.7375 54.1253H42.6099C42.2366 54.1201 41.9307 53.8239 41.9307 53.4705V51.2377H41.9324Z" fill="white"/>
<path fill-rule="evenodd" clip-rule="evenodd" d="M38.1404 51.2377C38.1404 50.8861 38.4221 50.4201 38.7937 50.2954C39.5006 50.0667 40.2646 50.0667 40.9715 50.2954C41.3431 50.4201 41.6248 50.8861 41.6248 51.2377V53.4705C41.6248 53.8239 41.3206 54.1183 40.9455 54.1253H38.8179C38.4446 54.1201 38.1387 53.8239 38.1387 53.4705V51.2377H38.1404Z" fill="white"/>
<path fill-rule="evenodd" clip-rule="evenodd" d="M34.457 50.5205C34.5036 50.1689 34.8113 49.7029 35.1414 49.5782C35.774 49.3496 36.4066 49.3496 37.0409 49.5782C37.371 49.7029 37.6786 50.1689 37.7253 50.5205C37.8152 51.2637 37.9068 52.0085 37.9966 52.7533C38.0433 53.1067 37.7322 53.4012 37.3036 53.4081H34.8787C34.45 53.4029 34.1372 53.1067 34.1856 52.7533C34.2755 52.0102 34.3671 51.2654 34.4587 50.5205H34.457Z" fill="white"/>
<path fill-rule="evenodd" clip-rule="evenodd" d="M45.832 50.5205C45.8786 50.1689 46.1863 49.7029 46.5164 49.5782C47.149 49.3496 47.7816 49.3496 48.4159 49.5782C48.746 49.7029 49.0536 50.1689 49.1003 50.5205C49.1902 51.2637 49.2818 52.0085 49.3716 52.7533C49.4183 53.1067 49.1072 53.4012 48.6786 53.4081H46.2537C45.825 53.4029 45.5122 53.1067 45.5606 52.7533C45.6522 52.0102 45.7421 51.2654 45.832 50.5205Z" fill="white"/>
</g>
<g filter="url(#filter5_i_1778_1374)">
<path fill-rule="evenodd" clip-rule="evenodd" d="M53.6733 47.5515C53.5973 47.4112 53.5316 47.2623 53.44 47.1341C52.5724 45.9008 51.722 44.6501 50.8215 43.448C50.0991 42.4814 49.2401 41.6742 48.267 41.0229C47.4166 40.4513 46.5058 40.0217 45.4964 40.0425C44.4127 40.065 43.3688 40.408 42.4269 41.0454C42.3353 41.1078 42.2333 41.1736 42.1192 41.1719C42.0103 41.1701 41.9083 41.1043 41.8202 41.0454C40.8782 40.408 39.8343 40.065 38.7506 40.0425C37.743 40.0217 36.8321 40.4513 35.9801 41.0229C35.007 41.6742 34.148 42.4814 33.4255 43.448C32.5268 44.6518 31.6747 45.9008 30.8071 47.1341C30.7172 47.2623 30.6498 47.4112 30.5737 47.5515C30.3577 47.9517 30.3369 48.3536 30.5236 48.7987C31.0231 49.9835 31.7404 50.9882 32.57 51.9028C33.569 53.0045 34.8065 54.0352 36.0336 54.8701C37.679 55.9925 39.5993 56.6127 41.5851 56.6958C43.9409 56.7945 46.2517 56.2039 48.21 54.8701C49.4371 54.0352 50.6746 53.0045 51.6736 51.9028C52.5032 50.9865 53.2188 49.9835 53.72 48.7987C53.9084 48.3536 53.8859 47.9534 53.6699 47.5515H53.6733ZM51.1983 48.4176C50.6038 49.554 49.4112 50.3005 48.3171 50.8878C47.0969 51.5425 45.811 52.1176 44.4508 52.3982C43.6851 52.5559 42.9056 52.6321 42.1261 52.6321C41.3466 52.6321 40.5671 52.5576 39.8015 52.3982C38.4395 52.1176 37.1553 51.5408 35.9351 50.8878C34.8411 50.3005 33.6485 49.554 33.0539 48.4176C32.9485 48.215 32.8828 48.1128 32.9986 47.9811C33.7436 47.1358 34.6095 46.3373 35.4909 45.6357C37.3818 44.1322 39.7427 43.2193 42.1261 43.1552C44.5095 43.2176 46.8705 44.1322 48.7613 45.6357C49.6428 46.3355 50.5087 47.1341 51.2536 47.9811C51.3694 48.1128 51.3055 48.215 51.2 48.4176H51.1983Z" fill="#F06085"/>
</g>
<path fill-rule="evenodd" clip-rule="evenodd" d="M40.558 40.8325C39.6973 40.4098 38.7778 40.3734 37.8444 40.5207C37.6267 40.5553 37.5091 40.8255 37.561 41.0196C37.6249 41.2499 37.841 41.3365 38.0588 41.3036C38.7518 41.1945 39.5089 41.2188 40.1484 41.5323C40.3471 41.6293 40.5839 41.5877 40.7014 41.3868C40.8069 41.2066 40.755 40.9295 40.5562 40.8325H40.558Z" fill="#F6A3AC"/>
<path fill-rule="evenodd" clip-rule="evenodd" d="M36.8202 40.9675C36.2982 40.9675 36.2982 41.7782 36.8202 41.7782C37.3422 41.7782 37.3422 40.9675 36.8202 40.9675Z" fill="#F6A3AC"/>
<path fill-rule="evenodd" clip-rule="evenodd" d="M39.316 54.7246C38.9496 54.5895 38.585 54.4492 38.2255 54.295C37.866 54.1408 37.465 53.9486 37.1677 53.7823C36.466 53.3908 35.8282 52.9214 35.3253 52.3411C35.1801 52.1748 34.9277 52.1454 34.7549 52.2874C34.5872 52.426 34.5579 52.691 34.7013 52.859C35.8299 54.1634 37.4408 54.903 39.0274 55.485C39.2348 55.5613 39.4699 55.4573 39.5494 55.2495C39.6272 55.0451 39.5217 54.8026 39.3143 54.7263L39.316 54.7246Z" fill="white"/>
<g filter="url(#filter6_i_1778_1374)">
<circle cx="42" cy="42" r="40.5" stroke="#00A8A3" stroke-width="3"/>
</g>
<defs>
<filter id="filter0_i_1778_1374" x="7" y="23" width="71" height="29.7" filterUnits="userSpaceOnUse" color-interpolation-filters="sRGB">
<feFlood flood-opacity="0" result="BackgroundImageFix"/>
<feBlend mode="normal" in="SourceGraphic" in2="BackgroundImageFix" result="shape"/>
<feColorMatrix in="SourceAlpha" type="matrix" values="0 0 0 0 0 0 0 0 0 0 0 0 0 0 0 0 0 0 127 0" result="hardAlpha"/>
<feOffset dy="4"/>
<feGaussianBlur stdDeviation="0.85"/>
<feComposite in2="hardAlpha" operator="arithmetic" k2="-1" k3="1"/>
<feColorMatrix type="matrix" values="0 0 0 0 0.862745 0 0 0 0 0.882353 0 0 0 0 0.65098 0 0 0 0.45 0"/>
<feBlend mode="normal" in2="shape" result="effect1_innerShadow_1778_1374"/>
</filter>
<filter id="filter1_i_1778_1374" x="24.4199" y="34.178" width="8.33008" height="10.4774" filterUnits="userSpaceOnUse" color-interpolation-filters="sRGB">
<feFlood flood-opacity="0" result="BackgroundImageFix"/>
<feBlend mode="normal" in="SourceGraphic" in2="BackgroundImageFix" result="shape"/>
<feColorMatrix in="SourceAlpha" type="matrix" values="0 0 0 0 0 0 0 0 0 0 0 0 0 0 0 0 0 0 127 0" result="hardAlpha"/>
<feOffset dx="-1" dy="-2"/>
<feGaussianBlur stdDeviation="1.85"/>
<feComposite in2="hardAlpha" operator="arithmetic" k2="-1" k3="1"/>
<feColorMatrix type="matrix" values="0 0 0 0 0.464743 0 0 0 0 0.422291 0 0 0 0 0.422291 0 0 0 0.52 0"/>
<feBlend mode="normal" in2="shape" result="effect1_innerShadow_1778_1374"/>
</filter>
<filter id="filter2_i_1778_1374" x="47.0029" y="32.9291" width="8.33008" height="10.4774" filterUnits="userSpaceOnUse" color-interpolation-filters="sRGB">
<feFlood flood-opacity="0" result="BackgroundImageFix"/>
<feBlend mode="normal" in="SourceGraphic" in2="BackgroundImageFix" result="shape"/>
<feColorMatrix in="SourceAlpha" type="matrix" values="0 0 0 0 0 0 0 0 0 0 0 0 0 0 0 0 0 0 127 0" result="hardAlpha"/>
<feOffset dx="-1" dy="-2"/>
<feGaussianBlur stdDeviation="1.85"/>
<feComposite in2="hardAlpha" operator="arithmetic" k2="-1" k3="1"/>
<feColorMatrix type="matrix" values="0 0 0 0 0.464743 0 0 0 0 0.422291 0 0 0 0 0.422291 0 0 0 0.52 0"/>
<feBlend mode="normal" in2="shape" result="effect1_innerShadow_1778_1374"/>
</filter>
<filter id="filter3_i_1778_1374" x="31.5293" y="43.1068" width="21.2686" height="14.1539" filterUnits="userSpaceOnUse" color-interpolation-filters="sRGB">
<feFlood flood-opacity="0" result="BackgroundImageFix"/>
<feBlend mode="normal" in="SourceGraphic" in2="BackgroundImageFix" result="shape"/>
<feColorMatrix in="SourceAlpha" type="matrix" values="0 0 0 0 0 0 0 0 0 0 0 0 0 0 0 0 0 0 127 0" result="hardAlpha"/>
<feOffset dy="4"/>
<feGaussianBlur stdDeviation="2"/>
<feComposite in2="hardAlpha" operator="arithmetic" k2="-1" k3="1"/>
<feColorMatrix type="matrix" values="0 0 0 0 1 0 0 0 0 0.879808 0 0 0 0 0.879808 0 0 0 0.25 0"/>
<feBlend mode="normal" in2="shape" result="effect1_innerShadow_1778_1374"/>
</filter>
<filter id="filter4_i_1778_1374" x="33.2648" y="42.3082" width="16.1111" height="11.817" filterUnits="userSpaceOnUse" color-interpolation-filters="sRGB">
<feFlood flood-opacity="0" result="BackgroundImageFix"/>
<feBlend mode="normal" in="SourceGraphic" in2="BackgroundImageFix" result="shape"/>
<feColorMatrix in="SourceAlpha" type="matrix" values="0 0 0 0 0 0 0 0 0 0 0 0 0 0 0 0 0 0 127 0" result="hardAlpha"/>
<feOffset dx="-3"/>
<feGaussianBlur stdDeviation="0.35"/>
<feComposite in2="hardAlpha" operator="arithmetic" k2="-1" k3="1"/>
<feColorMatrix type="matrix" values="0 0 0 0 0.766026 0 0 0 0 0.766026 0 0 0 0 0.766026 0 0 0 0.73 0"/>
<feBlend mode="normal" in2="shape" result="effect1_innerShadow_1778_1374"/>
</filter>
<filter id="filter5_i_1778_1374" x="30.3965" y="37.0417" width="27.4512" height="19.6647" filterUnits="userSpaceOnUse" color-interpolation-filters="sRGB">
<feFlood flood-opacity="0" result="BackgroundImageFix"/>
<feBlend mode="normal" in="SourceGraphic" in2="BackgroundImageFix" result="shape"/>
<feColorMatrix in="SourceAlpha" type="matrix" values="0 0 0 0 0 0 0 0 0 0 0 0 0 0 0 0 0 0 127 0" result="hardAlpha"/>
<feOffset dx="4" dy="-3"/>
<feGaussianBlur stdDeviation="2"/>
<feComposite in2="hardAlpha" operator="arithmetic" k2="-1" k3="1"/>
<feColorMatrix type="matrix" values="0 0 0 0 0.911859 0 0 0 0 0.299569 0 0 0 0 0.309774 0 0 0 0.63 0"/>
<feBlend mode="normal" in2="shape" result="effect1_innerShadow_1778_1374"/>
</filter>
<filter id="filter6_i_1778_1374" x="0" y="0" width="84" height="88" filterUnits="userSpaceOnUse" color-interpolation-filters="sRGB">
<feFlood flood-opacity="0" result="BackgroundImageFix"/>
<feBlend mode="normal" in="SourceGraphic" in2="BackgroundImageFix" result="shape"/>
<feColorMatrix in="SourceAlpha" type="matrix" values="0 0 0 0 0 0 0 0 0 0 0 0 0 0 0 0 0 0 127 0" result="hardAlpha"/>
<feOffset dy="6"/>
<feGaussianBlur stdDeviation="2"/>
<feComposite in2="hardAlpha" operator="arithmetic" k2="-1" k3="1"/>
<feColorMatrix type="matrix" values="0 0 0 0 0.862745 0 0 0 0 0.882353 0 0 0 0 0.65098 0 0 0 0.31 0"/>
<feBlend mode="normal" in2="shape" result="effect1_innerShadow_1778_1374"/>
</filter>
</defs>
</svg>
