<svg width="84" height="84" viewBox="0 0 84 84" fill="none" xmlns="http://www.w3.org/2000/svg">
<g filter="url(#filter0_i_1778_1404)">
<circle cx="42" cy="42" r="40.5" stroke="#00A8A3" stroke-width="3"/>
</g>
<g filter="url(#filter1_i_1778_1404)">
<path d="M67.6204 20.5041C66.6761 19.2504 64.3191 19.4268 62.2803 20.8627C62.2773 20.8598 62.2759 20.8553 62.2729 20.8509C60.7338 18.8058 57.8221 18.3924 55.7699 19.9276C55.178 20.3692 54.7408 20.9324 54.4286 21.5488C52.9444 20.9027 51.1733 21.0302 49.7859 22.0675C48.8996 22.7299 48.339 23.6531 48.0891 24.6475C46.0727 23.5361 43.5075 23.628 41.546 25.095C39.1473 26.8881 38.4782 30.1187 39.8255 32.6824C38.6298 32.6112 37.4045 32.9224 36.371 33.6945C34.4645 35.1201 33.8355 37.5845 34.6341 39.7007C34.0987 39.8518 33.5782 40.0889 33.1054 40.4431C31.5796 41.5842 30.964 43.4795 31.3789 45.2178C30.1371 46.5293 29.9542 48.5728 31.0428 50.0977C31.1394 50.234 31.2554 50.3452 31.3655 50.4652C31.3967 50.929 31.5558 51.3884 31.8562 51.7871C32.5284 52.6792 33.6823 52.9815 34.6846 52.6303C36.3308 52.2805 38.6997 49.6264 43.9774 45.2889C44.4592 44.8932 44.9395 44.4976 45.4198 44.1004C46.1128 43.5284 46.8058 42.9549 47.4973 42.3799C48.1486 41.839 48.7985 41.2967 49.4468 40.7528C50.0565 40.2416 50.6648 39.7303 51.2715 39.2176C51.841 38.7359 52.4091 38.2543 52.9772 37.7697C53.5081 37.3178 54.0374 36.8628 54.5654 36.4079C55.0591 35.9826 55.5513 35.5558 56.042 35.129C56.4986 34.7304 56.9551 34.3302 57.4101 33.9287C57.8325 33.5552 58.2533 33.1818 58.6727 32.8054C59.0608 32.4571 59.4489 32.1074 59.8341 31.7562C60.191 31.4316 60.5449 31.1056 60.8988 30.7781C61.2245 30.4758 61.5487 30.1735 61.8699 29.8682C62.1658 29.5882 62.4603 29.3066 62.7517 29.0236C63.0194 28.7642 63.2841 28.5049 63.5488 28.2411C63.7897 28.0025 64.0276 27.761 64.2641 27.5194C64.4782 27.3001 64.6909 27.0778 64.902 26.8541C65.0924 26.6525 65.2798 26.448 65.4656 26.242C65.6322 26.0568 65.7973 25.8701 65.9594 25.6819C66.1036 25.5129 66.2464 25.3425 66.3876 25.1691C66.5125 25.015 66.6345 24.8594 66.7534 24.7023C66.859 24.563 66.9616 24.4223 67.0598 24.2785C67.1475 24.1525 67.2323 24.0236 67.3126 23.8932C67.3825 23.7791 67.4509 23.6635 67.5148 23.545C67.5699 23.4427 67.6219 23.3375 67.6695 23.2308C67.7111 23.1374 67.7483 23.0441 67.781 22.9478C67.8093 22.8648 67.8346 22.7788 67.8539 22.6929C67.8613 22.6588 67.8658 22.6232 67.8717 22.5877C68.0888 21.7993 68.0338 21.0554 67.616 20.5026L67.6204 20.5041Z" fill="#00A8A3"/>
</g>
<path d="M39.6508 36.2982C38.9266 36.8406 38.4939 37.626 38.3809 38.4559C38.5667 38.1314 38.821 37.8379 39.1393 37.5993C40.3929 36.6613 42.1729 36.9147 43.1127 38.164C43.9812 39.3184 43.8295 40.9173 42.8138 41.8939C43.0711 41.7902 43.3209 41.6553 43.5529 41.4819C44.9894 40.4076 45.2794 38.3759 44.2013 36.9443C43.1231 35.5128 41.0844 35.2239 39.6478 36.2982H39.6508Z" fill="white"/>
<g filter="url(#filter2_i_1778_1404)">
<path d="M43.1139 38.1639C42.1726 36.9147 40.394 36.6612 39.1404 37.5993C38.8207 37.8379 38.5679 38.1313 38.382 38.4558C38.272 39.2694 38.4683 40.1259 39.0021 40.8358C39.9063 42.0346 41.4826 42.4288 42.815 41.8938C43.8307 40.9173 43.9838 39.3183 43.1139 38.1639Z" fill="#34332B"/>
</g>
<path d="M51.2202 26.6066C50.496 27.149 50.0632 27.9344 49.9502 28.7642C50.1361 28.4397 50.3904 28.1463 50.7086 27.9077C51.9622 26.9697 53.7422 27.2231 54.6821 28.4723C55.5505 29.6267 55.3988 31.2257 54.3832 32.2022C54.6404 32.0985 54.8903 31.9637 55.1223 31.7903C56.5588 30.7159 56.8487 28.6842 55.7706 27.2527C54.6925 25.8212 52.6537 25.5322 51.2172 26.6066H51.2202Z" fill="white"/>
<g filter="url(#filter3_i_1778_1404)">
<path d="M54.6832 28.4722C53.7419 27.223 51.9634 26.9696 50.7098 27.9076C50.39 28.1462 50.1372 28.4396 49.9513 28.7642C49.8413 29.5777 50.0376 30.4343 50.5715 31.1441C51.4756 32.343 53.0519 32.7372 54.3843 32.2022C55.4 31.2256 55.5532 29.6266 54.6832 28.4722Z" fill="#34332B"/>
</g>
<g filter="url(#filter4_i_1778_1404)">
<path d="M25.0815 59.3181L24.909 59.333L18.4372 65.7822L18.4208 65.9526L18.5859 66L30.8424 60.6652L30.9153 60.5881L32.9868 54.8354L32.954 54.6946L29.0326 50.7868L28.8839 50.7587L23.4234 53.1327L23.3535 53.2023L18 65.4147L18.0476 65.5792L18.2186 65.5629L24.6889 59.1151L24.7037 58.9432C24.2784 58.3401 24.3335 57.5043 24.8733 56.9664C25.48 56.3632 26.46 56.3632 27.0652 56.9664C27.669 57.571 27.669 58.5461 27.0652 59.1507C26.5254 59.6901 25.6867 59.7434 25.0815 59.3196V59.3181Z" fill="#616E7D"/>
</g>
<defs>
<filter id="filter0_i_1778_1404" x="0" y="0" width="84" height="88" filterUnits="userSpaceOnUse" color-interpolation-filters="sRGB">
<feFlood flood-opacity="0" result="BackgroundImageFix"/>
<feBlend mode="normal" in="SourceGraphic" in2="BackgroundImageFix" result="shape"/>
<feColorMatrix in="SourceAlpha" type="matrix" values="0 0 0 0 0 0 0 0 0 0 0 0 0 0 0 0 0 0 127 0" result="hardAlpha"/>
<feOffset dy="6"/>
<feGaussianBlur stdDeviation="2"/>
<feComposite in2="hardAlpha" operator="arithmetic" k2="-1" k3="1"/>
<feColorMatrix type="matrix" values="0 0 0 0 0.862745 0 0 0 0 0.882353 0 0 0 0 0.65098 0 0 0 0.31 0"/>
<feBlend mode="normal" in2="shape" result="effect1_innerShadow_1778_1404"/>
</filter>
<filter id="filter1_i_1778_1404" x="30.3262" y="19.0001" width="37.6699" height="35.4729" filterUnits="userSpaceOnUse" color-interpolation-filters="sRGB">
<feFlood flood-opacity="0" result="BackgroundImageFix"/>
<feBlend mode="normal" in="SourceGraphic" in2="BackgroundImageFix" result="shape"/>
<feColorMatrix in="SourceAlpha" type="matrix" values="0 0 0 0 0 0 0 0 0 0 0 0 0 0 0 0 0 0 127 0" result="hardAlpha"/>
<feOffset dy="4"/>
<feGaussianBlur stdDeviation="0.85"/>
<feComposite in2="hardAlpha" operator="arithmetic" k2="-1" k3="1"/>
<feColorMatrix type="matrix" values="0 0 0 0 0.862745 0 0 0 0 0.882353 0 0 0 0 0.65098 0 0 0 0.45 0"/>
<feBlend mode="normal" in2="shape" result="effect1_innerShadow_1778_1404"/>
</filter>
<filter id="filter2_i_1778_1404" x="37.3525" y="35.0328" width="6.3291" height="7.09509" filterUnits="userSpaceOnUse" color-interpolation-filters="sRGB">
<feFlood flood-opacity="0" result="BackgroundImageFix"/>
<feBlend mode="normal" in="SourceGraphic" in2="BackgroundImageFix" result="shape"/>
<feColorMatrix in="SourceAlpha" type="matrix" values="0 0 0 0 0 0 0 0 0 0 0 0 0 0 0 0 0 0 127 0" result="hardAlpha"/>
<feOffset dx="-1" dy="-2"/>
<feGaussianBlur stdDeviation="1.85"/>
<feComposite in2="hardAlpha" operator="arithmetic" k2="-1" k3="1"/>
<feColorMatrix type="matrix" values="0 0 0 0 0.464743 0 0 0 0 0.422291 0 0 0 0 0.422291 0 0 0 0.52 0"/>
<feBlend mode="normal" in2="shape" result="effect1_innerShadow_1778_1404"/>
</filter>
<filter id="filter3_i_1778_1404" x="48.9219" y="25.3412" width="6.3291" height="7.09509" filterUnits="userSpaceOnUse" color-interpolation-filters="sRGB">
<feFlood flood-opacity="0" result="BackgroundImageFix"/>
<feBlend mode="normal" in="SourceGraphic" in2="BackgroundImageFix" result="shape"/>
<feColorMatrix in="SourceAlpha" type="matrix" values="0 0 0 0 0 0 0 0 0 0 0 0 0 0 0 0 0 0 127 0" result="hardAlpha"/>
<feOffset dx="-1" dy="-2"/>
<feGaussianBlur stdDeviation="1.85"/>
<feComposite in2="hardAlpha" operator="arithmetic" k2="-1" k3="1"/>
<feColorMatrix type="matrix" values="0 0 0 0 0.464743 0 0 0 0 0.422291 0 0 0 0 0.422291 0 0 0 0.52 0"/>
<feBlend mode="normal" in2="shape" result="effect1_innerShadow_1778_1404"/>
</filter>
<filter id="filter4_i_1778_1404" x="18" y="50.7587" width="15.9863" height="19.2413" filterUnits="userSpaceOnUse" color-interpolation-filters="sRGB">
<feFlood flood-opacity="0" result="BackgroundImageFix"/>
<feBlend mode="normal" in="SourceGraphic" in2="BackgroundImageFix" result="shape"/>
<feColorMatrix in="SourceAlpha" type="matrix" values="0 0 0 0 0 0 0 0 0 0 0 0 0 0 0 0 0 0 127 0" result="hardAlpha"/>
<feOffset dx="1" dy="4"/>
<feGaussianBlur stdDeviation="2"/>
<feComposite in2="hardAlpha" operator="arithmetic" k2="-1" k3="1"/>
<feColorMatrix type="matrix" values="0 0 0 0 0.793314 0 0 0 0 0.804487 0 0 0 0 0.720686 0 0 0 0.51 0"/>
<feBlend mode="normal" in2="shape" result="effect1_innerShadow_1778_1404"/>
</filter>
</defs>
</svg>
