<svg width="84" height="84" viewBox="0 0 84 84" fill="none" xmlns="http://www.w3.org/2000/svg">
<g filter="url(#filter0_i_1778_1405)">
<circle cx="42" cy="42" r="40.5" stroke="#00A8A3" stroke-width="3"/>
</g>
<g filter="url(#filter1_i_1778_1405)">
<path d="M63.7359 16.726C62.6697 15.2859 60.0055 15.4894 57.7014 17.1373C57.6986 17.133 57.6958 17.1288 57.693 17.1245C55.9527 14.7772 52.6633 14.3023 50.3452 16.0646C49.6767 16.572 49.1827 17.2178 48.8296 17.9258C47.1535 17.1839 45.1508 17.3309 43.5822 18.5222C42.5801 19.284 41.9465 20.3439 41.6646 21.4858C39.387 20.2096 36.4884 20.3142 34.2708 22.0002C31.5605 24.0593 30.8041 27.769 32.3253 30.7128C30.9744 30.6308 29.59 30.9884 28.4219 31.8759C26.2685 33.5124 25.5567 36.3431 26.4596 38.7725C25.854 38.9449 25.2664 39.2191 24.7333 39.6247C23.0097 40.9347 22.3133 43.1111 22.7823 45.1066C21.3797 46.6131 21.1718 48.9591 22.4027 50.7101C22.5115 50.8655 22.6427 50.9956 22.7669 51.1326C22.8032 51.664 22.9818 52.1926 23.321 52.6505C23.6852 53.1423 24.1751 53.4758 24.711 53.6468C22.2729 57.7635 20.0623 62.0259 18.0749 66.3942C18.0749 66.397 18.0707 66.3998 18.0693 66.3998C17.9647 66.6415 17.9591 66.8648 18.1894 66.9665C18.4196 67.0669 18.6904 66.9552 18.7951 66.7178C18.7951 66.7136 18.7965 66.7121 18.7992 66.7079C20.7321 62.2774 22.9274 57.9557 25.3585 53.774C25.7465 53.8022 26.1415 53.7528 26.5169 53.6185C27.3598 53.4362 28.3716 52.7098 29.7798 51.5071C29.8775 51.582 29.9835 51.6485 30.0924 51.705C31.3163 52.3325 32.9589 51.9438 33.7809 50.833C33.9428 50.614 34.0894 50.361 34.3364 50.2522C34.6322 50.1222 34.97 50.2409 35.2784 50.3342C36.7521 50.7765 38.6795 50.3554 39.2126 48.8969C39.3507 48.521 39.3968 48.0815 39.6885 47.8087C40.1644 47.3621 40.9166 47.6448 41.5474 47.7974C43.6101 48.2991 45.7523 47.0328 47.0446 45.3299C48.3453 43.6156 49.0264 41.4294 48.9287 39.2699C50.2936 39.26 51.7115 38.952 52.7624 38.0715C53.8133 37.1911 54.3896 35.6408 53.8621 34.3674C56.5221 34.6713 59.2616 33.4375 60.9671 31.3488C62.6739 29.26 63.3633 26.4024 62.9893 23.7187C62.9251 23.2523 62.7967 22.4468 62.445 21.9507C62.5483 21.8193 62.6515 21.6865 62.752 21.5522C62.8706 21.3925 62.9865 21.23 63.0995 21.0646C63.1986 20.9191 63.2935 20.7721 63.3856 20.6223C63.4652 20.4909 63.5419 20.358 63.6131 20.2224C63.6759 20.1036 63.7345 19.9835 63.7889 19.862C63.835 19.756 63.8783 19.6472 63.9159 19.5369C63.948 19.4408 63.976 19.3433 63.9983 19.2444C64.0067 19.2048 64.0108 19.1638 64.0178 19.1243C64.2635 18.2198 64.2006 17.3648 63.7289 16.7288L63.7359 16.726Z" fill="#00A8A3"/>
</g>
<path d="M33.5886 34.4296C32.9062 34.9482 32.4986 35.7001 32.3926 36.4943C32.5684 36.1834 32.8071 35.9036 33.1071 35.6746C34.2878 34.7772 35.9625 35.0189 36.8487 36.2145C37.6665 37.3182 37.5242 38.8488 36.5668 39.7829C36.8096 39.684 37.0441 39.5554 37.2632 39.3886C38.6155 38.3612 38.8891 36.4166 37.8745 35.0472C36.8599 33.6777 34.9395 33.4007 33.5872 34.4282L33.5886 34.4296Z" fill="white"/>
<g filter="url(#filter2_i_1778_1405)">
<path d="M36.8485 36.2145C35.9623 35.0189 34.2876 34.7772 33.1069 35.6746C32.8069 35.9035 32.5682 36.1834 32.3924 36.4943C32.2877 37.273 32.4733 38.0926 32.9772 38.771C33.8271 39.9185 35.312 40.2959 36.568 39.7843C37.524 38.8501 37.6677 37.3196 36.8499 36.2159L36.8485 36.2145Z" fill="#44413B"/>
</g>
<path d="M44.4822 25.1588C43.7997 25.6775 43.3922 26.4293 43.2861 27.2236C43.462 26.9127 43.7006 26.6328 44.0007 26.4039C45.1813 25.5065 46.8561 25.7481 47.7423 26.9437C48.5601 28.0475 48.4177 29.578 47.4603 30.5122C47.7032 30.4132 47.9376 30.2846 48.1567 30.1179C49.5091 29.0904 49.7826 27.1458 48.768 25.7764C47.7534 24.407 45.8331 24.13 44.4808 25.1574L44.4822 25.1588Z" fill="white"/>
<g filter="url(#filter3_i_1778_1405)">
<path d="M47.7421 26.9437C46.8559 25.7481 45.1812 25.5064 44.0005 26.4039C43.7004 26.6328 43.4618 26.9126 43.286 27.2235C43.1813 28.0022 43.3669 28.8219 43.8707 29.5003C44.7206 30.6478 46.2055 31.0251 47.4616 30.5135C48.4175 29.5794 48.5613 28.0489 47.7435 26.9451L47.7421 26.9437Z" fill="#44413B"/>
</g>
<g filter="url(#filter4_i_1778_1405)">
<path d="M66.0033 52.8907C66.0033 47.8582 62.6943 44.6925 58.28 43.1479C57.0924 42.3084 55.2446 40.5419 56.6598 38.3542H56.8831C57.5404 38.3542 58.0693 37.8157 58.0693 37.1515C58.0693 36.4873 57.5404 35.9489 56.8831 35.9489H45.5816C44.9242 35.9489 44.3939 36.4887 44.3939 37.1515C44.3939 37.8143 44.9242 38.3542 45.5816 38.3542H45.8035C47.22 40.5419 45.3736 42.3084 44.1846 43.1479C39.7703 44.6925 36.46 47.8582 36.46 52.8907C36.46 57.5191 39.2567 61.6005 43.1351 64.0553C42.6438 64.3181 42.2963 64.8255 42.2963 65.4289C42.2963 66.2967 42.9871 66.9991 43.844 66.9991H58.6206C59.4761 66.9991 60.1697 66.2967 60.1697 65.4289C60.1697 64.8241 59.8222 64.3167 59.3309 64.0553C63.2093 61.6005 66.0047 57.5191 66.0047 52.8907H66.0033Z" fill="black"/>
</g>
<g filter="url(#filter5_i_1778_1405)">
<path d="M51.2323 35.9489H45.5816C44.9242 35.9489 44.3939 36.4887 44.3939 37.1515C44.3939 37.8143 44.9242 38.3542 45.5816 38.3542H45.8035C47.22 40.5419 45.3736 42.3084 44.1846 43.1479C39.7703 44.6925 36.46 47.8582 36.46 52.8907C36.46 57.5191 39.2567 61.6005 43.1351 64.0553C42.6438 64.3181 42.2963 64.8255 42.2963 65.4289C42.2963 66.2967 42.9871 66.9991 43.844 66.9991H51.2323V35.9489Z" fill="#20282D"/>
</g>
<path d="M57.7222 53.6849C57.7222 56.7502 54.8165 59.2375 51.2327 59.2375C47.6488 59.2375 44.7432 56.7502 44.7432 53.6849C44.7432 50.6196 47.6474 48.1323 51.2327 48.1323C54.8179 48.1323 57.7222 50.6196 57.7222 53.6849Z" fill="#D8EFEF"/>
<g filter="url(#filter6_d_1778_1405)">
<path d="M44.7432 53.6849C44.7432 56.7502 47.6474 59.2375 51.2327 59.2375V48.1323C47.6474 48.1323 44.7432 50.6196 44.7432 53.6849Z" fill="#D8EFEF"/>
</g>
<defs>
<filter id="filter0_i_1778_1405" x="0" y="0" width="84" height="88" filterUnits="userSpaceOnUse" color-interpolation-filters="sRGB">
<feFlood flood-opacity="0" result="BackgroundImageFix"/>
<feBlend mode="normal" in="SourceGraphic" in2="BackgroundImageFix" result="shape"/>
<feColorMatrix in="SourceAlpha" type="matrix" values="0 0 0 0 0 0 0 0 0 0 0 0 0 0 0 0 0 0 127 0" result="hardAlpha"/>
<feOffset dy="6"/>
<feGaussianBlur stdDeviation="2"/>
<feComposite in2="hardAlpha" operator="arithmetic" k2="-1" k3="1"/>
<feColorMatrix type="matrix" values="0 0 0 0 0.862745 0 0 0 0 0.882353 0 0 0 0 0.65098 0 0 0 0.31 0"/>
<feBlend mode="normal" in2="shape" result="effect1_innerShadow_1778_1405"/>
</filter>
<filter id="filter1_i_1778_1405" x="18" y="15" width="46.1592" height="53.7034" filterUnits="userSpaceOnUse" color-interpolation-filters="sRGB">
<feFlood flood-opacity="0" result="BackgroundImageFix"/>
<feBlend mode="normal" in="SourceGraphic" in2="BackgroundImageFix" result="shape"/>
<feColorMatrix in="SourceAlpha" type="matrix" values="0 0 0 0 0 0 0 0 0 0 0 0 0 0 0 0 0 0 127 0" result="hardAlpha"/>
<feOffset dy="4"/>
<feGaussianBlur stdDeviation="0.85"/>
<feComposite in2="hardAlpha" operator="arithmetic" k2="-1" k3="1"/>
<feColorMatrix type="matrix" values="0 0 0 0 0.862745 0 0 0 0 0.882353 0 0 0 0 0.65098 0 0 0 0.45 0"/>
<feBlend mode="normal" in2="shape" result="effect1_innerShadow_1778_1405"/>
</filter>
<filter id="filter2_i_1778_1405" x="31.3643" y="33.1324" width="6.01953" height="6.87561" filterUnits="userSpaceOnUse" color-interpolation-filters="sRGB">
<feFlood flood-opacity="0" result="BackgroundImageFix"/>
<feBlend mode="normal" in="SourceGraphic" in2="BackgroundImageFix" result="shape"/>
<feColorMatrix in="SourceAlpha" type="matrix" values="0 0 0 0 0 0 0 0 0 0 0 0 0 0 0 0 0 0 127 0" result="hardAlpha"/>
<feOffset dx="-1" dy="-2"/>
<feGaussianBlur stdDeviation="1.85"/>
<feComposite in2="hardAlpha" operator="arithmetic" k2="-1" k3="1"/>
<feColorMatrix type="matrix" values="0 0 0 0 0.464743 0 0 0 0 0.422291 0 0 0 0 0.422291 0 0 0 0.52 0"/>
<feBlend mode="normal" in2="shape" result="effect1_innerShadow_1778_1405"/>
</filter>
<filter id="filter3_i_1778_1405" x="42.2578" y="23.8617" width="6.01953" height="6.87561" filterUnits="userSpaceOnUse" color-interpolation-filters="sRGB">
<feFlood flood-opacity="0" result="BackgroundImageFix"/>
<feBlend mode="normal" in="SourceGraphic" in2="BackgroundImageFix" result="shape"/>
<feColorMatrix in="SourceAlpha" type="matrix" values="0 0 0 0 0 0 0 0 0 0 0 0 0 0 0 0 0 0 127 0" result="hardAlpha"/>
<feOffset dx="-1" dy="-2"/>
<feGaussianBlur stdDeviation="1.85"/>
<feComposite in2="hardAlpha" operator="arithmetic" k2="-1" k3="1"/>
<feColorMatrix type="matrix" values="0 0 0 0 0.464743 0 0 0 0 0.422291 0 0 0 0 0.422291 0 0 0 0.52 0"/>
<feBlend mode="normal" in2="shape" result="effect1_innerShadow_1778_1405"/>
</filter>
<filter id="filter4_i_1778_1405" x="36.46" y="35.9489" width="29.5449" height="35.0502" filterUnits="userSpaceOnUse" color-interpolation-filters="sRGB">
<feFlood flood-opacity="0" result="BackgroundImageFix"/>
<feBlend mode="normal" in="SourceGraphic" in2="BackgroundImageFix" result="shape"/>
<feColorMatrix in="SourceAlpha" type="matrix" values="0 0 0 0 0 0 0 0 0 0 0 0 0 0 0 0 0 0 127 0" result="hardAlpha"/>
<feOffset dy="4"/>
<feGaussianBlur stdDeviation="2"/>
<feComposite in2="hardAlpha" operator="arithmetic" k2="-1" k3="1"/>
<feColorMatrix type="matrix" values="0 0 0 0 0.99359 0 0 0 0 0.926713 0 0 0 0 0.926713 0 0 0 0.25 0"/>
<feBlend mode="normal" in2="shape" result="effect1_innerShadow_1778_1405"/>
</filter>
<filter id="filter5_i_1778_1405" x="36.46" y="35.9489" width="14.7725" height="35.0502" filterUnits="userSpaceOnUse" color-interpolation-filters="sRGB">
<feFlood flood-opacity="0" result="BackgroundImageFix"/>
<feBlend mode="normal" in="SourceGraphic" in2="BackgroundImageFix" result="shape"/>
<feColorMatrix in="SourceAlpha" type="matrix" values="0 0 0 0 0 0 0 0 0 0 0 0 0 0 0 0 0 0 127 0" result="hardAlpha"/>
<feOffset dy="4"/>
<feGaussianBlur stdDeviation="2"/>
<feComposite in2="hardAlpha" operator="arithmetic" k2="-1" k3="1"/>
<feColorMatrix type="matrix" values="0 0 0 0 0.798077 0 0 0 0 0.691922 0 0 0 0 0.691922 0 0 0 0.25 0"/>
<feBlend mode="normal" in2="shape" result="effect1_innerShadow_1778_1405"/>
</filter>
<filter id="filter6_d_1778_1405" x="40.7432" y="48.1323" width="14.4893" height="19.1052" filterUnits="userSpaceOnUse" color-interpolation-filters="sRGB">
<feFlood flood-opacity="0" result="BackgroundImageFix"/>
<feColorMatrix in="SourceAlpha" type="matrix" values="0 0 0 0 0 0 0 0 0 0 0 0 0 0 0 0 0 0 127 0" result="hardAlpha"/>
<feOffset dy="4"/>
<feGaussianBlur stdDeviation="2"/>
<feComposite in2="hardAlpha" operator="out"/>
<feColorMatrix type="matrix" values="0 0 0 0 0 0 0 0 0 0 0 0 0 0 0 0 0 0 0.25 0"/>
<feBlend mode="normal" in2="BackgroundImageFix" result="effect1_dropShadow_1778_1405"/>
<feBlend mode="normal" in="SourceGraphic" in2="effect1_dropShadow_1778_1405" result="shape"/>
</filter>
</defs>
</svg>
