<svg width="84" height="84" viewBox="0 0 84 84" fill="none" xmlns="http://www.w3.org/2000/svg">
<mask id="mask0_1778_1361" style="mask-type:alpha" maskUnits="userSpaceOnUse" x="0" y="0" width="84" height="84">
<circle cx="42" cy="42" r="42" fill="#00A8A3"/>
</mask>
<g mask="url(#mask0_1778_1361)">
<g filter="url(#filter0_i_1778_1361)">
<path d="M24.3073 48.7107C25.9784 48.2084 27.474 46.8714 28.4645 45.1943C29.455 43.5172 29.962 41.5234 30.0556 39.5629C30.1355 37.8486 29.8489 36.1539 28.8915 34.8971C28.2734 34.0859 27.4545 33.4741 26.5439 33.1535C26.1207 33.005 25.6762 32.919 25.2238 32.9033C24.4965 32.8799 23.7614 33.0343 23.0575 33.3314C23.0516 33.3334 23.0458 33.3373 23.0399 33.3392C22.9951 33.3588 22.9502 33.3783 22.9054 33.3979C22.8878 33.4057 22.8703 33.4135 22.8527 33.4233C22.8196 33.4389 22.7884 33.4526 22.7552 33.4682C22.726 33.4819 22.6967 33.4975 22.6675 33.5112C22.6461 33.521 22.6246 33.5327 22.6051 33.5425C22.5661 33.5621 22.5271 33.5836 22.4881 33.6051C22.4784 33.6109 22.4667 33.6168 22.4569 33.6226C22.4082 33.65 22.3594 33.6774 22.3107 33.7047C22.3107 33.7047 22.3107 33.7047 22.3087 33.7047C21.5834 34.1289 20.9126 34.7036 20.3452 35.3858C19.7095 36.15 19.2006 37.0375 18.8165 37.9874L19.6354 38.2005L19.7524 38.2318L23.7477 39.2755C23.9642 39.3244 24.1631 39.4534 24.3073 39.6352C24.4965 39.8737 24.555 40.1923 24.5433 40.5128C24.5296 40.8803 24.4341 41.2537 24.245 41.5664C24.0558 41.8792 23.7672 42.1274 23.4416 42.2173C23.2895 42.2603 23.1296 42.2662 22.9775 42.2349L18.9822 41.1931L18.8652 41.1618L18.0521 40.9487C17.9273 41.9378 17.9234 42.9327 18.0443 43.8846C18.1906 45.0301 18.5591 46.1364 19.1714 47.0102C19.1753 47.016 19.1792 47.0219 19.1831 47.0278C19.1987 47.0493 19.2143 47.0727 19.2299 47.0942C19.2494 47.1216 19.2689 47.147 19.2903 47.1743C19.2903 47.1743 19.2903 47.1743 19.2903 47.1763C19.3878 47.3034 19.4911 47.4265 19.6003 47.5418C20.7995 48.8163 22.6305 49.2092 24.3015 48.7068L24.3073 48.7107Z" fill="black"/>
</g>
<g filter="url(#filter1_i_1778_1361)">
<path d="M32.1709 42.7433C33.842 36.3144 29.4275 33.8417 28.3141 33.5993L26.5377 33.1556C27.4483 33.4762 28.2673 34.088 28.8854 34.8992C29.8428 36.1561 30.1314 37.8507 30.0495 39.565C29.9578 41.5236 29.4509 43.5193 28.4584 45.1964C27.4678 46.8735 25.9723 48.2105 24.3012 48.7128C22.6302 49.2152 20.7992 48.8223 19.6001 47.5479C19.4909 47.4325 19.3875 47.3094 19.29 47.1823C19.3953 47.3211 19.5084 47.454 19.6274 47.5791C20.2201 48.2007 20.965 48.6092 21.7664 48.8027L24.2681 49.44V49.4341C25.0461 49.5866 30.496 49.1702 32.167 42.7413L32.1709 42.7433Z" fill="#565F87"/>
</g>
<g filter="url(#filter2_i_1778_1361)">
<path d="M50.2158 47.1019C50.2119 47.1137 50.208 47.1254 50.2041 47.1391C50.1963 47.2114 50.1904 47.2818 50.1787 47.3541L50.2138 47.1019H50.2158Z" fill="#00A8A3"/>
<path d="M37.3463 64.5964C38.216 63.5956 38.7698 62.3642 39.5146 61.2676C40.7645 59.4322 42.5252 58.017 44.0383 56.3927C44.7442 55.6342 45.3974 54.8289 46.0506 54.0236C47.7509 51.9262 49.4941 49.7448 50.2077 47.1393C50.5041 44.6627 49.0203 42.2585 47.1971 40.5325C46.4932 39.8679 45.7152 39.2522 44.8066 38.9238C42.8236 38.2064 40.6338 38.959 38.7093 39.819C37.0246 40.5716 35.3185 41.4649 34.2207 42.9504C33.1229 44.436 32.8226 46.6662 34.0004 48.0892C33.238 47.8156 32.6159 48.748 32.3917 49.5279C32.0154 50.8434 31.8457 52.2957 32.3995 53.5467C32.0173 53.0209 31.2042 52.8782 30.668 53.2417C30.4399 53.3962 30.2039 53.6385 29.9407 53.5603C29.8062 53.5193 29.7126 53.402 29.6287 53.2906C28.7669 52.11 28.0864 50.5267 26.6552 50.2355C26.4173 50.1866 26.1677 50.1788 25.9435 50.0849C25.7446 50.0009 25.5827 49.8523 25.4228 49.7077C24.6351 48.9942 23.8493 48.2788 23.0615 47.5654C24.2003 48.0638 25.5788 47.1608 25.9649 45.9782C26.3315 44.8523 26.0215 43.6287 25.6744 42.495C25.5944 42.237 25.5145 41.9555 25.6081 41.7014C25.6841 41.4922 25.8655 41.3437 26.0234 41.1873C26.9243 40.2999 27.2401 38.8632 26.7917 37.6767C26.3432 36.4902 25.1596 35.6243 23.898 35.5559C23.7362 35.5481 23.5685 35.55 23.4203 35.4836C23.2799 35.421 23.1707 35.3057 23.0557 35.2021C22.2933 34.518 21.0824 34.3968 20.2011 34.9187C19.3197 35.4406 18.8381 36.5606 19.0682 37.5594C17.3192 38.0618 16.2584 40.2256 16.9311 41.9223C17.054 42.2311 17.2256 42.5536 17.1437 42.8761C17.0891 43.0872 16.9331 43.2534 16.8044 43.4293C16.1453 44.3363 16.2838 45.7319 17.1086 46.4903C17.3523 46.7151 17.6682 46.9262 17.7052 47.2565C17.7228 47.4188 17.6682 47.581 17.6389 47.7413C17.5804 48.0775 17.6448 48.4196 17.713 48.7538C17.7325 48.8476 17.752 48.9415 17.7715 49.0353C17.2626 50.0185 16.898 51.1033 16.9974 52.2019C17.1066 53.3942 17.8788 54.5846 19.035 54.8817C19.1637 54.9149 19.3061 54.9462 19.4016 55.0303C19.4094 55.0537 19.4172 55.0772 19.425 55.1006C18.8537 56.0232 18.8986 57.4658 19.6395 58.7617C20.4897 60.2512 21.9716 61.0448 23.1551 60.734C23.2 60.8395 23.2468 60.9451 23.2936 61.0467C23.356 61.1835 23.4223 61.3204 23.4905 61.4552C23.4418 62.2606 24.0014 63.0718 24.7579 63.4236C25.9805 64.9463 27.6009 66.1367 29.4649 66.6879C32.2182 67.503 35.4589 66.7641 37.3444 64.5944L37.3463 64.5964Z" fill="#00A8A3"/>
</g>
<g filter="url(#filter3_i_1778_1361)">
<path d="M11.4429 44.692C13.114 44.1897 14.6095 42.8527 15.6001 41.1756C16.5906 39.4985 17.0976 37.5047 17.1912 35.5442C17.2711 33.83 16.9845 32.1353 16.0271 30.8784C15.409 30.0672 14.59 29.4554 13.6794 29.1349C13.2563 28.9863 12.8117 28.9003 12.3594 28.8847C11.6321 28.8612 10.897 29.0156 10.193 29.3127C10.1872 29.3147 10.1813 29.3186 10.1755 29.3205C10.1307 29.3401 10.0858 29.3596 10.041 29.3792C10.0234 29.387 10.0059 29.3948 9.98831 29.4046C9.95516 29.4202 9.92396 29.4339 9.89082 29.4496C9.86157 29.4632 9.83232 29.4789 9.80307 29.4926C9.78162 29.5023 9.76017 29.5141 9.74068 29.5238C9.70168 29.5434 9.66268 29.5649 9.62368 29.5864C9.61393 29.5922 9.60223 29.5981 9.59248 29.604C9.54374 29.6313 9.49499 29.6587 9.44624 29.6861C9.44624 29.6861 9.44624 29.6861 9.44429 29.6861C8.71894 30.1102 8.04818 30.6849 7.48077 31.3671C6.53897 32.5008 5.87212 33.9003 5.48799 35.382C5.48799 35.3898 5.48409 35.3976 5.48214 35.4035C5.47239 35.4406 5.46264 35.4797 5.45289 35.5168C5.44704 35.5403 5.44119 35.5618 5.43534 35.5853C5.42949 35.6068 5.42559 35.6302 5.41974 35.6517C5.41 35.6908 5.4022 35.7299 5.39245 35.767C5.39245 35.7729 5.3905 35.7788 5.38855 35.7866C5.3554 35.9351 5.3242 36.0856 5.2969 36.2362C5.07267 37.448 5.03367 38.6893 5.18186 39.864C5.3281 41.0095 5.69663 42.1158 6.30889 42.9895C6.31279 42.9954 6.31669 43.0013 6.32059 43.0071C6.33619 43.0286 6.35179 43.0521 6.36934 43.0736C6.38883 43.1009 6.40833 43.1264 6.42978 43.1537C6.42978 43.1537 6.42978 43.1537 6.42978 43.1557C6.52728 43.2827 6.63062 43.4059 6.73981 43.5212C7.94094 44.7956 9.76992 45.1885 11.441 44.6862L11.4429 44.692Z" fill="black"/>
</g>
<g filter="url(#filter4_i_1778_1361)">
<path d="M19.5563 37.5281C20.422 31.9847 16.4911 29.8072 15.4498 29.5785L13.6735 29.1348C14.5841 29.4553 15.403 30.0671 16.0211 30.8783C16.9785 32.1352 17.2671 33.8299 17.1852 35.5441C17.0936 37.5046 16.5866 39.4984 15.5941 41.1755C14.6036 42.8526 13.108 44.1896 11.437 44.692C9.76592 45.1943 7.93499 44.8014 6.73581 43.527C6.62662 43.4117 6.52328 43.2885 6.42578 43.1615C6.53107 43.3002 6.64417 43.4332 6.76311 43.5583C7.35587 44.1798 8.10073 44.5884 8.90213 44.7819L11.4038 45.4191V45.4132C12.1038 45.552 16.5944 45.2275 18.7003 40.464C18.9323 39.9382 19.1351 39.3596 19.3028 38.7205C19.41 38.3061 19.4939 37.9073 19.5524 37.5261L19.5563 37.5281Z" fill="#565F87"/>
</g>
<g filter="url(#filter5_i_1778_1361)">
<path d="M46.1153 39.7034C46.1153 39.7034 28.6776 69.1485 37.8732 84.2483C37.8732 84.2483 81.3067 84.2992 83.2098 84.2483C85.1129 84.1975 87.1193 58.2278 76.1298 36.6776L46.1173 39.7054L46.1153 39.7034Z" fill="#010101"/>
</g>
<g filter="url(#filter6_i_1778_1361)">
<path d="M81.2204 27.5241C81.2204 27.5241 81.2204 27.5143 81.2204 27.5104C81.2204 24.8305 79.0521 22.6569 76.3788 22.6569C75.6086 22.6569 74.8891 22.8544 74.2437 23.1749C73.413 21.7031 71.8551 20.6984 70.0456 20.6984C68.8893 20.6984 67.8422 21.1206 67.0096 21.7988C66.0269 19.6018 63.8294 18.0693 61.2731 18.0693C58.1474 18.0693 55.5599 20.3583 55.0725 23.3548C54.1209 22.5455 52.9042 22.0373 51.5569 22.0373C49.0727 22.0373 47 23.7105 46.337 25.9857C45.795 25.7766 45.2119 25.6495 44.5977 25.6495C42.6089 25.6495 40.9047 26.8536 40.1598 28.5718C38.3016 28.8943 36.8645 30.4912 36.8158 32.4537C36.8119 32.6277 36.8372 32.7958 36.8548 32.9639C36.5896 33.3724 36.4336 33.8572 36.4336 34.381C36.4336 35.5499 37.2057 36.5292 38.2626 36.8615C38.596 37.0159 39.023 37.1058 39.5495 37.1488C39.6255 37.4147 39.7191 37.661 39.8264 37.8779C40.4913 39.1954 42.0161 39.7388 43.225 38.6813C43.3752 40.0593 44.6192 40.9878 45.9588 41.0719C46.729 41.1188 47.4933 40.8744 48.1719 40.5304C48.4117 40.4092 50.2134 39.3889 50.149 39.127C50.4571 40.3623 51.551 41.2556 52.7053 41.7873C56.1079 43.3471 60.5224 42.2251 62.7687 39.2267C63.0143 40.3897 64.3013 41.1285 65.4829 41.0308C66.6645 40.9331 67.7057 40.1668 68.4447 39.2364C69.3768 40.1453 70.6676 40.7669 71.9584 40.6106C73.2492 40.4542 74.4504 39.3576 74.4562 38.0558C75.1894 39.0625 76.5621 39.555 77.7671 39.2403C78.9721 38.9276 79.9315 37.8291 80.0836 36.5898C80.2318 37.0374 80.8089 37.2368 81.2496 37.0746C81.6903 36.9123 81.9867 36.4764 82.1056 36.021C82.3123 35.2333 82.0432 34.4494 81.5323 33.8122C81.6688 33.7809 81.8053 33.7497 81.9418 33.7145C82.1426 33.6637 82.3415 33.6089 82.5404 33.5523C82.7159 33.5014 82.8895 33.4467 83.063 33.3881C83.2151 33.3372 83.3652 33.2825 83.5154 33.2239C83.646 33.173 83.7747 33.1183 83.9014 33.0577C84.0126 33.0069 84.1218 32.9522 84.229 32.8916C84.3226 32.8388 84.4123 32.7841 84.5 32.7254C84.5761 32.6727 84.6502 32.6179 84.7204 32.5573C84.7477 32.5339 84.773 32.5065 84.8003 32.4811C85.4769 31.9553 85.8981 31.2985 85.8981 30.5714C85.8981 28.9275 83.8215 27.5964 81.2204 27.5221V27.5241Z" fill="#00A8A3"/>
</g>
<path d="M52.6591 26.2749C51.7134 26.2749 50.8613 26.6639 50.2451 27.2874C50.6039 27.133 50.9997 27.045 51.415 27.045C53.049 27.045 54.375 28.3723 54.375 30.0122C54.375 31.5251 53.244 32.7722 51.7836 32.954C52.0624 33.0283 52.3549 33.0732 52.6591 33.0732C54.5309 33.0732 56.0499 31.5505 56.0499 29.6741C56.0499 27.7976 54.5329 26.2749 52.6591 26.2749Z" fill="white"/>
<g filter="url(#filter7_i_1778_1361)">
<path d="M54.3743 30.0142C54.3743 28.3762 53.0503 27.047 51.4144 27.047C50.9991 27.047 50.6032 27.133 50.2445 27.2894C49.64 27.9031 49.2676 28.7456 49.2676 29.6741C49.2676 31.2476 50.3342 32.567 51.7829 32.954C53.2434 32.7722 54.3743 31.5251 54.3743 30.0122V30.0142Z" fill="#4E4A45"/>
</g>
<path d="M68.3895 25.4053C67.4438 25.4053 66.5917 25.7943 65.9756 26.4178C66.3344 26.2634 66.7302 26.1754 67.1455 26.1754C68.7795 26.1754 70.1054 27.5026 70.1054 29.1426C70.1054 30.6555 68.9745 31.9026 67.514 32.0844C67.7929 32.1586 68.0854 32.2036 68.3895 32.2036C70.2614 32.2036 71.7804 30.6809 71.7804 28.8044C71.7804 26.928 70.2634 25.4053 68.3895 25.4053Z" fill="white"/>
<g filter="url(#filter8_i_1778_1361)">
<path d="M70.1067 29.1425C70.1067 27.5045 68.7828 26.1753 67.1468 26.1753C66.7315 26.1753 66.3357 26.2613 65.9769 26.4177C65.3724 27.0314 65 27.8739 65 28.8024C65 30.3759 66.0666 31.6953 67.5153 32.0823C68.9758 31.9005 70.1067 30.6534 70.1067 29.1405V29.1425Z" fill="#534D49"/>
</g>
<path d="M64.2591 64.264L67.1488 61.3085C67.2502 61.1912 67.3263 61.0505 67.3653 60.8961C67.4472 60.5677 67.377 60.1943 67.2015 59.8738C67.026 59.5532 66.7491 59.2854 66.4391 59.09C66.1661 58.9199 65.8619 58.8124 65.5616 58.8593C65.3335 58.8945 65.1229 59.002 64.9728 59.1662L62.083 62.1216L61.9992 62.2076L61.4084 62.8136L59.7568 64.5044C60.0571 64.7468 60.3613 65.0165 60.6674 65.3156C61.1374 65.7769 61.5371 66.2421 61.8764 66.7053L63.5922 64.95L64.1792 64.35L64.263 64.264H64.2591Z" fill="#394973"/>
<g filter="url(#filter9_i_1778_1361)">
<path d="M73.4123 63.3683C73.8081 61.6638 73.3947 59.6994 72.4354 58.0047C71.476 56.308 70.0019 54.8753 68.3523 53.8217C66.9094 52.8991 65.2988 52.3068 63.735 52.514C62.725 52.6489 61.7891 53.0574 61.0578 53.6907C60.7186 53.9859 60.4241 54.3279 60.1863 54.715C59.8041 55.3366 59.572 56.0539 59.4804 56.8104C59.4804 56.8162 59.4804 56.8221 59.4784 56.8299C59.4726 56.8788 59.4667 56.9277 59.4628 56.9765C59.4628 56.9961 59.4589 57.0156 59.457 57.0352C59.4531 57.0703 59.4511 57.1075 59.4492 57.1427C59.4472 57.1759 59.4453 57.2072 59.4433 57.2404C59.4433 57.2639 59.4414 57.2873 59.4395 57.3108C59.4395 57.3557 59.4355 57.3987 59.4355 57.4437C59.4355 57.4554 59.4355 57.4671 59.4355 57.4789C59.4355 57.5356 59.4355 57.5903 59.4355 57.647C59.4355 57.647 59.4355 57.647 59.4355 57.6489C59.4414 58.4914 59.6071 59.3593 59.9152 60.1919C60.2603 61.1243 60.7751 62.0098 61.4069 62.8151L61.9977 62.2092L62.0815 62.1232L64.9713 59.1677C65.1214 59.0035 65.332 58.896 65.5601 58.8608C65.8604 58.8139 66.1646 58.9214 66.4376 59.0915C66.7476 59.2869 67.0245 59.5547 67.2 59.8753C67.3755 60.1959 67.4476 60.5692 67.3638 60.8976C67.3248 61.052 67.2507 61.1927 67.1473 61.31L64.2576 64.2674L64.1738 64.3534L63.5868 64.9535C64.3804 65.5536 65.2403 66.052 66.1236 66.4195C67.1883 66.8632 68.3289 67.0919 69.3897 66.9922C69.3975 66.9922 69.4033 66.9922 69.4111 66.9903C69.4384 66.9883 69.4657 66.9844 69.493 66.9825C69.5262 66.9785 69.5593 66.9746 69.5925 66.9707C69.5925 66.9707 69.5925 66.9707 69.5944 66.9707C69.7543 66.9492 69.9103 66.9199 70.0663 66.8828C71.7666 66.4723 73.0145 65.0767 73.4123 63.3722V63.3683Z" fill="black"/>
<path d="M72.1563 53.5579C67.424 48.9078 63.0894 51.5173 62.325 52.3656L61.0596 53.6889C61.7908 53.0556 62.7267 52.647 63.7367 52.5122C65.3006 52.303 66.9112 52.8972 68.3541 53.8198C70.0037 54.8734 71.4778 56.3062 72.4371 58.0028C73.3965 59.6995 73.8098 61.6639 73.414 63.3664C73.0182 65.0709 71.7683 66.4665 70.068 66.877C69.914 66.9142 69.756 66.9435 69.5961 66.965C69.7697 66.9415 69.9413 66.9102 70.109 66.8692C70.9435 66.662 71.6669 66.2183 72.2324 65.6163L74.0282 63.7574L74.0224 63.7535C74.541 63.1553 76.8906 58.2081 72.1563 53.5579Z" fill="#565F87"/>
<path d="M93.6434 59.9243C93.2105 58.6714 92.4188 57.5768 91.8397 56.3825C90.8726 54.3828 90.5236 52.1487 89.8684 50.0239C89.5623 49.0329 89.1898 48.0654 88.8194 47.0978C87.8503 44.5763 86.8285 41.9746 84.9274 40.061C82.9307 38.5715 80.1112 38.6673 77.7129 39.3964C76.7867 39.6779 75.8683 40.0493 75.1312 40.6767C73.5245 42.045 73.0878 44.3222 72.8752 46.4234C72.69 48.2628 72.6139 50.192 73.3529 51.8848C74.0919 53.5775 75.8741 54.9477 77.6914 54.6311C77.0753 55.1569 77.5725 56.1635 78.1379 56.7441C79.0895 57.7253 80.2633 58.5951 81.6204 58.7359C80.977 58.8062 80.4485 59.4435 80.4953 60.0905C80.5148 60.3661 80.6084 60.6905 80.4095 60.8821C80.3082 60.9779 80.16 61.0033 80.0196 61.0189C78.5689 61.1831 76.8588 60.9857 75.8975 62.0862C75.7376 62.2699 75.607 62.483 75.412 62.6296C75.2404 62.7605 75.0318 62.8289 74.827 62.8954C73.817 63.2257 72.8089 63.5541 71.7989 63.8845C72.7953 63.1417 72.7017 61.4939 71.8691 60.5694C71.0774 59.6898 69.8627 59.3516 68.7103 59.0897C68.447 59.031 68.1643 58.9607 67.9908 58.7535C67.8484 58.5834 67.8094 58.3528 67.7529 58.1378C67.4331 56.9122 66.3451 55.9251 65.0972 55.7237C63.8492 55.5224 62.5097 56.1225 61.8233 57.1858C61.7356 57.3227 61.6537 57.4693 61.523 57.567C61.4002 57.6589 61.2442 57.696 61.098 57.7429C60.1269 58.0654 59.4211 59.0584 59.4328 60.0846C59.4445 61.1108 60.1757 62.0862 61.1545 62.3833C60.7197 64.1542 62.0651 66.1519 63.8668 66.4099C64.1944 66.4568 64.5609 66.4666 64.7969 66.6992C64.9529 66.8517 65.0172 67.0706 65.1069 67.27C65.5651 68.2942 66.8403 68.8669 67.9089 68.5268C68.2248 68.4271 68.564 68.2571 68.8682 68.388C69.0184 68.4525 69.1295 68.5815 69.2562 68.6871C69.5175 68.9041 69.8471 69.0194 70.1688 69.1249C70.2604 69.1543 70.3501 69.1836 70.4418 69.2129C71.0384 70.1453 71.7969 71.0014 72.7972 71.4608C73.8833 71.9592 75.297 71.8791 76.1296 71.021C76.2212 70.9252 76.3207 70.8177 76.4396 70.7747C76.463 70.7786 76.4883 70.7844 76.5117 70.7903C77.0265 71.7461 78.2978 72.4244 79.7875 72.4244C81.4995 72.4244 82.9249 71.5311 83.2427 70.3466C83.3558 70.3583 83.4709 70.372 83.5839 70.3818C83.7341 70.3955 83.8842 70.4052 84.0344 70.4131C84.7071 70.8548 85.6879 70.7727 86.3684 70.2899C88.2949 69.983 90.1297 69.166 91.5336 67.8192C93.6083 65.8294 94.5813 62.6433 93.6395 59.9243H93.6434Z" fill="#00A8A3"/>
<g filter="url(#filter10_d_1778_1361)">
<path d="M63.5363 72.5593C63.9321 70.8548 63.5188 68.8904 62.5594 67.1957C61.6001 65.4991 60.126 64.0663 58.4764 63.0127C57.0335 62.0901 55.4229 61.4979 53.8591 61.7051C52.849 61.8399 51.9131 62.2485 51.1819 62.8818C50.8426 63.1769 50.5482 63.519 50.3103 63.906C49.9281 64.5276 49.6961 65.245 49.6044 66.0014C49.6044 66.0073 49.6044 66.0131 49.6025 66.021C49.5966 66.0698 49.5908 66.1187 49.5869 66.1676C49.5869 66.1871 49.583 66.2067 49.581 66.2262C49.5771 66.2614 49.5752 66.2985 49.5732 66.3337C49.5713 66.3669 49.5693 66.3982 49.5674 66.4314C49.5674 66.4549 49.5654 66.4783 49.5635 66.5018C49.5635 66.5468 49.5596 66.5898 49.5596 66.6347C49.5596 66.6465 49.5596 66.6582 49.5596 66.6699C49.5596 66.7266 49.5596 66.7813 49.5596 66.838C49.5596 66.838 49.5596 66.838 49.5596 66.84C49.5654 67.6824 49.7312 68.5503 50.0392 69.383C50.5521 70.7649 51.4334 72.0413 52.5234 73.1125C52.5292 73.1184 52.5351 73.1242 52.539 73.1281C52.5663 73.1555 52.5955 73.1829 52.6228 73.2102C52.6404 73.2259 52.656 73.2434 52.6735 73.2591C52.6911 73.2747 52.7067 73.2904 52.7242 73.306C52.7535 73.3334 52.7827 73.3607 52.812 73.3861C52.8159 73.3901 52.8217 73.394 52.8256 73.3998C52.9387 73.5034 53.0538 73.6051 53.1688 73.7048C54.1067 74.5023 55.1616 75.1551 56.2516 75.6086C57.3162 76.0523 58.4569 76.281 59.5176 76.1813C59.5254 76.1813 59.5312 76.1813 59.539 76.1794C59.5663 76.1774 59.5936 76.1735 59.6209 76.1715C59.6541 76.1676 59.6872 76.1637 59.7204 76.1598C59.7204 76.1598 59.7223 76.1598 59.7243 76.1598C59.8842 76.1383 60.0402 76.109 60.1962 76.0719C61.8964 75.6614 63.1444 74.2657 63.5421 72.5613L63.5363 72.5593Z" fill="#040404"/>
</g>
<path d="M61.3698 61.9376C57.002 58.429 53.1627 60.7628 52.4471 61.5564L51.1816 62.8797C51.9128 62.2464 52.8488 61.8379 53.8588 61.703C55.4226 61.4939 57.0332 62.0881 58.4761 63.0107C60.1257 64.0643 61.5998 65.497 62.5592 67.1937C63.5185 68.8903 63.9319 70.8548 63.5361 72.5573C63.1402 74.2618 61.8904 75.6574 60.1901 76.0679C60.036 76.105 59.8781 76.1343 59.7182 76.1558C59.8918 76.1324 60.0633 76.1011 60.231 76.0601C61.0656 75.8529 61.787 75.4092 62.3544 74.8071L64.1503 72.9482L64.1444 72.9443C64.6105 72.4048 66.5623 68.3391 63.4873 64.1386C63.148 63.6753 62.7483 63.2101 62.2784 62.7488C61.9723 62.4497 61.67 62.18 61.3678 61.9376H61.3698Z" fill="#565F87"/>
</g>
</g>
<g filter="url(#filter11_i_1778_1361)">
<circle cx="42" cy="42" r="40.5" stroke="#00A8A3" stroke-width="3"/>
</g>
<defs>
<filter id="filter0_i_1778_1361" x="17.9561" y="32.901" width="12.1123" height="17.7176" filterUnits="userSpaceOnUse" color-interpolation-filters="sRGB">
<feFlood flood-opacity="0" result="BackgroundImageFix"/>
<feBlend mode="normal" in="SourceGraphic" in2="BackgroundImageFix" result="shape"/>
<feColorMatrix in="SourceAlpha" type="matrix" values="0 0 0 0 0 0 0 0 0 0 0 0 0 0 0 0 0 0 127 0" result="hardAlpha"/>
<feOffset dy="4"/>
<feGaussianBlur stdDeviation="0.85"/>
<feComposite in2="hardAlpha" operator="arithmetic" k2="-1" k3="1"/>
<feColorMatrix type="matrix" values="0 0 0 0 0.862745 0 0 0 0 0.882353 0 0 0 0 0.65098 0 0 0 0.45 0"/>
<feBlend mode="normal" in2="shape" result="effect1_innerShadow_1778_1361"/>
</filter>
<filter id="filter1_i_1778_1361" x="19.29" y="33.1556" width="13.2539" height="18.0019" filterUnits="userSpaceOnUse" color-interpolation-filters="sRGB">
<feFlood flood-opacity="0" result="BackgroundImageFix"/>
<feBlend mode="normal" in="SourceGraphic" in2="BackgroundImageFix" result="shape"/>
<feColorMatrix in="SourceAlpha" type="matrix" values="0 0 0 0 0 0 0 0 0 0 0 0 0 0 0 0 0 0 127 0" result="hardAlpha"/>
<feOffset dy="4"/>
<feGaussianBlur stdDeviation="0.85"/>
<feComposite in2="hardAlpha" operator="arithmetic" k2="-1" k3="1"/>
<feColorMatrix type="matrix" values="0 0 0 0 0.862745 0 0 0 0 0.882353 0 0 0 0 0.65098 0 0 0 0.45 0"/>
<feBlend mode="normal" in2="shape" result="effect1_innerShadow_1778_1361"/>
</filter>
<filter id="filter2_i_1778_1361" x="16.3877" y="34.5955" width="33.8584" height="34.1153" filterUnits="userSpaceOnUse" color-interpolation-filters="sRGB">
<feFlood flood-opacity="0" result="BackgroundImageFix"/>
<feBlend mode="normal" in="SourceGraphic" in2="BackgroundImageFix" result="shape"/>
<feColorMatrix in="SourceAlpha" type="matrix" values="0 0 0 0 0 0 0 0 0 0 0 0 0 0 0 0 0 0 127 0" result="hardAlpha"/>
<feOffset dy="4"/>
<feGaussianBlur stdDeviation="0.85"/>
<feComposite in2="hardAlpha" operator="arithmetic" k2="-1" k3="1"/>
<feColorMatrix type="matrix" values="0 0 0 0 0.862745 0 0 0 0 0.882353 0 0 0 0 0.65098 0 0 0 0.45 0"/>
<feBlend mode="normal" in2="shape" result="effect1_innerShadow_1778_1361"/>
</filter>
<filter id="filter3_i_1778_1361" x="5.09375" y="28.8823" width="12.1104" height="17.7156" filterUnits="userSpaceOnUse" color-interpolation-filters="sRGB">
<feFlood flood-opacity="0" result="BackgroundImageFix"/>
<feBlend mode="normal" in="SourceGraphic" in2="BackgroundImageFix" result="shape"/>
<feColorMatrix in="SourceAlpha" type="matrix" values="0 0 0 0 0 0 0 0 0 0 0 0 0 0 0 0 0 0 127 0" result="hardAlpha"/>
<feOffset dy="4"/>
<feGaussianBlur stdDeviation="0.85"/>
<feComposite in2="hardAlpha" operator="arithmetic" k2="-1" k3="1"/>
<feColorMatrix type="matrix" values="0 0 0 0 0.862745 0 0 0 0 0.882353 0 0 0 0 0.65098 0 0 0 0.45 0"/>
<feBlend mode="normal" in2="shape" result="effect1_innerShadow_1778_1361"/>
</filter>
<filter id="filter4_i_1778_1361" x="6.42578" y="29.1348" width="13.2539" height="18.0022" filterUnits="userSpaceOnUse" color-interpolation-filters="sRGB">
<feFlood flood-opacity="0" result="BackgroundImageFix"/>
<feBlend mode="normal" in="SourceGraphic" in2="BackgroundImageFix" result="shape"/>
<feColorMatrix in="SourceAlpha" type="matrix" values="0 0 0 0 0 0 0 0 0 0 0 0 0 0 0 0 0 0 127 0" result="hardAlpha"/>
<feOffset dy="4"/>
<feGaussianBlur stdDeviation="0.85"/>
<feComposite in2="hardAlpha" operator="arithmetic" k2="-1" k3="1"/>
<feColorMatrix type="matrix" values="0 0 0 0 0.862745 0 0 0 0 0.882353 0 0 0 0 0.65098 0 0 0 0.45 0"/>
<feBlend mode="normal" in2="shape" result="effect1_innerShadow_1778_1361"/>
</filter>
<filter id="filter5_i_1778_1361" x="35.1953" y="36.6776" width="49.5117" height="49.2933" filterUnits="userSpaceOnUse" color-interpolation-filters="sRGB">
<feFlood flood-opacity="0" result="BackgroundImageFix"/>
<feBlend mode="normal" in="SourceGraphic" in2="BackgroundImageFix" result="shape"/>
<feColorMatrix in="SourceAlpha" type="matrix" values="0 0 0 0 0 0 0 0 0 0 0 0 0 0 0 0 0 0 127 0" result="hardAlpha"/>
<feOffset dy="4"/>
<feGaussianBlur stdDeviation="0.85"/>
<feComposite in2="hardAlpha" operator="arithmetic" k2="-1" k3="1"/>
<feColorMatrix type="matrix" values="0 0 0 0 0.862745 0 0 0 0 0.882353 0 0 0 0 0.65098 0 0 0 0.45 0"/>
<feBlend mode="normal" in2="shape" result="effect1_innerShadow_1778_1361"/>
</filter>
<filter id="filter6_i_1778_1361" x="36.4336" y="18.0693" width="49.4648" height="26.1196" filterUnits="userSpaceOnUse" color-interpolation-filters="sRGB">
<feFlood flood-opacity="0" result="BackgroundImageFix"/>
<feBlend mode="normal" in="SourceGraphic" in2="BackgroundImageFix" result="shape"/>
<feColorMatrix in="SourceAlpha" type="matrix" values="0 0 0 0 0 0 0 0 0 0 0 0 0 0 0 0 0 0 127 0" result="hardAlpha"/>
<feOffset dy="4"/>
<feGaussianBlur stdDeviation="0.85"/>
<feComposite in2="hardAlpha" operator="arithmetic" k2="-1" k3="1"/>
<feColorMatrix type="matrix" values="0 0 0 0 0.862745 0 0 0 0 0.882353 0 0 0 0 0.65098 0 0 0 0.45 0"/>
<feBlend mode="normal" in2="shape" result="effect1_innerShadow_1778_1361"/>
</filter>
<filter id="filter7_i_1778_1361" x="48.2676" y="25.047" width="6.10645" height="7.90698" filterUnits="userSpaceOnUse" color-interpolation-filters="sRGB">
<feFlood flood-opacity="0" result="BackgroundImageFix"/>
<feBlend mode="normal" in="SourceGraphic" in2="BackgroundImageFix" result="shape"/>
<feColorMatrix in="SourceAlpha" type="matrix" values="0 0 0 0 0 0 0 0 0 0 0 0 0 0 0 0 0 0 127 0" result="hardAlpha"/>
<feOffset dx="-1" dy="-2"/>
<feGaussianBlur stdDeviation="1.85"/>
<feComposite in2="hardAlpha" operator="arithmetic" k2="-1" k3="1"/>
<feColorMatrix type="matrix" values="0 0 0 0 0.464743 0 0 0 0 0.422291 0 0 0 0 0.422291 0 0 0 0.52 0"/>
<feBlend mode="normal" in2="shape" result="effect1_innerShadow_1778_1361"/>
</filter>
<filter id="filter8_i_1778_1361" x="64" y="24.1753" width="6.10645" height="7.90698" filterUnits="userSpaceOnUse" color-interpolation-filters="sRGB">
<feFlood flood-opacity="0" result="BackgroundImageFix"/>
<feBlend mode="normal" in="SourceGraphic" in2="BackgroundImageFix" result="shape"/>
<feColorMatrix in="SourceAlpha" type="matrix" values="0 0 0 0 0 0 0 0 0 0 0 0 0 0 0 0 0 0 127 0" result="hardAlpha"/>
<feOffset dx="-1" dy="-2"/>
<feGaussianBlur stdDeviation="1.85"/>
<feComposite in2="hardAlpha" operator="arithmetic" k2="-1" k3="1"/>
<feColorMatrix type="matrix" values="0 0 0 0 0.464743 0 0 0 0 0.422291 0 0 0 0 0.422291 0 0 0 0.52 0"/>
<feBlend mode="normal" in2="shape" result="effect1_innerShadow_1778_1361"/>
</filter>
<filter id="filter9_i_1778_1361" x="49.5596" y="38.8828" width="44.4404" height="39.0217" filterUnits="userSpaceOnUse" color-interpolation-filters="sRGB">
<feFlood flood-opacity="0" result="BackgroundImageFix"/>
<feBlend mode="normal" in="SourceGraphic" in2="BackgroundImageFix" result="shape"/>
<feColorMatrix in="SourceAlpha" type="matrix" values="0 0 0 0 0 0 0 0 0 0 0 0 0 0 0 0 0 0 127 0" result="hardAlpha"/>
<feOffset dy="4"/>
<feGaussianBlur stdDeviation="0.85"/>
<feComposite in2="hardAlpha" operator="arithmetic" k2="-1" k3="1"/>
<feColorMatrix type="matrix" values="0 0 0 0 0.862745 0 0 0 0 0.882353 0 0 0 0 0.65098 0 0 0 0.45 0"/>
<feBlend mode="normal" in2="shape" result="effect1_innerShadow_1778_1361"/>
</filter>
<filter id="filter10_d_1778_1361" x="45.5596" y="61.6637" width="22.126" height="22.5408" filterUnits="userSpaceOnUse" color-interpolation-filters="sRGB">
<feFlood flood-opacity="0" result="BackgroundImageFix"/>
<feColorMatrix in="SourceAlpha" type="matrix" values="0 0 0 0 0 0 0 0 0 0 0 0 0 0 0 0 0 0 127 0" result="hardAlpha"/>
<feOffset dy="4"/>
<feGaussianBlur stdDeviation="2"/>
<feComposite in2="hardAlpha" operator="out"/>
<feColorMatrix type="matrix" values="0 0 0 0 0 0 0 0 0 0 0 0 0 0 0 0 0 0 0.25 0"/>
<feBlend mode="normal" in2="BackgroundImageFix" result="effect1_dropShadow_1778_1361"/>
<feBlend mode="normal" in="SourceGraphic" in2="effect1_dropShadow_1778_1361" result="shape"/>
</filter>
<filter id="filter11_i_1778_1361" x="0" y="0" width="84" height="88" filterUnits="userSpaceOnUse" color-interpolation-filters="sRGB">
<feFlood flood-opacity="0" result="BackgroundImageFix"/>
<feBlend mode="normal" in="SourceGraphic" in2="BackgroundImageFix" result="shape"/>
<feColorMatrix in="SourceAlpha" type="matrix" values="0 0 0 0 0 0 0 0 0 0 0 0 0 0 0 0 0 0 127 0" result="hardAlpha"/>
<feOffset dy="6"/>
<feGaussianBlur stdDeviation="2"/>
<feComposite in2="hardAlpha" operator="arithmetic" k2="-1" k3="1"/>
<feColorMatrix type="matrix" values="0 0 0 0 0.862745 0 0 0 0 0.882353 0 0 0 0 0.65098 0 0 0 0.31 0"/>
<feBlend mode="normal" in2="shape" result="effect1_innerShadow_1778_1361"/>
</filter>
</defs>
</svg>
