<svg width="84" height="84" viewBox="0 0 84 84" fill="none" xmlns="http://www.w3.org/2000/svg">
<g filter="url(#filter0_i_1778_1364)">
<circle cx="42" cy="42" r="40.5" stroke="#00A8A3" stroke-width="3"/>
</g>
<g filter="url(#filter1_i_1778_1364)">
<path d="M36.6683 15.4102C34.996 17.2525 39.1243 18.1475 39.1243 18.1475L40.8188 17.9949C40.8188 17.9949 38.5806 17.6976 39.2562 16.7963C40.0049 15.7996 42.0285 17.8868 42.0285 17.8868L42.7868 17.8184C42.7868 17.8184 38.5902 13.2944 36.6683 15.4118V15.4102Z" fill="#1B1A1A"/>
</g>
<g filter="url(#filter2_i_1778_1364)">
<path d="M48.3782 14.3547C50.3525 15.868 46.4516 17.4878 46.4516 17.4878L44.757 17.6405C44.757 17.6405 46.9062 16.9474 46.0796 16.1812C45.1655 15.3339 43.5473 17.7501 43.5473 17.7501L42.7891 17.8185C42.7891 17.8185 46.1082 12.6157 48.3782 14.3563V14.3547Z" fill="#1B1A1A"/>
</g>
<g filter="url(#filter3_i_1778_1364)">
<path d="M50.2715 19.3262L35.6934 20.6401L36.8382 33.3422L51.4163 32.0283L50.2715 19.3262Z" fill="#EB5757"/>
</g>
<path d="M43.9673 17.7104C44.0086 18.1619 43.6748 18.5609 43.2234 18.6022L42.5017 18.6674C42.0502 18.7087 41.6512 18.3749 41.6099 17.9234C41.5686 17.472 41.9024 17.073 42.3538 17.0316L43.0755 16.9665C43.527 16.9251 43.926 17.259 43.9673 17.7104Z" fill="#1B1A1A"/>
<g filter="url(#filter4_i_1778_1364)">
<path d="M50.5306 17.1215L35.0469 18.517L35.2984 21.3082L50.7822 19.9127L50.5306 17.1215Z" fill="#EB5757"/>
</g>
<g style="mix-blend-mode:multiply">
<path d="M50.3282 19.9516L35.75 21.2655L35.8235 22.0809L50.4016 20.767L50.3282 19.9516Z" fill="#9D9D9D"/>
</g>
<g filter="url(#filter5_i_1778_1364)">
<path d="M43.9658 17.712L41.6084 17.9244L42.9483 32.7907L45.3057 32.5783L43.9658 17.712Z" fill="#1B1A1A"/>
</g>
<g filter="url(#filter6_i_1778_1364)">
<path d="M32.1038 50.3247C29.6001 50.3247 27.098 50.2961 24.6103 50.2214C19.7778 50.0767 16.9403 48.4696 16.1805 45.4446C15.7767 43.8375 15.9961 41.5452 17.395 40.043C18.3615 39.005 19.6968 38.5758 21.1497 38.8317C22.1511 39.0098 22.8188 39.9651 22.6423 40.9666C22.4643 41.9681 21.5073 42.6325 20.5075 42.4592C20.2229 42.4084 20.1593 42.4799 20.091 42.553C19.7381 42.9314 19.5807 43.8629 19.7524 44.5464C20.0624 45.78 21.7331 46.4508 24.72 46.5398C31.4409 46.7401 38.324 46.6034 44.9813 46.4699C48.7805 46.3936 52.7085 46.3157 56.5697 46.3014H57.2214C58.6378 46.295 60.0509 46.2918 61.4641 46.2902H63.254C64.2698 46.2902 65.0948 47.1137 65.0964 48.131C65.0964 49.1484 64.273 49.9734 63.2556 49.975H61.4641C60.0541 49.9766 58.6441 49.9798 57.2325 49.9845H56.5824C52.7482 50.002 48.8361 50.0799 45.0528 50.1546C40.799 50.2389 36.4514 50.3263 32.1022 50.3263L32.1038 50.3247Z" fill="#00A8A3"/>
</g>
<g filter="url(#filter7_i_1778_1364)">
<path d="M26.702 64.9476C23.2493 64.9476 20.4404 62.1387 20.4404 58.6861C20.4404 55.2334 23.2493 52.4246 26.702 52.4246C30.1546 52.4246 32.9635 55.2334 32.9635 58.6861C32.9635 62.1387 30.1546 64.9476 26.702 64.9476ZM26.702 56.1077C25.2808 56.1077 24.1236 57.265 24.1236 58.6861C24.1236 60.1072 25.2808 61.2645 26.702 61.2645C28.1231 61.2645 29.2803 60.1072 29.2803 58.6861C29.2803 57.265 28.1231 56.1077 26.702 56.1077Z" fill="#00A8A3"/>
</g>
<g filter="url(#filter8_i_1778_1364)">
<path d="M56.6121 64.9476C53.1595 64.9476 50.3506 62.1387 50.3506 58.6861C50.3506 55.2334 53.1595 52.4246 56.6121 52.4246C60.0648 52.4246 62.8736 55.2334 62.8736 58.6861C62.8736 62.1387 60.0648 64.9476 56.6121 64.9476ZM56.6121 56.1077C55.191 56.1077 54.0337 57.265 54.0337 58.6861C54.0337 60.1072 55.191 61.2645 56.6121 61.2645C58.0332 61.2645 59.1905 60.1072 59.1905 58.6861C59.1905 57.265 58.0332 56.1077 56.6121 56.1077Z" fill="#00A8A3"/>
</g>
<g filter="url(#filter9_i_1778_1364)">
<path d="M66.6433 38.8811C66.6433 37.4711 64.8581 36.3313 62.6231 36.2661C62.6231 36.2614 62.6231 36.2582 62.6231 36.2534C62.6231 33.9548 60.7601 32.0918 58.4615 32.0918C57.7986 32.0918 57.1818 32.2603 56.6255 32.5369C55.9101 31.2747 54.5717 30.4131 53.017 30.4131C52.0235 30.4131 51.1238 30.7756 50.4084 31.3558C49.5628 29.4721 47.6759 28.1575 45.4774 28.1575C42.7894 28.1575 40.5671 30.1207 40.1474 32.6895C39.3288 31.9948 38.2828 31.5593 37.1256 31.5593C34.9907 31.5593 33.2087 32.9947 32.6396 34.9452C32.1739 34.7655 31.6731 34.6574 31.1438 34.6574C29.435 34.6574 27.9693 35.6891 27.3287 37.1627C25.7311 37.4393 24.496 38.8095 24.4531 40.4914C24.4499 40.6408 24.4722 40.7838 24.4865 40.9285C24.2591 41.2782 24.124 41.6947 24.124 42.143C24.124 43.146 24.7869 43.9838 25.6962 44.2699C27.0648 44.9026 30.1948 44.2699 36.3196 43.9885C36.8776 43.9631 37.4371 43.9361 37.9951 43.9106C38.801 43.8725 39.607 43.8327 40.4129 43.7914C41.1711 43.7517 41.9294 43.7119 42.6876 43.6706C43.3998 43.6309 44.1119 43.5911 44.8241 43.5482C45.4917 43.5085 46.1594 43.4671 46.827 43.4242C47.4517 43.3845 48.0765 43.3431 48.7012 43.2986C49.2846 43.2589 49.8664 43.216 50.4498 43.1731C50.9918 43.1317 51.5355 43.0904 52.0775 43.0459C52.5815 43.0046 53.0854 42.9616 53.5893 42.9171C54.0566 42.8758 54.5224 42.8329 54.9881 42.7868C55.4189 42.7454 55.8497 42.7009 56.2789 42.6564C56.6747 42.6151 57.0706 42.5706 57.4664 42.5245C57.8288 42.4816 58.1912 42.4386 58.5553 42.391C58.8859 42.348 59.2181 42.3035 59.5488 42.2574C59.8492 42.2145 60.1512 42.17 60.4517 42.1223C60.7235 42.0794 60.9969 42.0349 61.2672 41.9872C61.512 41.9443 61.7568 41.8982 62.0016 41.8505C62.2209 41.8076 62.4403 41.7615 62.6581 41.7122C62.8536 41.6693 63.0475 41.6232 63.2415 41.5739C63.4132 41.531 63.5848 41.4849 63.7549 41.434C63.9059 41.3895 64.0554 41.3434 64.2048 41.2941C64.3351 41.2496 64.4655 41.2035 64.5942 41.1526C64.7071 41.1081 64.8168 41.062 64.9265 41.0112C65.0219 40.9667 65.1156 40.9206 65.2078 40.8681C65.2873 40.8236 65.3652 40.7759 65.4415 40.725C65.5067 40.6805 65.5703 40.6328 65.6323 40.582C65.6561 40.5613 65.6784 40.5375 65.7006 40.5168C66.2808 40.0669 66.6433 39.5026 66.6433 38.8795V38.8811Z" fill="#00A8A3"/>
<path d="M38.0696 35.1963C37.2573 35.1963 36.5229 35.5285 35.9951 36.0658C36.3035 35.9323 36.6437 35.8576 37.0013 35.8576C38.4066 35.8576 39.5447 36.9957 39.5447 38.401C39.5447 39.6981 38.5719 40.7663 37.3177 40.9237C37.5577 40.9873 37.8089 41.0254 38.0696 41.0254C39.6799 41.0254 40.9834 39.7204 40.9834 38.1117C40.9834 36.503 39.6783 35.1979 38.0696 35.1979V35.1963Z" fill="white"/>
<g filter="url(#filter10_i_1778_1364)">
<path d="M39.5442 38.4009C39.5442 36.9957 38.4061 35.8575 37.0008 35.8575C36.6432 35.8575 36.303 35.9323 35.9946 36.0658C35.4764 36.592 35.1553 37.3136 35.1553 38.1116C35.1553 39.4596 36.0725 40.5914 37.3172 40.9237C38.573 40.7679 39.5442 39.6997 39.5442 38.4009Z" fill="#2A2929"/>
</g>
<path d="M51.592 34.4491C50.7797 34.4491 50.0453 34.7813 49.5176 35.3186C49.826 35.1851 50.1661 35.1104 50.5238 35.1104C51.929 35.1104 53.0672 36.2486 53.0672 37.6538C53.0672 38.9509 52.0944 40.0191 50.8401 40.1765C51.0802 40.2401 51.3313 40.2782 51.592 40.2782C53.2023 40.2782 54.5058 38.9732 54.5058 37.3645C54.5058 35.7558 53.2007 34.4507 51.592 34.4507V34.4491Z" fill="white"/>
<g filter="url(#filter11_i_1778_1364)">
<path d="M53.0677 37.6539C53.0677 36.2486 51.9295 35.1105 50.5243 35.1105C50.1666 35.1105 49.8264 35.1852 49.518 35.3187C48.9998 35.8449 48.6787 36.5666 48.6787 37.3646C48.6787 38.7126 49.5959 39.8444 50.8406 40.1766C52.0964 40.0208 53.0677 38.9526 53.0677 37.6539Z" fill="#2A2929"/>
</g>
</g>
<defs>
<filter id="filter0_i_1778_1364" x="0" y="0" width="84" height="88" filterUnits="userSpaceOnUse" color-interpolation-filters="sRGB">
<feFlood flood-opacity="0" result="BackgroundImageFix"/>
<feBlend mode="normal" in="SourceGraphic" in2="BackgroundImageFix" result="shape"/>
<feColorMatrix in="SourceAlpha" type="matrix" values="0 0 0 0 0 0 0 0 0 0 0 0 0 0 0 0 0 0 127 0" result="hardAlpha"/>
<feOffset dy="6"/>
<feGaussianBlur stdDeviation="2"/>
<feComposite in2="hardAlpha" operator="arithmetic" k2="-1" k3="1"/>
<feColorMatrix type="matrix" values="0 0 0 0 0.862745 0 0 0 0 0.882353 0 0 0 0 0.65098 0 0 0 0.31 0"/>
<feBlend mode="normal" in2="shape" result="effect1_innerShadow_1778_1364"/>
</filter>
<filter id="filter1_i_1778_1364" x="36.2695" y="14.8475" width="6.51758" height="3.29993" filterUnits="userSpaceOnUse" color-interpolation-filters="sRGB">
<feFlood flood-opacity="0" result="BackgroundImageFix"/>
<feBlend mode="normal" in="SourceGraphic" in2="BackgroundImageFix" result="shape"/>
<feColorMatrix in="SourceAlpha" type="matrix" values="0 0 0 0 0 0 0 0 0 0 0 0 0 0 0 0 0 0 127 0" result="hardAlpha"/>
<feOffset/>
<feGaussianBlur stdDeviation="0.55"/>
<feComposite in2="hardAlpha" operator="arithmetic" k2="-1" k3="1"/>
<feColorMatrix type="matrix" values="0 0 0 0 0.997691 0 0 0 0 1 0 0 0 0 0.972756 0 0 0 0.45 0"/>
<feBlend mode="normal" in2="shape" result="effect1_innerShadow_1778_1364"/>
</filter>
<filter id="filter2_i_1778_1364" x="42.7891" y="14" width="6.14648" height="3.81848" filterUnits="userSpaceOnUse" color-interpolation-filters="sRGB">
<feFlood flood-opacity="0" result="BackgroundImageFix"/>
<feBlend mode="normal" in="SourceGraphic" in2="BackgroundImageFix" result="shape"/>
<feColorMatrix in="SourceAlpha" type="matrix" values="0 0 0 0 0 0 0 0 0 0 0 0 0 0 0 0 0 0 127 0" result="hardAlpha"/>
<feOffset/>
<feGaussianBlur stdDeviation="0.55"/>
<feComposite in2="hardAlpha" operator="arithmetic" k2="-1" k3="1"/>
<feColorMatrix type="matrix" values="0 0 0 0 0.997691 0 0 0 0 1 0 0 0 0 0.972756 0 0 0 0.45 0"/>
<feBlend mode="normal" in2="shape" result="effect1_innerShadow_1778_1364"/>
</filter>
<filter id="filter3_i_1778_1364" x="35.6934" y="19.3263" width="16.7227" height="17.0159" filterUnits="userSpaceOnUse" color-interpolation-filters="sRGB">
<feFlood flood-opacity="0" result="BackgroundImageFix"/>
<feBlend mode="normal" in="SourceGraphic" in2="BackgroundImageFix" result="shape"/>
<feColorMatrix in="SourceAlpha" type="matrix" values="0 0 0 0 0 0 0 0 0 0 0 0 0 0 0 0 0 0 127 0" result="hardAlpha"/>
<feOffset dx="1" dy="3"/>
<feGaussianBlur stdDeviation="2.2"/>
<feComposite in2="hardAlpha" operator="arithmetic" k2="-1" k3="1"/>
<feColorMatrix type="matrix" values="0 0 0 0 0.836538 0 0 0 0 0.653434 0 0 0 0 0.636788 0 0 0 0.79 0"/>
<feBlend mode="normal" in2="shape" result="effect1_innerShadow_1778_1364"/>
</filter>
<filter id="filter4_i_1778_1364" x="35.0469" y="16.1215" width="15.7354" height="5.18665" filterUnits="userSpaceOnUse" color-interpolation-filters="sRGB">
<feFlood flood-opacity="0" result="BackgroundImageFix"/>
<feBlend mode="normal" in="SourceGraphic" in2="BackgroundImageFix" result="shape"/>
<feColorMatrix in="SourceAlpha" type="matrix" values="0 0 0 0 0 0 0 0 0 0 0 0 0 0 0 0 0 0 127 0" result="hardAlpha"/>
<feOffset dy="-1"/>
<feGaussianBlur stdDeviation="0.85"/>
<feComposite in2="hardAlpha" operator="arithmetic" k2="-1" k3="1"/>
<feColorMatrix type="matrix" values="0 0 0 0 0.772436 0 0 0 0 0.607901 0 0 0 0 0.592943 0 0 0 0.81 0"/>
<feBlend mode="normal" in2="shape" result="effect1_innerShadow_1778_1364"/>
</filter>
<filter id="filter5_i_1778_1364" x="41.6084" y="17.7119" width="3.69727" height="15.0789" filterUnits="userSpaceOnUse" color-interpolation-filters="sRGB">
<feFlood flood-opacity="0" result="BackgroundImageFix"/>
<feBlend mode="normal" in="SourceGraphic" in2="BackgroundImageFix" result="shape"/>
<feColorMatrix in="SourceAlpha" type="matrix" values="0 0 0 0 0 0 0 0 0 0 0 0 0 0 0 0 0 0 127 0" result="hardAlpha"/>
<feOffset/>
<feGaussianBlur stdDeviation="0.55"/>
<feComposite in2="hardAlpha" operator="arithmetic" k2="-1" k3="1"/>
<feColorMatrix type="matrix" values="0 0 0 0 0.997691 0 0 0 0 1 0 0 0 0 0.972756 0 0 0 0.45 0"/>
<feBlend mode="normal" in2="shape" result="effect1_innerShadow_1778_1364"/>
</filter>
<filter id="filter6_i_1778_1364" x="16" y="38.7595" width="49.0967" height="13.2668" filterUnits="userSpaceOnUse" color-interpolation-filters="sRGB">
<feFlood flood-opacity="0" result="BackgroundImageFix"/>
<feBlend mode="normal" in="SourceGraphic" in2="BackgroundImageFix" result="shape"/>
<feColorMatrix in="SourceAlpha" type="matrix" values="0 0 0 0 0 0 0 0 0 0 0 0 0 0 0 0 0 0 127 0" result="hardAlpha"/>
<feOffset dy="2"/>
<feGaussianBlur stdDeviation="0.85"/>
<feComposite in2="hardAlpha" operator="arithmetic" k2="-1" k3="1"/>
<feColorMatrix type="matrix" values="0 0 0 0 0.862745 0 0 0 0 0.882353 0 0 0 0 0.65098 0 0 0 0.45 0"/>
<feBlend mode="normal" in2="shape" result="effect1_innerShadow_1778_1364"/>
</filter>
<filter id="filter7_i_1778_1364" x="20.4404" y="52.4246" width="12.5234" height="14.2231" filterUnits="userSpaceOnUse" color-interpolation-filters="sRGB">
<feFlood flood-opacity="0" result="BackgroundImageFix"/>
<feBlend mode="normal" in="SourceGraphic" in2="BackgroundImageFix" result="shape"/>
<feColorMatrix in="SourceAlpha" type="matrix" values="0 0 0 0 0 0 0 0 0 0 0 0 0 0 0 0 0 0 127 0" result="hardAlpha"/>
<feOffset dy="2"/>
<feGaussianBlur stdDeviation="0.85"/>
<feComposite in2="hardAlpha" operator="arithmetic" k2="-1" k3="1"/>
<feColorMatrix type="matrix" values="0 0 0 0 0.862745 0 0 0 0 0.882353 0 0 0 0 0.65098 0 0 0 0.45 0"/>
<feBlend mode="normal" in2="shape" result="effect1_innerShadow_1778_1364"/>
</filter>
<filter id="filter8_i_1778_1364" x="50.3506" y="52.4246" width="12.5234" height="14.2231" filterUnits="userSpaceOnUse" color-interpolation-filters="sRGB">
<feFlood flood-opacity="0" result="BackgroundImageFix"/>
<feBlend mode="normal" in="SourceGraphic" in2="BackgroundImageFix" result="shape"/>
<feColorMatrix in="SourceAlpha" type="matrix" values="0 0 0 0 0 0 0 0 0 0 0 0 0 0 0 0 0 0 127 0" result="hardAlpha"/>
<feOffset dy="2"/>
<feGaussianBlur stdDeviation="0.85"/>
<feComposite in2="hardAlpha" operator="arithmetic" k2="-1" k3="1"/>
<feColorMatrix type="matrix" values="0 0 0 0 0.862745 0 0 0 0 0.882353 0 0 0 0 0.65098 0 0 0 0.45 0"/>
<feBlend mode="normal" in2="shape" result="effect1_innerShadow_1778_1364"/>
</filter>
<filter id="filter9_i_1778_1364" x="24.124" y="28.1575" width="42.5195" height="18.0842" filterUnits="userSpaceOnUse" color-interpolation-filters="sRGB">
<feFlood flood-opacity="0" result="BackgroundImageFix"/>
<feBlend mode="normal" in="SourceGraphic" in2="BackgroundImageFix" result="shape"/>
<feColorMatrix in="SourceAlpha" type="matrix" values="0 0 0 0 0 0 0 0 0 0 0 0 0 0 0 0 0 0 127 0" result="hardAlpha"/>
<feOffset dy="2"/>
<feGaussianBlur stdDeviation="0.85"/>
<feComposite in2="hardAlpha" operator="arithmetic" k2="-1" k3="1"/>
<feColorMatrix type="matrix" values="0 0 0 0 0.862745 0 0 0 0 0.882353 0 0 0 0 0.65098 0 0 0 0.45 0"/>
<feBlend mode="normal" in2="shape" result="effect1_innerShadow_1778_1364"/>
</filter>
<filter id="filter10_i_1778_1364" x="34.1553" y="33.8575" width="5.38867" height="7.06616" filterUnits="userSpaceOnUse" color-interpolation-filters="sRGB">
<feFlood flood-opacity="0" result="BackgroundImageFix"/>
<feBlend mode="normal" in="SourceGraphic" in2="BackgroundImageFix" result="shape"/>
<feColorMatrix in="SourceAlpha" type="matrix" values="0 0 0 0 0 0 0 0 0 0 0 0 0 0 0 0 0 0 127 0" result="hardAlpha"/>
<feOffset dx="-1" dy="-2"/>
<feGaussianBlur stdDeviation="1.85"/>
<feComposite in2="hardAlpha" operator="arithmetic" k2="-1" k3="1"/>
<feColorMatrix type="matrix" values="0 0 0 0 0.464743 0 0 0 0 0.422291 0 0 0 0 0.422291 0 0 0 0.52 0"/>
<feBlend mode="normal" in2="shape" result="effect1_innerShadow_1778_1364"/>
</filter>
<filter id="filter11_i_1778_1364" x="47.6787" y="33.1105" width="5.38867" height="7.06616" filterUnits="userSpaceOnUse" color-interpolation-filters="sRGB">
<feFlood flood-opacity="0" result="BackgroundImageFix"/>
<feBlend mode="normal" in="SourceGraphic" in2="BackgroundImageFix" result="shape"/>
<feColorMatrix in="SourceAlpha" type="matrix" values="0 0 0 0 0 0 0 0 0 0 0 0 0 0 0 0 0 0 127 0" result="hardAlpha"/>
<feOffset dx="-1" dy="-2"/>
<feGaussianBlur stdDeviation="1.85"/>
<feComposite in2="hardAlpha" operator="arithmetic" k2="-1" k3="1"/>
<feColorMatrix type="matrix" values="0 0 0 0 0.464743 0 0 0 0 0.422291 0 0 0 0 0.422291 0 0 0 0.52 0"/>
<feBlend mode="normal" in2="shape" result="effect1_innerShadow_1778_1364"/>
</filter>
</defs>
</svg>
