<svg width="84" height="84" viewBox="0 0 84 84" fill="none" xmlns="http://www.w3.org/2000/svg">
<g filter="url(#filter0_i_1778_1390)">
<circle cx="42" cy="42" r="40.5" stroke="#00A8A3" stroke-width="3"/>
</g>
<g filter="url(#filter1_i_1778_1390)">
<path d="M43.6406 45.3219L22.5869 41.4272V61.8289L43.8141 66" fill="#F4A284"/>
</g>
<path d="M64.777 31.3326L44.0824 29.1141L43.6406 47.6205L64.777 31.3326Z" fill="#CB8469"/>
<path d="M22.5869 41.4272L44.0824 29.1141L43.9943 43.7926L43.6704 48.8199L22.5869 41.4272Z" fill="#F4A284"/>
<g filter="url(#filter2_i_1778_1390)">
<path d="M43.8141 66L65.0588 51.2947L64.777 31.3325L43.6406 45.3218L43.8141 66Z" fill="#F9AE86"/>
</g>
<g filter="url(#filter3_i_1778_1390)">
<path d="M22.5865 41.4273L15 35.5292L36.49 24.0789L44.082 29.1142L22.5865 41.4273Z" fill="#FBC2A8"/>
</g>
<g filter="url(#filter4_i_1778_1390)">
<path d="M64.7767 31.3326L68.9825 24.4701L49.0453 22.448L44.082 29.1141" fill="#FBC2A8"/>
</g>
<g filter="url(#filter5_i_1778_1390)">
<path d="M22.5862 41.4272L15.4834 43.9489L37.7309 48.104L43.6399 45.3219L22.5862 41.4272Z" fill="#FBC2A8"/>
</g>
<path d="M45.6128 57.0193V62.0586L50.5436 58.4137V53.2074C50.5436 53.2074 45.2578 56.668 45.6128 57.0193Z" fill="white"/>
<g filter="url(#filter6_i_1778_1390)">
<path d="M59.0332 30.7222C58.3585 30.5633 57.6877 30.5833 57.0536 30.7263C56.6336 29.2865 55.4791 28.0978 53.8951 27.7238C52.883 27.4847 51.8762 27.6316 51.0063 28.043C50.6052 25.9474 49.0009 24.1724 46.7612 23.6434C44.0227 22.997 41.2775 24.4341 40.2234 26.9131C39.5581 26.0182 38.5987 25.329 37.4186 25.0512C35.2425 24.537 33.0758 25.5494 32.019 27.3738C31.5881 27.0813 31.1043 26.8516 30.5651 26.7234C28.8239 26.312 27.0787 26.9959 26.0652 28.3221C24.3687 28.2153 22.7766 29.2945 22.3227 30.9747C22.2821 31.1243 22.2699 31.2739 22.2495 31.4221C21.9325 31.72 21.694 32.1046 21.5842 32.5547C21.339 33.5618 21.8105 34.5648 22.6669 35.0697C22.927 35.2727 23.2807 35.437 23.7346 35.5826C23.7454 35.8283 23.7752 36.0594 23.8254 36.2678C24.1316 37.5406 25.3538 38.3233 26.6343 37.6635C26.4771 38.8816 27.3727 39.9394 28.5299 40.288C29.1938 40.4883 29.9147 40.4349 30.5827 40.28C30.8184 40.2252 32.6111 39.7203 32.6084 39.4813C32.6192 40.6099 33.3902 41.6049 34.2913 42.3008C36.9443 44.3483 41.0472 44.2948 43.6433 42.1779C43.6176 43.1195 44.3913 43.9382 45.31 44.216L62.0074 33.1638C61.4763 31.9804 60.4099 31.0455 59.0346 30.7196L59.0332 30.7222Z" fill="#00A8A3"/>
</g>
<g filter="url(#filter7_i_1778_1390)">
<path d="M64.777 31.3326L62.0061 33.1665L45.3086 44.2187L43.6406 45.322L53.7054 45.9043L55.2298 44.8545L65.3488 37.8839L74.0004 31.9243L64.777 31.3326Z" fill="#FBC2A8"/>
</g>
<path d="M37.4925 28.9325C36.6646 28.7375 35.8354 28.8951 35.166 29.3064C35.5129 29.2463 35.8774 29.2544 36.2419 29.3398C37.6741 29.6777 38.5562 31.0962 38.2134 32.5079C37.8963 33.8115 36.6443 34.6516 35.3273 34.506C35.5563 34.6289 35.8042 34.7264 36.0698 34.7892C37.7107 35.1765 39.3583 34.1801 39.7513 32.5627C40.1442 30.9453 39.1334 29.3211 37.4925 28.9338V28.9325Z" fill="white"/>
<g filter="url(#filter8_i_1778_1390)">
<path d="M38.2135 32.508C38.5563 31.0962 37.6742 29.6791 36.242 29.3399C35.8775 29.2544 35.513 29.2464 35.1661 29.3065C34.509 29.7098 34.0049 30.3576 33.8111 31.159C33.4819 32.5146 34.1404 33.8716 35.3274 34.5047C36.6444 34.6503 37.8964 33.8102 38.2135 32.5066V32.508Z" fill="black"/>
</g>
<path d="M51.4583 31.4367C50.6304 31.2417 49.8012 31.3993 49.1318 31.8107C49.4787 31.7506 49.8432 31.7586 50.2077 31.8441C51.6399 32.182 52.522 33.6005 52.1792 35.0122C51.8621 36.3158 50.6101 37.1559 49.2931 37.0103C49.5221 37.1332 49.77 37.2307 50.0356 37.2934C51.6765 37.6808 53.3242 36.6844 53.7171 35.067C54.11 33.4495 53.0992 31.8254 51.4583 31.4381V31.4367Z" fill="white"/>
<g filter="url(#filter9_i_1778_1390)">
<path d="M52.1793 35.0122C52.5221 33.6005 51.64 32.1834 50.2078 31.8441C49.8433 31.7586 49.4788 31.7506 49.1319 31.8107C48.4748 32.2141 47.9707 32.8619 47.777 33.6632C47.4477 35.0189 48.1062 36.3759 49.2932 37.009C50.6102 37.1546 51.8622 36.3145 52.1793 35.0109V35.0122Z" fill="black"/>
</g>
<g filter="url(#filter10_i_1778_1390)">
<path d="M30.5312 18.4158C30.8171 17.7613 31.2954 17 32.6653 17C33.9214 17 35.0162 17.7132 35.0162 19.1971C35.0162 20.7598 32.3238 23.7476 30.5082 25.3784C28.6938 23.8558 26.0801 20.9548 26.0801 19.0128C26.0801 17.9002 27.0272 17.0013 28.3849 17.0013C29.7426 17.0013 30.2223 17.7439 30.5068 18.3583L30.5285 18.4171L30.5312 18.4158Z" fill="#00A8A3"/>
</g>
<defs>
<filter id="filter0_i_1778_1390" x="0" y="0" width="84" height="88" filterUnits="userSpaceOnUse" color-interpolation-filters="sRGB">
<feFlood flood-opacity="0" result="BackgroundImageFix"/>
<feBlend mode="normal" in="SourceGraphic" in2="BackgroundImageFix" result="shape"/>
<feColorMatrix in="SourceAlpha" type="matrix" values="0 0 0 0 0 0 0 0 0 0 0 0 0 0 0 0 0 0 127 0" result="hardAlpha"/>
<feOffset dy="6"/>
<feGaussianBlur stdDeviation="2"/>
<feComposite in2="hardAlpha" operator="arithmetic" k2="-1" k3="1"/>
<feColorMatrix type="matrix" values="0 0 0 0 0.862745 0 0 0 0 0.882353 0 0 0 0 0.65098 0 0 0 0.31 0"/>
<feBlend mode="normal" in2="shape" result="effect1_innerShadow_1778_1390"/>
</filter>
<filter id="filter1_i_1778_1390" x="22.5869" y="40.4272" width="21.2275" height="25.5728" filterUnits="userSpaceOnUse" color-interpolation-filters="sRGB">
<feFlood flood-opacity="0" result="BackgroundImageFix"/>
<feBlend mode="normal" in="SourceGraphic" in2="BackgroundImageFix" result="shape"/>
<feColorMatrix in="SourceAlpha" type="matrix" values="0 0 0 0 0 0 0 0 0 0 0 0 0 0 0 0 0 0 127 0" result="hardAlpha"/>
<feOffset dy="-1"/>
<feGaussianBlur stdDeviation="0.85"/>
<feComposite in2="hardAlpha" operator="arithmetic" k2="-1" k3="1"/>
<feColorMatrix type="matrix" values="0 0 0 0 0.941176 0 0 0 0 0.878431 0 0 0 0 0.87451 0 0 0 0.81 0"/>
<feBlend mode="normal" in2="shape" result="effect1_innerShadow_1778_1390"/>
</filter>
<filter id="filter2_i_1778_1390" x="43.6406" y="30.3325" width="21.418" height="35.6675" filterUnits="userSpaceOnUse" color-interpolation-filters="sRGB">
<feFlood flood-opacity="0" result="BackgroundImageFix"/>
<feBlend mode="normal" in="SourceGraphic" in2="BackgroundImageFix" result="shape"/>
<feColorMatrix in="SourceAlpha" type="matrix" values="0 0 0 0 0 0 0 0 0 0 0 0 0 0 0 0 0 0 127 0" result="hardAlpha"/>
<feOffset dy="-1"/>
<feGaussianBlur stdDeviation="0.85"/>
<feComposite in2="hardAlpha" operator="arithmetic" k2="-1" k3="1"/>
<feColorMatrix type="matrix" values="0 0 0 0 0.941176 0 0 0 0 0.878431 0 0 0 0 0.87451 0 0 0 0.81 0"/>
<feBlend mode="normal" in2="shape" result="effect1_innerShadow_1778_1390"/>
</filter>
<filter id="filter3_i_1778_1390" x="15" y="23.0789" width="29.082" height="18.3484" filterUnits="userSpaceOnUse" color-interpolation-filters="sRGB">
<feFlood flood-opacity="0" result="BackgroundImageFix"/>
<feBlend mode="normal" in="SourceGraphic" in2="BackgroundImageFix" result="shape"/>
<feColorMatrix in="SourceAlpha" type="matrix" values="0 0 0 0 0 0 0 0 0 0 0 0 0 0 0 0 0 0 127 0" result="hardAlpha"/>
<feOffset dy="-1"/>
<feGaussianBlur stdDeviation="0.85"/>
<feComposite in2="hardAlpha" operator="arithmetic" k2="-1" k3="1"/>
<feColorMatrix type="matrix" values="0 0 0 0 0.941176 0 0 0 0 0.878431 0 0 0 0 0.87451 0 0 0 0.81 0"/>
<feBlend mode="normal" in2="shape" result="effect1_innerShadow_1778_1390"/>
</filter>
<filter id="filter4_i_1778_1390" x="44.082" y="21.448" width="24.9004" height="9.88452" filterUnits="userSpaceOnUse" color-interpolation-filters="sRGB">
<feFlood flood-opacity="0" result="BackgroundImageFix"/>
<feBlend mode="normal" in="SourceGraphic" in2="BackgroundImageFix" result="shape"/>
<feColorMatrix in="SourceAlpha" type="matrix" values="0 0 0 0 0 0 0 0 0 0 0 0 0 0 0 0 0 0 127 0" result="hardAlpha"/>
<feOffset dy="-1"/>
<feGaussianBlur stdDeviation="0.85"/>
<feComposite in2="hardAlpha" operator="arithmetic" k2="-1" k3="1"/>
<feColorMatrix type="matrix" values="0 0 0 0 0.941176 0 0 0 0 0.878431 0 0 0 0 0.87451 0 0 0 0.81 0"/>
<feBlend mode="normal" in2="shape" result="effect1_innerShadow_1778_1390"/>
</filter>
<filter id="filter5_i_1778_1390" x="15.4834" y="40.4272" width="28.1562" height="7.67676" filterUnits="userSpaceOnUse" color-interpolation-filters="sRGB">
<feFlood flood-opacity="0" result="BackgroundImageFix"/>
<feBlend mode="normal" in="SourceGraphic" in2="BackgroundImageFix" result="shape"/>
<feColorMatrix in="SourceAlpha" type="matrix" values="0 0 0 0 0 0 0 0 0 0 0 0 0 0 0 0 0 0 127 0" result="hardAlpha"/>
<feOffset dy="-1"/>
<feGaussianBlur stdDeviation="0.85"/>
<feComposite in2="hardAlpha" operator="arithmetic" k2="-1" k3="1"/>
<feColorMatrix type="matrix" values="0 0 0 0 0.941176 0 0 0 0 0.878431 0 0 0 0 0.87451 0 0 0 0.81 0"/>
<feBlend mode="normal" in2="shape" result="effect1_innerShadow_1778_1390"/>
</filter>
<filter id="filter6_i_1778_1390" x="21.5195" y="23.4889" width="40.4883" height="22.4272" filterUnits="userSpaceOnUse" color-interpolation-filters="sRGB">
<feFlood flood-opacity="0" result="BackgroundImageFix"/>
<feBlend mode="normal" in="SourceGraphic" in2="BackgroundImageFix" result="shape"/>
<feColorMatrix in="SourceAlpha" type="matrix" values="0 0 0 0 0 0 0 0 0 0 0 0 0 0 0 0 0 0 127 0" result="hardAlpha"/>
<feOffset dy="4"/>
<feGaussianBlur stdDeviation="0.85"/>
<feComposite in2="hardAlpha" operator="arithmetic" k2="-1" k3="1"/>
<feColorMatrix type="matrix" values="0 0 0 0 0.862745 0 0 0 0 0.882353 0 0 0 0 0.65098 0 0 0 0.45 0"/>
<feBlend mode="normal" in2="shape" result="effect1_innerShadow_1778_1390"/>
</filter>
<filter id="filter7_i_1778_1390" x="43.6406" y="30.3326" width="30.3594" height="15.5717" filterUnits="userSpaceOnUse" color-interpolation-filters="sRGB">
<feFlood flood-opacity="0" result="BackgroundImageFix"/>
<feBlend mode="normal" in="SourceGraphic" in2="BackgroundImageFix" result="shape"/>
<feColorMatrix in="SourceAlpha" type="matrix" values="0 0 0 0 0 0 0 0 0 0 0 0 0 0 0 0 0 0 127 0" result="hardAlpha"/>
<feOffset dy="-1"/>
<feGaussianBlur stdDeviation="0.85"/>
<feComposite in2="hardAlpha" operator="arithmetic" k2="-1" k3="1"/>
<feColorMatrix type="matrix" values="0 0 0 0 0.940705 0 0 0 0 0.879901 0 0 0 0 0.874373 0 0 0 0.81 0"/>
<feBlend mode="normal" in2="shape" result="effect1_innerShadow_1778_1390"/>
</filter>
<filter id="filter8_i_1778_1390" x="32.7266" y="27.2675" width="5.56055" height="7.25354" filterUnits="userSpaceOnUse" color-interpolation-filters="sRGB">
<feFlood flood-opacity="0" result="BackgroundImageFix"/>
<feBlend mode="normal" in="SourceGraphic" in2="BackgroundImageFix" result="shape"/>
<feColorMatrix in="SourceAlpha" type="matrix" values="0 0 0 0 0 0 0 0 0 0 0 0 0 0 0 0 0 0 127 0" result="hardAlpha"/>
<feOffset dx="-1" dy="-2"/>
<feGaussianBlur stdDeviation="1.85"/>
<feComposite in2="hardAlpha" operator="arithmetic" k2="-1" k3="1"/>
<feColorMatrix type="matrix" values="0 0 0 0 0.464743 0 0 0 0 0.422291 0 0 0 0 0.422291 0 0 0 0.52 0"/>
<feBlend mode="normal" in2="shape" result="effect1_innerShadow_1778_1390"/>
</filter>
<filter id="filter9_i_1778_1390" x="46.6924" y="29.7717" width="5.56055" height="7.25354" filterUnits="userSpaceOnUse" color-interpolation-filters="sRGB">
<feFlood flood-opacity="0" result="BackgroundImageFix"/>
<feBlend mode="normal" in="SourceGraphic" in2="BackgroundImageFix" result="shape"/>
<feColorMatrix in="SourceAlpha" type="matrix" values="0 0 0 0 0 0 0 0 0 0 0 0 0 0 0 0 0 0 127 0" result="hardAlpha"/>
<feOffset dx="-1" dy="-2"/>
<feGaussianBlur stdDeviation="1.85"/>
<feComposite in2="hardAlpha" operator="arithmetic" k2="-1" k3="1"/>
<feColorMatrix type="matrix" values="0 0 0 0 0.464743 0 0 0 0 0.422291 0 0 0 0 0.422291 0 0 0 0.52 0"/>
<feBlend mode="normal" in2="shape" result="effect1_innerShadow_1778_1390"/>
</filter>
<filter id="filter10_i_1778_1390" x="26.0801" y="17" width="8.93652" height="10.0784" filterUnits="userSpaceOnUse" color-interpolation-filters="sRGB">
<feFlood flood-opacity="0" result="BackgroundImageFix"/>
<feBlend mode="normal" in="SourceGraphic" in2="BackgroundImageFix" result="shape"/>
<feColorMatrix in="SourceAlpha" type="matrix" values="0 0 0 0 0 0 0 0 0 0 0 0 0 0 0 0 0 0 127 0" result="hardAlpha"/>
<feOffset dy="4"/>
<feGaussianBlur stdDeviation="0.85"/>
<feComposite in2="hardAlpha" operator="arithmetic" k2="-1" k3="1"/>
<feColorMatrix type="matrix" values="0 0 0 0 0.862745 0 0 0 0 0.882353 0 0 0 0 0.65098 0 0 0 0.45 0"/>
<feBlend mode="normal" in2="shape" result="effect1_innerShadow_1778_1390"/>
</filter>
</defs>
</svg>
