<svg width="84" height="84" viewBox="0 0 84 84" fill="none" xmlns="http://www.w3.org/2000/svg">
<g filter="url(#filter0_i_1778_1391)">
<path d="M60.3164 43.7713C60.3164 43.7713 60.9551 34.3396 70.2371 34.7621C76.202 35.0334 77.6607 38.2792 76.7509 38.7996C75.8412 39.3199 73.5508 38.8322 73.5508 38.8322C73.5508 38.8322 76.4511 40.723 74.53 41.7173C72.6088 42.7117 70.7978 41.7259 70.7978 41.7259C70.7978 41.7259 73.1035 43.1238 71.8617 44.1165C70.62 45.1091 68.6836 43.9962 68.6836 43.9962C68.6836 43.9962 70.5658 45.4199 69.4985 46.1996C68.4312 46.9793 63.7131 47.0737 60.3164 43.7695V43.7713Z" fill="#F7ECDD"/>
<g filter="url(#filter1_d_1778_1391)">
<path d="M70.0902 36.3695C70.0902 36.3695 71.493 36.5722 71.3845 37.3587C71.2761 38.1453 69.4414 37.3604 69.4414 37.3604C69.4414 37.3604 70.0106 38.7206 71.5743 38.2002C73.1379 37.6799 71.7928 35.8921 70.0886 36.3695H70.0902Z" fill="#FAF5E3"/>
<path d="M68.7973 38.9318C68.7973 38.9318 70.2 39.1344 70.0916 39.921C69.9832 40.7075 68.1484 39.9227 68.1484 39.9227C68.1484 39.9227 68.7177 41.2828 70.2813 40.7625C71.8467 40.2421 70.4999 38.4544 68.7956 38.9318H68.7973Z" fill="#FAF5E3"/>
<path d="M65.9936 41.2211C65.9936 41.2211 67.3963 41.4237 67.2879 42.2103C67.1794 42.9968 65.3447 42.212 65.3447 42.212C65.3447 42.212 65.914 43.5721 67.4776 43.0518C69.043 42.5314 67.6961 40.7437 65.9919 41.2211H65.9936Z" fill="#FAF5E3"/>
<path d="M66.5053 36.0913C66.5053 36.0913 67.908 36.294 67.7996 37.0805C67.6912 37.8671 65.8564 37.0822 65.8564 37.0822C65.8564 37.0822 66.4257 38.4424 67.9893 37.922C69.5547 37.4017 68.2079 35.6139 66.5036 36.0913H66.5053Z" fill="#FAF5E3"/>
<path d="M63.0424 40.1168C63.0424 40.1168 64.4451 40.3195 64.3367 41.106C64.2283 41.8926 62.3936 41.1077 62.3936 41.1077C62.3936 41.1077 62.9628 42.4679 64.5264 41.9475C66.0918 41.4272 64.745 39.6394 63.0407 40.1168H63.0424Z" fill="#FAF5E3"/>
<path d="M65.1332 38.1127C65.1332 38.1127 66.5359 38.3153 66.4275 39.1019C66.3191 39.8884 64.4844 39.1036 64.4844 39.1036C64.4844 39.1036 65.0536 40.4637 66.6173 39.9434C68.1809 39.423 66.8358 37.6353 65.1315 38.1127H65.1332Z" fill="#FAF5E3"/>
</g>
</g>
<g filter="url(#filter2_i_1778_1391)">
<circle cx="42" cy="42" r="40.5" stroke="#00A8A3" stroke-width="3"/>
</g>
<g filter="url(#filter3_i_1778_1391)">
<path d="M23.5697 47.2833C23.5697 47.2833 20.3729 38.4029 11.572 41.422C5.91539 43.3626 5.40377 46.89 6.41854 47.1339C7.435 47.3777 9.50181 46.2632 9.50181 46.2632C9.50181 46.2632 7.2334 48.8959 9.35104 49.3098C11.4687 49.7254 12.9392 48.2673 12.9392 48.2673C12.9392 48.2673 11.1078 50.2595 12.5732 50.864C14.0386 51.4685 15.5938 49.8542 15.5938 49.8542C15.5938 49.8542 14.1759 51.7518 15.4142 52.2001C16.6526 52.6483 21.2115 51.4101 23.5697 47.2816V47.2833Z" fill="#F7ECDD"/>
<path d="M11.2216 42.7135C11.2216 42.7135 9.9307 43.3043 10.2492 44.029C10.5677 44.7537 12.1161 43.4846 12.1161 43.4846C12.1161 43.4846 11.9416 44.9512 10.2966 44.8911C8.65165 44.8327 9.45466 42.7358 11.2216 42.7135Z" fill="#FAF5E3"/>
<path d="M13.1659 44.8103C13.1659 44.8103 11.875 45.4011 12.1935 46.1258C12.512 46.8505 14.0604 45.5814 14.0604 45.5814C14.0604 45.5814 13.8859 47.048 12.241 46.9879C10.596 46.9295 11.399 44.8326 13.1659 44.8103Z" fill="#FAF5E3"/>
<path d="M16.4863 46.2202C16.4863 46.2202 15.1954 46.811 15.5138 47.5357C15.8323 48.2604 17.3807 46.9913 17.3807 46.9913C17.3807 46.9913 17.2063 48.4579 15.5613 48.3978C13.9163 48.3394 14.7193 46.2425 16.4863 46.2202Z" fill="#FAF5E3"/>
<path d="M14.5908 41.4375C14.5908 41.4375 13.2998 42.0283 13.6183 42.753C13.9368 43.4777 15.4852 42.2086 15.4852 42.2086C15.4852 42.2086 15.3107 43.6752 13.6658 43.6151C12.0208 43.5567 12.8238 41.4598 14.5908 41.4375Z" fill="#FAF5E3"/>
<path d="M19.0195 44.3295C19.0195 44.3295 17.7286 44.9202 18.047 45.645C18.3655 46.3697 19.914 45.1006 19.914 45.1006C19.914 45.1006 19.7395 46.5672 18.0945 46.5071C16.4495 46.4487 17.2525 44.3518 19.0195 44.3295Z" fill="#FAF5E3"/>
<path d="M16.4609 42.9934C16.4609 42.9934 15.17 43.5842 15.4885 44.3089C15.8069 45.0336 17.3554 43.7645 17.3554 43.7645C17.3554 43.7645 17.1809 45.2311 15.5359 45.171C13.8909 45.1126 14.6939 43.0157 16.4609 42.9934Z" fill="#FAF5E3"/>
</g>
<g filter="url(#filter4_i_1778_1391)">
<path d="M61.387 43.3471C61.387 43.3471 61.387 43.3385 61.387 43.3334C61.387 40.8501 59.4015 38.8373 56.9518 38.8373C56.2454 38.8373 55.5881 39.0194 54.9951 39.3182C54.2328 37.9546 52.8063 37.0238 51.1495 37.0238C50.0907 37.0238 49.1318 37.4154 48.3695 38.0422C47.4682 36.0072 45.4573 34.5869 43.1144 34.5869C40.2496 34.5869 37.8813 36.7078 37.434 39.4831C36.5615 38.7326 35.4468 38.262 34.2135 38.262C31.9383 38.262 30.0392 39.8128 29.4328 41.92C28.9364 41.7259 28.4027 41.6091 27.8386 41.6091C26.0174 41.6091 24.4555 42.7237 23.7727 44.3157C22.0702 44.6145 20.7538 46.0948 20.7081 47.9118C20.7047 48.0732 20.7284 48.2278 20.7437 48.3841C20.5014 48.7619 20.3574 49.2118 20.3574 49.6961C20.3574 50.7798 21.0639 51.6848 22.0329 51.9939C22.2616 52.1021 22.5377 52.1742 22.863 52.2223C23.3831 52.4713 24.0116 52.6156 24.6926 52.6225C25.4618 53.5928 27.0424 54.1578 28.7941 53.9654C29.3362 53.9053 29.8427 53.7731 30.3069 53.5928C31.0388 54.91 32.9751 55.724 35.1639 55.4836C36.3515 55.3531 37.39 54.9272 38.1777 54.3433C38.8012 56.1138 41.2305 57.2524 43.9868 56.9502C46.2417 56.7029 48.0781 55.5591 48.8032 54.132C49.5808 54.4618 50.5311 54.618 51.5493 54.5064C53.1435 54.3312 54.4513 53.5704 55.0883 52.5967C55.6795 52.7289 56.325 52.7788 57.0043 52.7049C59.3405 52.449 61.099 50.9446 60.9601 49.3338C61.1159 49.3011 61.2701 49.2702 61.4259 49.2342C61.6343 49.1878 61.841 49.138 62.0477 49.0847C62.2306 49.0384 62.4136 48.9886 62.5949 48.9336C62.7558 48.8855 62.9151 48.8357 63.0743 48.7825C63.2132 48.7344 63.3521 48.6846 63.4894 48.6296C63.6097 48.5816 63.7265 48.5318 63.8434 48.4768C63.9451 48.4287 64.045 48.3789 64.1433 48.3222C64.228 48.2742 64.311 48.2226 64.3923 48.1677C64.4618 48.1196 64.5296 48.0681 64.5956 48.0131C64.621 47.9908 64.6447 47.965 64.6685 47.9427C65.2868 47.4567 65.6731 46.847 65.6731 46.1738C65.6731 44.6506 63.7706 43.4192 61.3887 43.3488L61.387 43.3471Z" fill="#00A8A3"/>
</g>
<path d="M35.2216 42.1914C34.3559 42.1914 33.5732 42.5503 33.0107 43.1308C33.3394 42.9865 33.7019 42.9058 34.0831 42.9058C35.5807 42.9058 36.7937 44.1354 36.7937 45.6536C36.7937 47.0549 35.7569 48.209 34.4202 48.379C34.676 48.4477 34.9437 48.4889 35.2216 48.4889C36.9377 48.4889 38.3268 47.079 38.3268 45.341C38.3268 43.6031 36.936 42.1931 35.2216 42.1931V42.1914Z" fill="white"/>
<g filter="url(#filter5_i_1778_1391)">
<path d="M36.7936 45.6536C36.7936 44.1355 35.5807 42.9059 34.0831 42.9059C33.7019 42.9059 33.3394 42.9866 33.0107 43.1309C32.4584 43.6993 32.1162 44.479 32.1162 45.3411C32.1162 46.7974 33.0937 48.0201 34.4202 48.3791C35.7585 48.2108 36.7936 47.0567 36.7936 45.6536Z" fill="#4A4444"/>
</g>
<path d="M49.6337 41.3842C48.768 41.3842 47.9853 41.7431 47.4229 42.3235C47.7515 42.1793 48.114 42.0986 48.4952 42.0986C49.9928 42.0986 51.2058 43.3282 51.2058 44.8463C51.2058 46.2477 50.169 47.4017 48.8323 47.5718C49.0882 47.6404 49.3558 47.6817 49.6337 47.6817C51.3498 47.6817 52.739 46.2717 52.739 44.5338C52.739 42.7958 51.3481 41.3859 49.6337 41.3859V41.3842Z" fill="white"/>
<g filter="url(#filter6_i_1778_1391)">
<path d="M51.2057 44.8463C51.2057 43.3281 49.9928 42.0985 48.4952 42.0985C48.114 42.0985 47.7515 42.1792 47.4228 42.3235C46.8705 42.8919 46.5283 43.6716 46.5283 44.5337C46.5283 45.99 47.5058 47.2128 48.8323 47.5717C50.1707 47.4034 51.2057 46.2493 51.2057 44.8463Z" fill="#423E3E"/>
</g>
<g filter="url(#filter7_i_1778_1391)">
<path d="M40.9311 22.1729C34.1038 22.8616 28.7657 25.4187 29.0079 27.8814C29.2502 30.344 34.9813 31.7832 41.8086 31.0928C48.6358 30.4041 53.974 27.847 53.7317 25.3843C53.4895 22.9217 47.7583 21.4825 40.9311 22.1729ZM41.607 29.0474C36.7364 29.5386 32.6824 28.8568 32.5503 27.5241C32.4199 26.1915 36.2621 24.7129 41.1326 24.22C46.0032 23.7288 50.0572 24.4106 50.1893 25.7433C50.3198 27.0759 46.4776 28.5546 41.607 29.0474Z" fill="#F7ECDD"/>
</g>
<defs>
<filter id="filter0_i_1778_1391" x="60.3164" y="33.7483" width="16.6836" height="12.9023" filterUnits="userSpaceOnUse" color-interpolation-filters="sRGB">
<feFlood flood-opacity="0" result="BackgroundImageFix"/>
<feBlend mode="normal" in="SourceGraphic" in2="BackgroundImageFix" result="shape"/>
<feColorMatrix in="SourceAlpha" type="matrix" values="0 0 0 0 0 0 0 0 0 0 0 0 0 0 0 0 0 0 127 0" result="hardAlpha"/>
<feOffset dy="-1"/>
<feGaussianBlur stdDeviation="0.85"/>
<feComposite in2="hardAlpha" operator="arithmetic" k2="-1" k3="1"/>
<feColorMatrix type="matrix" values="0 0 0 0 0.772436 0 0 0 0 0.607901 0 0 0 0 0.592943 0 0 0 0.81 0"/>
<feBlend mode="normal" in2="shape" result="effect1_innerShadow_1778_1391"/>
</filter>
<filter id="filter1_d_1778_1391" x="58.3936" y="36.0111" width="17.8721" height="15.1593" filterUnits="userSpaceOnUse" color-interpolation-filters="sRGB">
<feFlood flood-opacity="0" result="BackgroundImageFix"/>
<feColorMatrix in="SourceAlpha" type="matrix" values="0 0 0 0 0 0 0 0 0 0 0 0 0 0 0 0 0 0 127 0" result="hardAlpha"/>
<feOffset dy="4"/>
<feGaussianBlur stdDeviation="2"/>
<feComposite in2="hardAlpha" operator="out"/>
<feColorMatrix type="matrix" values="0 0 0 0 0 0 0 0 0 0 0 0 0 0 0 0 0 0 0.25 0"/>
<feBlend mode="normal" in2="BackgroundImageFix" result="effect1_dropShadow_1778_1391"/>
<feBlend mode="normal" in="SourceGraphic" in2="effect1_dropShadow_1778_1391" result="shape"/>
</filter>
<filter id="filter2_i_1778_1391" x="0" y="0" width="84" height="88" filterUnits="userSpaceOnUse" color-interpolation-filters="sRGB">
<feFlood flood-opacity="0" result="BackgroundImageFix"/>
<feBlend mode="normal" in="SourceGraphic" in2="BackgroundImageFix" result="shape"/>
<feColorMatrix in="SourceAlpha" type="matrix" values="0 0 0 0 0 0 0 0 0 0 0 0 0 0 0 0 0 0 127 0" result="hardAlpha"/>
<feOffset dy="6"/>
<feGaussianBlur stdDeviation="2"/>
<feComposite in2="hardAlpha" operator="arithmetic" k2="-1" k3="1"/>
<feColorMatrix type="matrix" values="0 0 0 0 0.862745 0 0 0 0 0.882353 0 0 0 0 0.65098 0 0 0 0.31 0"/>
<feBlend mode="normal" in2="shape" result="effect1_innerShadow_1778_1391"/>
</filter>
<filter id="filter3_i_1778_1391" x="6" y="39.7959" width="17.5693" height="12.4908" filterUnits="userSpaceOnUse" color-interpolation-filters="sRGB">
<feFlood flood-opacity="0" result="BackgroundImageFix"/>
<feBlend mode="normal" in="SourceGraphic" in2="BackgroundImageFix" result="shape"/>
<feColorMatrix in="SourceAlpha" type="matrix" values="0 0 0 0 0 0 0 0 0 0 0 0 0 0 0 0 0 0 127 0" result="hardAlpha"/>
<feOffset dy="-1"/>
<feGaussianBlur stdDeviation="0.85"/>
<feComposite in2="hardAlpha" operator="arithmetic" k2="-1" k3="1"/>
<feColorMatrix type="matrix" values="0 0 0 0 0.772436 0 0 0 0 0.607901 0 0 0 0 0.592943 0 0 0 0.81 0"/>
<feBlend mode="normal" in2="shape" result="effect1_innerShadow_1778_1391"/>
</filter>
<filter id="filter4_i_1778_1391" x="20.3574" y="34.5869" width="45.3154" height="24.1117" filterUnits="userSpaceOnUse" color-interpolation-filters="sRGB">
<feFlood flood-opacity="0" result="BackgroundImageFix"/>
<feBlend mode="normal" in="SourceGraphic" in2="BackgroundImageFix" result="shape"/>
<feColorMatrix in="SourceAlpha" type="matrix" values="0 0 0 0 0 0 0 0 0 0 0 0 0 0 0 0 0 0 127 0" result="hardAlpha"/>
<feOffset dy="4"/>
<feGaussianBlur stdDeviation="0.85"/>
<feComposite in2="hardAlpha" operator="arithmetic" k2="-1" k3="1"/>
<feColorMatrix type="matrix" values="0 0 0 0 0.862745 0 0 0 0 0.882353 0 0 0 0 0.65098 0 0 0 0.45 0"/>
<feBlend mode="normal" in2="shape" result="effect1_innerShadow_1778_1391"/>
</filter>
<filter id="filter5_i_1778_1391" x="31.1162" y="40.9059" width="5.67773" height="7.47314" filterUnits="userSpaceOnUse" color-interpolation-filters="sRGB">
<feFlood flood-opacity="0" result="BackgroundImageFix"/>
<feBlend mode="normal" in="SourceGraphic" in2="BackgroundImageFix" result="shape"/>
<feColorMatrix in="SourceAlpha" type="matrix" values="0 0 0 0 0 0 0 0 0 0 0 0 0 0 0 0 0 0 127 0" result="hardAlpha"/>
<feOffset dx="-1" dy="-2"/>
<feGaussianBlur stdDeviation="1.85"/>
<feComposite in2="hardAlpha" operator="arithmetic" k2="-1" k3="1"/>
<feColorMatrix type="matrix" values="0 0 0 0 0.464743 0 0 0 0 0.422291 0 0 0 0 0.422291 0 0 0 0.52 0"/>
<feBlend mode="normal" in2="shape" result="effect1_innerShadow_1778_1391"/>
</filter>
<filter id="filter6_i_1778_1391" x="45.5283" y="40.0985" width="5.67773" height="7.47314" filterUnits="userSpaceOnUse" color-interpolation-filters="sRGB">
<feFlood flood-opacity="0" result="BackgroundImageFix"/>
<feBlend mode="normal" in="SourceGraphic" in2="BackgroundImageFix" result="shape"/>
<feColorMatrix in="SourceAlpha" type="matrix" values="0 0 0 0 0 0 0 0 0 0 0 0 0 0 0 0 0 0 127 0" result="hardAlpha"/>
<feOffset dx="-1" dy="-2"/>
<feGaussianBlur stdDeviation="1.85"/>
<feComposite in2="hardAlpha" operator="arithmetic" k2="-1" k3="1"/>
<feColorMatrix type="matrix" values="0 0 0 0 0.464743 0 0 0 0 0.422291 0 0 0 0 0.422291 0 0 0 0.52 0"/>
<feBlend mode="normal" in2="shape" result="effect1_innerShadow_1778_1391"/>
</filter>
<filter id="filter7_i_1778_1391" x="29" y="21" width="24.7393" height="10.2656" filterUnits="userSpaceOnUse" color-interpolation-filters="sRGB">
<feFlood flood-opacity="0" result="BackgroundImageFix"/>
<feBlend mode="normal" in="SourceGraphic" in2="BackgroundImageFix" result="shape"/>
<feColorMatrix in="SourceAlpha" type="matrix" values="0 0 0 0 0 0 0 0 0 0 0 0 0 0 0 0 0 0 127 0" result="hardAlpha"/>
<feOffset dy="-1"/>
<feGaussianBlur stdDeviation="0.85"/>
<feComposite in2="hardAlpha" operator="arithmetic" k2="-1" k3="1"/>
<feColorMatrix type="matrix" values="0 0 0 0 0.772436 0 0 0 0 0.607901 0 0 0 0 0.592943 0 0 0 0.81 0"/>
<feBlend mode="normal" in2="shape" result="effect1_innerShadow_1778_1391"/>
</filter>
</defs>
</svg>
