<svg width="84" height="84" viewBox="0 0 84 84" fill="none" xmlns="http://www.w3.org/2000/svg">
<g filter="url(#filter0_i_1778_1400)">
<path d="M63.4793 43.7019C63.4779 43.6579 63.4752 43.6139 63.4724 43.57C63.4669 43.4628 63.46 43.3557 63.4518 43.2485C63.4476 43.2018 63.4435 43.1564 63.4394 43.1097C63.4297 42.9998 63.4173 42.8913 63.4049 42.7827C63.4008 42.7456 63.3966 42.7072 63.3911 42.6701C63.3732 42.5368 63.3539 42.4035 63.3319 42.2716C63.3305 42.2606 63.3291 42.2496 63.3264 42.2373C62.0284 34.5186 52.976 28.5407 42.0001 28.5393C35.2431 28.5393 29.2164 30.8049 25.2771 34.3482C25.2275 34.3922 25.1779 34.4362 25.1297 34.4815C25.0773 34.5296 25.0263 34.5791 24.974 34.6271C24.9271 34.6711 24.8803 34.7151 24.8335 34.7604C24.7825 34.8099 24.7315 34.8593 24.6819 34.9088C24.6364 34.9541 24.5909 34.9981 24.5469 35.0434C24.4973 35.0929 24.449 35.1437 24.3994 35.1932C24.3553 35.2399 24.3112 35.2853 24.2672 35.332C24.2203 35.3828 24.1721 35.4323 24.1252 35.4831C24.0811 35.5312 24.0384 35.5779 23.9957 35.626C23.9503 35.6768 23.9048 35.7277 23.8607 35.7785C23.8166 35.8279 23.7739 35.8788 23.7312 35.9296C23.6885 35.9791 23.6457 36.0285 23.6044 36.0794C23.5521 36.1426 23.5011 36.2058 23.4501 36.269C23.3867 36.3473 23.3247 36.427 23.2627 36.5053C23.2186 36.563 23.1731 36.6193 23.1304 36.677C23.0932 36.7265 23.056 36.7773 23.0188 36.8282C22.9789 36.8831 22.9389 36.9367 22.9003 36.9917C22.8631 37.0439 22.8273 37.0947 22.7915 37.1469C22.7543 37.2019 22.7171 37.2555 22.6799 37.3104C22.6454 37.3626 22.6096 37.4148 22.5765 37.467C22.5407 37.522 22.5049 37.5783 22.4691 37.6347C22.436 37.6869 22.4029 37.7391 22.3712 37.7913C22.3354 37.849 22.301 37.9081 22.2665 37.9658C22.2362 38.0166 22.2059 38.0674 22.177 38.1183C22.1398 38.1815 22.1053 38.2447 22.0695 38.3092C22.0433 38.356 22.0171 38.4027 21.991 38.4494C21.94 38.5428 21.8917 38.6362 21.8435 38.731C21.8201 38.7778 21.7967 38.8245 21.7733 38.8726C21.7333 38.9536 21.6933 39.0333 21.6561 39.1144C21.6341 39.1611 21.6134 39.2092 21.5914 39.2559C21.5611 39.3232 21.5308 39.3905 21.5004 39.4578C21.4784 39.5087 21.4577 39.5581 21.4371 39.609C21.4095 39.6749 21.3819 39.7395 21.3558 39.8054C21.3351 39.8563 21.3158 39.9085 21.2951 39.9593C21.2703 40.0253 21.2455 40.0926 21.2207 40.1585C21.2028 40.2094 21.1835 40.2602 21.1656 40.3124C21.1422 40.3811 21.1188 40.4512 21.0954 40.5199C21.0788 40.5693 21.0623 40.6174 21.0471 40.6669C21.0237 40.7438 21.0003 40.8194 20.9782 40.8963C20.9658 40.9389 20.9521 40.9815 20.941 41.0241C20.908 41.1423 20.8763 41.2618 20.8473 41.3813C20.8446 41.3951 20.8404 41.4088 20.8377 41.4225C20.8115 41.5297 20.7867 41.6369 20.7647 41.7454C20.755 41.788 20.7481 41.8306 20.7385 41.8746C20.722 41.9543 20.7068 42.0339 20.693 42.1136C20.6848 42.1617 20.6765 42.2112 20.6682 42.2593C20.6558 42.3348 20.6434 42.409 20.6324 42.4846C20.6255 42.5354 20.6186 42.5863 20.6117 42.6357C20.6021 42.7099 20.5924 42.7855 20.5842 42.8597C20.5787 42.9105 20.5731 42.9613 20.5676 43.0122C20.5594 43.0891 20.5539 43.1661 20.547 43.243C20.5428 43.2911 20.5387 43.3405 20.5359 43.3886C20.5304 43.4738 20.5263 43.5576 20.5222 43.6428C20.5208 43.684 20.518 43.7252 20.5167 43.7665C20.5125 43.8929 20.5098 44.0193 20.5098 44.147C20.5098 44.2817 20.5125 44.4149 20.5167 44.5455C20.5359 45.0703 20.5938 45.569 20.6889 46.043C20.7123 46.1612 20.7385 46.278 20.766 46.3934C21.7526 50.4258 25.5045 52.5389 30.6879 53.5817C31.4278 53.7301 32.198 53.8579 32.9931 53.9651C33.3113 54.0076 33.6338 54.0475 33.9589 54.0846C34.7732 54.1766 35.6123 54.2508 36.4707 54.3099C36.8138 54.3333 37.161 54.3539 37.5096 54.3717C39.0818 54.4542 40.7145 54.4885 42.3831 54.4885C42.7537 54.4885 43.1216 54.4871 43.4881 54.483C52.0776 54.4006 59.135 53.3015 62.0477 49.1357C62.4197 48.604 62.7243 48.0229 62.9544 47.3867C63.0701 47.0694 63.1679 46.7369 63.2451 46.392C63.4022 45.7009 63.4834 44.9535 63.4834 44.1457C63.4834 43.9959 63.4793 43.8461 63.4738 43.6978L63.4793 43.7019Z" fill="#00A8A3"/>
</g>
<g filter="url(#filter1_i_1778_1400)">
<path d="M64.779 60.6135C64.7859 60.6038 64.7942 60.5929 64.8011 60.5819C64.8052 60.575 64.8094 60.5681 64.8135 60.5613C64.8204 60.5489 64.8273 60.5379 64.8342 60.5242C64.8383 60.5159 64.8424 60.5077 64.8466 60.4994C64.8535 60.4857 64.8603 60.4719 64.8672 60.4568C64.8714 60.4486 64.8755 60.4376 64.8796 60.4294C64.8865 60.4129 64.8934 60.3964 64.9003 60.3799C64.9044 60.3703 64.9086 60.3593 64.9127 60.3483C64.9196 60.3291 64.9265 60.3112 64.9334 60.2906C64.9375 60.2796 64.9403 60.2686 64.9444 60.2576C64.9513 60.2356 64.9595 60.215 64.9664 60.1917C64.9706 60.1807 64.9733 60.1683 64.9775 60.1573C64.9857 60.1326 64.9926 60.1079 65.0009 60.0818C65.0036 60.0708 65.0078 60.0598 65.0105 60.0488C65.0188 60.0213 65.0271 59.9924 65.034 59.9622C65.0367 59.9512 65.0395 59.9402 65.0422 59.9292C65.0505 59.8976 65.0588 59.8647 65.067 59.8317C65.0698 59.8221 65.0725 59.8125 65.0739 59.8015C65.0822 59.7658 65.0918 59.7273 65.1001 59.6902C65.1015 59.6819 65.1042 59.6737 65.1056 59.6668C65.1152 59.6256 65.1249 59.5816 65.1345 59.5377C65.1345 59.5322 65.1373 59.5267 65.1387 59.5212C65.1497 59.4731 65.1593 59.4236 65.1704 59.3742C65.1704 59.3728 65.1704 59.3701 65.1704 59.3687C66.3898 53.4292 67.5334 29.6604 66.0963 29.6604C63.3351 29.6604 53.0081 43.5233 53.0081 43.5233C53.0081 43.5233 44.7038 20.2463 41.9757 20.2463C39.2475 20.2463 30.9432 43.5233 30.9432 43.5233C30.9432 43.5233 20.6797 29.6604 17.9198 29.6604C17.3535 29.6604 17.1785 33.3631 17.2447 38.2103C17.2447 38.2433 17.2447 38.2749 17.2461 38.3079C17.2474 38.4068 17.2488 38.5044 17.2502 38.6046C17.2502 38.6417 17.2502 38.6802 17.2516 38.7187C17.253 38.8341 17.2557 38.9509 17.2585 39.0677C17.2585 39.0814 17.2585 39.0951 17.2585 39.1075C17.2612 39.2408 17.264 39.3754 17.2667 39.5101C17.2667 39.5403 17.2681 39.5719 17.2695 39.6021C17.2722 39.7065 17.2736 39.8109 17.2764 39.9154C17.2764 39.9538 17.2778 39.9937 17.2791 40.0321C17.2819 40.1448 17.2846 40.2588 17.2874 40.3729C17.2874 40.3949 17.2874 40.4168 17.2888 40.4375C17.2929 40.5748 17.2957 40.7122 17.2998 40.851C17.2998 40.8785 17.3012 40.906 17.3026 40.9321C17.3053 41.0447 17.3094 41.1574 17.3122 41.27C17.3122 41.3058 17.315 41.3415 17.315 41.3772C17.3191 41.4899 17.3218 41.6039 17.326 41.7166C17.326 41.7454 17.3274 41.7743 17.3287 41.8018C17.3329 41.9433 17.3384 42.0848 17.3425 42.2263C17.3425 42.2414 17.3425 42.2565 17.3439 42.2716C17.348 42.398 17.3535 42.5244 17.3577 42.6508C17.3577 42.6866 17.3604 42.7209 17.3618 42.7566C17.3659 42.872 17.3701 42.9874 17.3756 43.1029C17.3756 43.1303 17.3783 43.1592 17.3783 43.1867C17.3894 43.4752 17.4018 43.7651 17.4142 44.055C17.4142 44.0852 17.4169 44.1154 17.4183 44.1457C17.4238 44.2638 17.4279 44.382 17.4335 44.5001C17.4335 44.5304 17.4362 44.5606 17.4376 44.5908C17.4514 44.8821 17.4638 45.172 17.4789 45.4633C17.4789 45.4907 17.4817 45.5182 17.4831 45.5457C17.4886 45.6625 17.4941 45.7806 17.501 45.8974C17.5023 45.9331 17.5051 45.9689 17.5065 46.0046C17.5134 46.1365 17.5203 46.267 17.5271 46.3989C17.5271 46.4099 17.5271 46.4195 17.5285 46.4305C17.5368 46.5761 17.5437 46.7218 17.5519 46.8674C17.5533 46.8935 17.5547 46.9196 17.5561 46.9443C17.563 47.0625 17.5685 47.1793 17.5754 47.2974C17.5767 47.3332 17.5795 47.3689 17.5809 47.4046C17.5878 47.5283 17.5947 47.6519 17.6015 47.7756C17.6015 47.7934 17.6043 47.8113 17.6043 47.8305C17.6126 47.9748 17.6208 48.119 17.6305 48.2633C17.6305 48.2839 17.6332 48.3045 17.6346 48.3265C17.6415 48.446 17.6498 48.5669 17.6567 48.6865C17.6594 48.7208 17.6608 48.7552 17.6636 48.7895C17.6704 48.9063 17.6787 49.0231 17.6856 49.1399C17.687 49.1632 17.6884 49.1879 17.6897 49.2113C17.6994 49.3542 17.7076 49.4957 17.7173 49.6372C17.7173 49.6482 17.7187 49.6592 17.72 49.6688C17.7283 49.7938 17.7366 49.9189 17.7448 50.0425C17.7476 50.0782 17.7504 50.114 17.7517 50.1497C17.76 50.261 17.7669 50.3709 17.7752 50.4808C17.7765 50.5069 17.7793 50.533 17.7807 50.5591C17.7903 50.6979 17.8 50.8353 17.811 50.9713C17.811 50.9754 17.811 50.9782 17.811 50.9823C17.8206 51.1114 17.8303 51.2392 17.8399 51.367C17.8427 51.4 17.8454 51.4343 17.8468 51.4673C17.8551 51.5703 17.862 51.672 17.8702 51.775C17.873 51.808 17.8757 51.8424 17.8785 51.8753C17.8992 52.1378 17.9198 52.396 17.9405 52.6516C17.9433 52.6791 17.9446 52.7066 17.9474 52.734C17.9557 52.8343 17.9639 52.9346 17.9722 53.0349C17.9749 53.0679 17.9777 53.1009 17.9805 53.1338C17.9901 53.2506 17.9997 53.366 18.0108 53.4801C18.0108 53.4869 18.0108 53.4938 18.0121 53.5021C18.0232 53.6257 18.0342 53.7494 18.0452 53.8703C18.048 53.8991 18.0507 53.928 18.0535 53.9554C18.0617 54.0475 18.07 54.1396 18.0783 54.2316C18.081 54.266 18.0852 54.2989 18.0879 54.3319C18.0976 54.4322 18.1072 54.5311 18.1169 54.63C18.1182 54.6465 18.1196 54.663 18.121 54.6809C18.132 54.7977 18.143 54.9131 18.1554 55.0271C18.1582 55.0505 18.1596 55.0738 18.1623 55.0972C18.1706 55.1865 18.1802 55.2744 18.1885 55.361C18.1913 55.3939 18.1954 55.4269 18.1982 55.4599C18.2064 55.5451 18.2161 55.6289 18.2243 55.7127C18.2271 55.7374 18.2298 55.7635 18.2326 55.7883C18.2436 55.8954 18.256 56.0012 18.267 56.1056C18.2684 56.1221 18.2712 56.1386 18.2726 56.1551C18.2822 56.243 18.2919 56.3296 18.3015 56.4161C18.3043 56.445 18.3084 56.4738 18.3111 56.5027C18.3208 56.5796 18.3291 56.6566 18.3387 56.7321C18.3415 56.7569 18.3442 56.783 18.3483 56.8077C18.3607 56.9053 18.3718 57.0028 18.3842 57.0976C18.3842 57.1058 18.3855 57.1127 18.3869 57.121C18.3979 57.2075 18.409 57.2927 18.42 57.3765C18.4241 57.404 18.4269 57.4301 18.431 57.4562C18.4393 57.5235 18.4489 57.5908 18.4572 57.6568C18.4599 57.6815 18.4641 57.7062 18.4668 57.731C18.4792 57.8175 18.4903 57.9027 18.5027 57.9865C18.5027 57.9865 18.5027 57.9893 18.5027 57.9906C18.5151 58.0758 18.5275 58.1583 18.5385 58.2393C18.5412 58.2613 18.5454 58.2833 18.5481 58.3053C18.5578 58.3657 18.566 58.4248 18.5757 58.4825C18.5798 58.5059 18.5826 58.5279 18.5867 58.5498C18.5977 58.6158 18.6074 58.6817 18.6184 58.7463C18.6198 58.7559 18.6212 58.7669 18.6239 58.7765C18.6363 58.8493 18.6487 58.9194 18.6597 58.9881C18.6625 59.006 18.6666 59.0252 18.6694 59.0431C18.679 59.0939 18.6873 59.1447 18.6969 59.1928C18.7011 59.2134 18.7038 59.2327 18.708 59.2533C18.7176 59.3055 18.7272 59.3563 18.7383 59.4058C18.741 59.4182 18.7424 59.4305 18.7452 59.4415C18.7576 59.502 18.77 59.5597 18.7824 59.616C18.7851 59.6297 18.7879 59.6421 18.7906 59.6558C18.8003 59.6984 18.8099 59.7396 18.8196 59.7809C18.8237 59.7974 18.8278 59.8138 18.8306 59.829C18.8402 59.8674 18.8499 59.9045 18.8581 59.9416C18.8609 59.954 18.865 59.9663 18.8678 59.9787C18.8802 60.0254 18.8926 60.0694 18.905 60.112C18.9077 60.1202 18.9105 60.1285 18.9119 60.1367C18.9215 60.1711 18.9312 60.2027 18.9422 60.2343C18.9463 60.2466 18.9505 60.2576 18.9532 60.27C18.9629 60.2975 18.9711 60.3236 18.9808 60.3483C18.9835 60.3579 18.9877 60.3675 18.9904 60.3758C19.0028 60.4074 19.0152 60.439 19.0276 60.4665C19.029 60.4706 19.0304 60.4733 19.0331 60.4761C19.0442 60.4994 19.0538 60.5214 19.0648 60.542C19.069 60.5489 19.0717 60.5558 19.0758 60.5626C19.0841 60.5777 19.0938 60.5929 19.102 60.6066C19.1062 60.6121 19.1089 60.6176 19.113 60.6231C19.1254 60.6396 19.1378 60.6547 19.1489 60.667C19.7799 61.2881 23.8019 61.8953 28.4328 62.3556C28.8806 62.3996 29.3353 62.4435 29.7914 62.4847C30.0959 62.5122 30.4018 62.5397 30.709 62.5658C31.0163 62.5919 31.3235 62.618 31.6308 62.6427C35.4736 62.956 39.3026 63.1538 41.6615 63.1689C41.7552 63.1689 41.8475 63.1689 41.9371 63.1689C42.2953 63.1689 42.6922 63.1648 43.1207 63.1566C43.3342 63.1525 43.5574 63.147 43.7862 63.1415C44.5894 63.1209 45.4837 63.0879 46.4358 63.0453C53.1045 62.7417 62.6654 61.9022 64.5365 60.8017C64.6123 60.7564 64.6771 60.711 64.7267 60.6657C64.7377 60.6561 64.7487 60.6437 64.7598 60.6299C64.7625 60.6258 64.7666 60.6203 64.7694 60.6162L64.779 60.6135Z" fill="#00A8A3"/>
</g>
<path d="M31.2417 46.4346C29.9231 46.3659 28.7037 46.8427 27.7998 47.6643C28.3124 47.4747 28.8704 47.384 29.4505 47.4142C31.7308 47.5338 33.482 49.4737 33.3636 51.7476C33.2533 53.8483 31.5834 55.4956 29.5331 55.6413C29.9176 55.7663 30.3226 55.8474 30.7456 55.8693C33.358 56.0054 35.5874 54.0049 35.7238 51.4C35.8602 48.795 33.8541 46.572 31.2417 46.436V46.4346Z" fill="white"/>
<g filter="url(#filter2_i_1778_1400)">
<path d="M33.3629 51.7476C33.4827 49.4737 31.7301 47.5338 29.4498 47.4142C28.8697 47.384 28.3117 47.4761 27.7991 47.6643C26.9118 48.4721 26.3303 49.6139 26.2614 50.904C26.1471 53.0871 27.5401 54.9969 29.5311 55.6399C31.5827 55.4942 33.2513 53.8469 33.3615 51.7462L33.3629 51.7476Z" fill="#111010"/>
</g>
<path d="M53.2573 46.3741C51.9387 46.3054 50.7193 46.7821 49.8154 47.6038C50.328 47.4142 50.886 47.3235 51.4661 47.3537C53.7464 47.4732 55.4977 49.4132 55.3792 51.687C55.269 53.7878 53.599 55.4351 51.5488 55.5807C51.9332 55.7058 52.3383 55.7868 52.7613 55.8088C55.3737 55.9448 57.603 53.9444 57.7394 51.3394C57.8758 48.7345 55.8697 46.5115 53.2573 46.3755V46.3741Z" fill="white"/>
<g filter="url(#filter3_i_1778_1400)">
<path d="M55.3785 51.6871C55.4984 49.4133 53.7457 47.4733 51.4654 47.3538C50.8853 47.3236 50.3273 47.4156 49.8147 47.6039C48.9274 48.4117 48.346 49.5534 48.2771 50.8436C48.1627 53.0267 49.5557 54.9365 51.5467 55.5795C53.5983 55.4338 55.2669 53.7865 55.3771 51.6858L55.3785 51.6871Z" fill="#111010"/>
</g>
<g filter="url(#filter4_i_1778_1400)">
<path d="M70 29.6603C70 31.4409 68.5519 32.8836 66.7676 32.8836C64.9833 32.8836 63.5352 31.4396 63.5352 29.6603C63.5352 27.8811 64.9833 26.4371 66.7676 26.4371C68.5519 26.4371 70 27.8811 70 29.6603Z" fill="#00A8A3"/>
<g filter="url(#filter5_i_1778_1400)">
<path d="M66.7682 32.2104C65.5667 32.2104 64.5898 31.2363 64.5898 30.0383C64.5898 28.8402 65.5667 27.8661 66.7682 27.8661C67.9697 27.8661 68.9466 28.8402 68.9466 30.0383C68.9466 31.2363 67.9697 32.2104 66.7682 32.2104Z" fill="#F2F0B3"/>
</g>
<path d="M67.0722 28.0791C66.3033 28.189 67.2802 29.7869 67.7666 29.6605C68.253 29.5341 68.0449 27.9403 67.0722 28.0791Z" fill="white"/>
</g>
<g filter="url(#filter6_i_1778_1400)">
<path d="M45.0498 19.7228C45.0498 21.5034 43.6017 22.9461 41.8174 22.9461C40.0331 22.9461 38.585 21.5021 38.585 19.7228C38.585 17.9422 40.0331 16.4996 41.8174 16.4996C43.6017 16.4996 45.0498 17.9436 45.0498 19.7228Z" fill="#00A8A3"/>
<g filter="url(#filter7_i_1778_1400)">
<path d="M41.818 22.2729C40.6165 22.2729 39.6396 21.2988 39.6396 20.1008C39.6396 18.9027 40.6165 17.9286 41.818 17.9286C43.0195 17.9286 43.9964 18.9027 43.9964 20.1008C43.9964 21.2988 43.0195 22.2729 41.818 22.2729Z" fill="#F2F0B3"/>
</g>
<path d="M42.122 18.1428C41.3531 18.2527 42.33 19.8506 42.8164 19.7242C43.3028 19.5978 43.0947 18.0041 42.122 18.1428Z" fill="white"/>
</g>
<g filter="url(#filter8_i_1778_1400)">
<path d="M20.4662 29.6603C20.4662 31.4409 19.0181 32.8836 17.2338 32.8836C15.4495 32.8836 14 31.4409 14 29.6603C14 27.8797 15.4481 26.4371 17.2324 26.4371C19.0167 26.4371 20.4649 27.8811 20.4649 29.6603H20.4662Z" fill="#00A8A3"/>
<g filter="url(#filter9_i_1778_1400)">
<path d="M17.2321 32.2104C16.0306 32.2104 15.0537 31.2363 15.0537 30.0383C15.0537 28.8402 16.0306 27.8661 17.2321 27.8661C18.4336 27.8661 19.4105 28.8402 19.4105 30.0383C19.4105 31.2363 18.4336 32.2104 17.2321 32.2104Z" fill="#F2F0B3"/>
</g>
<path d="M17.539 28.0791C16.7701 28.189 17.747 29.7869 18.2334 29.6605C18.7198 29.5341 18.5117 27.9403 17.539 28.0791Z" fill="white"/>
</g>
<g filter="url(#filter10_i_1778_1400)">
<circle cx="42" cy="42" r="40.5" stroke="#00A8A3" stroke-width="3"/>
</g>
<defs>
<filter id="filter0_i_1778_1400" x="20.5098" y="28.5393" width="42.9736" height="27.6492" filterUnits="userSpaceOnUse" color-interpolation-filters="sRGB">
<feFlood flood-opacity="0" result="BackgroundImageFix"/>
<feBlend mode="normal" in="SourceGraphic" in2="BackgroundImageFix" result="shape"/>
<feColorMatrix in="SourceAlpha" type="matrix" values="0 0 0 0 0 0 0 0 0 0 0 0 0 0 0 0 0 0 127 0" result="hardAlpha"/>
<feOffset dy="4"/>
<feGaussianBlur stdDeviation="0.85"/>
<feComposite in2="hardAlpha" operator="arithmetic" k2="-1" k3="1"/>
<feColorMatrix type="matrix" values="0 0 0 0 0.862745 0 0 0 0 0.882353 0 0 0 0 0.65098 0 0 0 0.45 0"/>
<feBlend mode="normal" in2="shape" result="effect1_innerShadow_1778_1400"/>
</filter>
<filter id="filter1_i_1778_1400" x="17.2314" y="20.2463" width="49.5342" height="44.6226" filterUnits="userSpaceOnUse" color-interpolation-filters="sRGB">
<feFlood flood-opacity="0" result="BackgroundImageFix"/>
<feBlend mode="normal" in="SourceGraphic" in2="BackgroundImageFix" result="shape"/>
<feColorMatrix in="SourceAlpha" type="matrix" values="0 0 0 0 0 0 0 0 0 0 0 0 0 0 0 0 0 0 127 0" result="hardAlpha"/>
<feOffset dy="4"/>
<feGaussianBlur stdDeviation="0.85"/>
<feComposite in2="hardAlpha" operator="arithmetic" k2="-1" k3="1"/>
<feColorMatrix type="matrix" values="0 0 0 0 0.862745 0 0 0 0 0.882353 0 0 0 0 0.65098 0 0 0 0.45 0"/>
<feBlend mode="normal" in2="shape" result="effect1_innerShadow_1778_1400"/>
</filter>
<filter id="filter2_i_1778_1400" x="25.2549" y="45.4086" width="8.11426" height="10.2313" filterUnits="userSpaceOnUse" color-interpolation-filters="sRGB">
<feFlood flood-opacity="0" result="BackgroundImageFix"/>
<feBlend mode="normal" in="SourceGraphic" in2="BackgroundImageFix" result="shape"/>
<feColorMatrix in="SourceAlpha" type="matrix" values="0 0 0 0 0 0 0 0 0 0 0 0 0 0 0 0 0 0 127 0" result="hardAlpha"/>
<feOffset dx="-1" dy="-2"/>
<feGaussianBlur stdDeviation="1.85"/>
<feComposite in2="hardAlpha" operator="arithmetic" k2="-1" k3="1"/>
<feColorMatrix type="matrix" values="0 0 0 0 0.464743 0 0 0 0 0.422291 0 0 0 0 0.422291 0 0 0 0.52 0"/>
<feBlend mode="normal" in2="shape" result="effect1_innerShadow_1778_1400"/>
</filter>
<filter id="filter3_i_1778_1400" x="47.2705" y="45.3481" width="8.11426" height="10.2313" filterUnits="userSpaceOnUse" color-interpolation-filters="sRGB">
<feFlood flood-opacity="0" result="BackgroundImageFix"/>
<feBlend mode="normal" in="SourceGraphic" in2="BackgroundImageFix" result="shape"/>
<feColorMatrix in="SourceAlpha" type="matrix" values="0 0 0 0 0 0 0 0 0 0 0 0 0 0 0 0 0 0 127 0" result="hardAlpha"/>
<feOffset dx="-1" dy="-2"/>
<feGaussianBlur stdDeviation="1.85"/>
<feComposite in2="hardAlpha" operator="arithmetic" k2="-1" k3="1"/>
<feColorMatrix type="matrix" values="0 0 0 0 0.464743 0 0 0 0 0.422291 0 0 0 0 0.422291 0 0 0 0.52 0"/>
<feBlend mode="normal" in2="shape" result="effect1_innerShadow_1778_1400"/>
</filter>
<filter id="filter4_i_1778_1400" x="63.5352" y="26.4371" width="6.46484" height="8.14641" filterUnits="userSpaceOnUse" color-interpolation-filters="sRGB">
<feFlood flood-opacity="0" result="BackgroundImageFix"/>
<feBlend mode="normal" in="SourceGraphic" in2="BackgroundImageFix" result="shape"/>
<feColorMatrix in="SourceAlpha" type="matrix" values="0 0 0 0 0 0 0 0 0 0 0 0 0 0 0 0 0 0 127 0" result="hardAlpha"/>
<feOffset dy="4"/>
<feGaussianBlur stdDeviation="0.85"/>
<feComposite in2="hardAlpha" operator="arithmetic" k2="-1" k3="1"/>
<feColorMatrix type="matrix" values="0 0 0 0 0.862745 0 0 0 0 0.882353 0 0 0 0 0.65098 0 0 0 0.45 0"/>
<feBlend mode="normal" in2="shape" result="effect1_innerShadow_1778_1400"/>
</filter>
<filter id="filter5_i_1778_1400" x="64.5898" y="26.8661" width="4.35645" height="5.34436" filterUnits="userSpaceOnUse" color-interpolation-filters="sRGB">
<feFlood flood-opacity="0" result="BackgroundImageFix"/>
<feBlend mode="normal" in="SourceGraphic" in2="BackgroundImageFix" result="shape"/>
<feColorMatrix in="SourceAlpha" type="matrix" values="0 0 0 0 0 0 0 0 0 0 0 0 0 0 0 0 0 0 127 0" result="hardAlpha"/>
<feOffset dy="-1"/>
<feGaussianBlur stdDeviation="0.85"/>
<feComposite in2="hardAlpha" operator="arithmetic" k2="-1" k3="1"/>
<feColorMatrix type="matrix" values="0 0 0 0 0.772436 0 0 0 0 0.607901 0 0 0 0 0.592943 0 0 0 0.81 0"/>
<feBlend mode="normal" in2="shape" result="effect1_innerShadow_1778_1400"/>
</filter>
<filter id="filter6_i_1778_1400" x="38.585" y="16.4996" width="6.46484" height="8.14641" filterUnits="userSpaceOnUse" color-interpolation-filters="sRGB">
<feFlood flood-opacity="0" result="BackgroundImageFix"/>
<feBlend mode="normal" in="SourceGraphic" in2="BackgroundImageFix" result="shape"/>
<feColorMatrix in="SourceAlpha" type="matrix" values="0 0 0 0 0 0 0 0 0 0 0 0 0 0 0 0 0 0 127 0" result="hardAlpha"/>
<feOffset dy="4"/>
<feGaussianBlur stdDeviation="0.85"/>
<feComposite in2="hardAlpha" operator="arithmetic" k2="-1" k3="1"/>
<feColorMatrix type="matrix" values="0 0 0 0 0.862745 0 0 0 0 0.882353 0 0 0 0 0.65098 0 0 0 0.45 0"/>
<feBlend mode="normal" in2="shape" result="effect1_innerShadow_1778_1400"/>
</filter>
<filter id="filter7_i_1778_1400" x="39.6396" y="16.9286" width="4.35645" height="5.34436" filterUnits="userSpaceOnUse" color-interpolation-filters="sRGB">
<feFlood flood-opacity="0" result="BackgroundImageFix"/>
<feBlend mode="normal" in="SourceGraphic" in2="BackgroundImageFix" result="shape"/>
<feColorMatrix in="SourceAlpha" type="matrix" values="0 0 0 0 0 0 0 0 0 0 0 0 0 0 0 0 0 0 127 0" result="hardAlpha"/>
<feOffset dy="-1"/>
<feGaussianBlur stdDeviation="0.85"/>
<feComposite in2="hardAlpha" operator="arithmetic" k2="-1" k3="1"/>
<feColorMatrix type="matrix" values="0 0 0 0 0.772436 0 0 0 0 0.607901 0 0 0 0 0.592943 0 0 0 0.81 0"/>
<feBlend mode="normal" in2="shape" result="effect1_innerShadow_1778_1400"/>
</filter>
<filter id="filter8_i_1778_1400" x="14" y="26.4371" width="6.46582" height="8.14641" filterUnits="userSpaceOnUse" color-interpolation-filters="sRGB">
<feFlood flood-opacity="0" result="BackgroundImageFix"/>
<feBlend mode="normal" in="SourceGraphic" in2="BackgroundImageFix" result="shape"/>
<feColorMatrix in="SourceAlpha" type="matrix" values="0 0 0 0 0 0 0 0 0 0 0 0 0 0 0 0 0 0 127 0" result="hardAlpha"/>
<feOffset dy="4"/>
<feGaussianBlur stdDeviation="0.85"/>
<feComposite in2="hardAlpha" operator="arithmetic" k2="-1" k3="1"/>
<feColorMatrix type="matrix" values="0 0 0 0 0.862745 0 0 0 0 0.882353 0 0 0 0 0.65098 0 0 0 0.45 0"/>
<feBlend mode="normal" in2="shape" result="effect1_innerShadow_1778_1400"/>
</filter>
<filter id="filter9_i_1778_1400" x="15.0537" y="26.8661" width="4.35645" height="5.34436" filterUnits="userSpaceOnUse" color-interpolation-filters="sRGB">
<feFlood flood-opacity="0" result="BackgroundImageFix"/>
<feBlend mode="normal" in="SourceGraphic" in2="BackgroundImageFix" result="shape"/>
<feColorMatrix in="SourceAlpha" type="matrix" values="0 0 0 0 0 0 0 0 0 0 0 0 0 0 0 0 0 0 127 0" result="hardAlpha"/>
<feOffset dy="-1"/>
<feGaussianBlur stdDeviation="0.85"/>
<feComposite in2="hardAlpha" operator="arithmetic" k2="-1" k3="1"/>
<feColorMatrix type="matrix" values="0 0 0 0 0.772436 0 0 0 0 0.607901 0 0 0 0 0.592943 0 0 0 0.81 0"/>
<feBlend mode="normal" in2="shape" result="effect1_innerShadow_1778_1400"/>
</filter>
<filter id="filter10_i_1778_1400" x="0" y="0" width="84" height="88" filterUnits="userSpaceOnUse" color-interpolation-filters="sRGB">
<feFlood flood-opacity="0" result="BackgroundImageFix"/>
<feBlend mode="normal" in="SourceGraphic" in2="BackgroundImageFix" result="shape"/>
<feColorMatrix in="SourceAlpha" type="matrix" values="0 0 0 0 0 0 0 0 0 0 0 0 0 0 0 0 0 0 127 0" result="hardAlpha"/>
<feOffset dy="6"/>
<feGaussianBlur stdDeviation="2"/>
<feComposite in2="hardAlpha" operator="arithmetic" k2="-1" k3="1"/>
<feColorMatrix type="matrix" values="0 0 0 0 0.862745 0 0 0 0 0.882353 0 0 0 0 0.65098 0 0 0 0.31 0"/>
<feBlend mode="normal" in2="shape" result="effect1_innerShadow_1778_1400"/>
</filter>
</defs>
</svg>
