<svg width="14" height="13" viewBox="0 0 14 13" fill="none" xmlns="http://www.w3.org/2000/svg">
<path fill-rule="evenodd" clip-rule="evenodd" d="M6.66667 9.33333C7.90434 9.33333 9.09133 8.84167 9.9665 7.9665C10.8417 7.09133 11.3333 5.90434 11.3333 4.66667C11.3333 3.42899 10.8417 2.242 9.9665 1.36683C9.09133 0.491665 7.90434 0 6.66667 0C5.42899 0 4.242 0.491665 3.36683 1.36683C2.49167 2.242 2 3.42899 2 4.66667C2 5.90434 2.49167 7.09133 3.36683 7.9665C4.242 8.84167 5.42899 9.33333 6.66667 9.33333ZM6.66667 2.66667C6.47733 2.66667 6.35067 2.89333 6.09733 3.34867L6.032 3.466C5.96 3.59533 5.924 3.65933 5.868 3.702C5.81133 3.74467 5.74133 3.76067 5.60133 3.792L5.47467 3.82133C4.98267 3.93267 4.73667 3.988 4.678 4.176C4.61933 4.364 4.78733 4.56067 5.12267 4.95267L5.20933 5.054C5.30467 5.16533 5.35267 5.22067 5.374 5.29C5.39533 5.35933 5.388 5.43333 5.374 5.582L5.36067 5.71733C5.31 6.24067 5.28467 6.50267 5.43733 6.61867C5.59067 6.73467 5.82133 6.62867 6.282 6.41667L6.40067 6.362C6.532 6.302 6.59733 6.272 6.66667 6.272C6.736 6.272 6.80133 6.302 6.93267 6.362L7.05133 6.41667C7.512 6.62933 7.74267 6.73467 7.896 6.61867C8.04933 6.50267 8.02333 6.24067 7.97267 5.71733L7.95933 5.582C7.94533 5.43333 7.938 5.35933 7.95933 5.29C7.98067 5.22067 8.02867 5.16533 8.124 5.054L8.21067 4.95267C8.546 4.56067 8.714 4.36467 8.65533 4.176C8.59667 3.988 8.35067 3.93267 7.85867 3.82133L7.732 3.792C7.592 3.76067 7.522 3.74533 7.46533 3.702C7.40933 3.65933 7.37333 3.59533 7.30133 3.466L7.236 3.34867C6.98267 2.89333 6.856 2.66667 6.66667 2.66667Z" fill="#00A8A3"/>
<path d="M1.66355 7.33001L0.661552 8.36668C0.301552 8.74001 0.121552 8.92601 0.058885 9.08401C-0.083115 9.44401 0.0388849 9.84268 0.347552 10.032C0.483552 10.1147 0.727552 10.1407 1.21755 10.192C1.49355 10.2213 1.63222 10.236 1.74755 10.2807C2.00688 10.38 2.20755 10.5887 2.30422 10.8567C2.34688 10.9767 2.36089 11.1193 2.38889 11.4053C2.43889 11.912 2.46422 12.1653 2.54422 12.306C2.72688 12.626 3.11289 12.752 3.46022 12.6047C3.61222 12.5407 3.79222 12.354 4.15289 11.9813L5.80755 10.268C4.93577 10.1345 4.10721 9.79925 3.38779 9.28908C2.66837 8.77892 2.07796 8.10854 1.66355 7.33001ZM7.52688 10.2687L9.18155 11.982C9.54155 12.3553 9.72155 12.5413 9.87355 12.606C10.2209 12.7527 10.6069 12.6267 10.7896 12.3067C10.8696 12.1667 10.8942 11.9133 10.9442 11.4067C10.9729 11.12 10.9869 10.9773 11.0296 10.8573C11.1256 10.5893 11.3269 10.3807 11.5862 10.2813C11.7016 10.2367 11.8396 10.2227 12.1162 10.1933C12.6056 10.1413 12.8502 10.1153 12.9862 10.0327C13.2949 9.84335 13.4169 9.44401 13.2749 9.08468C13.2122 8.92668 13.0322 8.74001 12.6722 8.36735L11.6702 7.33001C11.2558 8.10854 10.6654 8.77958 9.94598 9.28975C9.22656 9.79992 8.398 10.1351 7.52622 10.2687" fill="#00A8A3"/>
</svg>
