<svg width="13" height="13" viewBox="0 0 13 13" fill="none" xmlns="http://www.w3.org/2000/svg">
<path d="M3.26669 7.42V11.9733C3.26669 12.2456 3.15852 12.5068 2.96599 12.6993C2.77345 12.8918 2.51231 13 2.24002 13H1.03336C0.897972 13.0009 0.763751 12.975 0.638419 12.9238C0.513088 12.8726 0.399121 12.7971 0.303079 12.7017C0.207037 12.6062 0.130816 12.4928 0.078805 12.3678C0.0267938 12.2428 1.89345e-05 12.1087 2.17889e-05 11.9733V7.42C-0.000863885 7.28405 0.0252594 7.14928 0.0768755 7.02352C0.128492 6.89775 0.204573 6.78348 0.300704 6.68735C0.396834 6.59122 0.5111 6.51514 0.63687 6.46352C0.76264 6.4119 0.897409 6.38578 1.03336 6.38667H2.24002C2.37541 6.38666 2.50946 6.41344 2.63446 6.46545C2.75945 6.51746 2.87293 6.59368 2.96835 6.68972C3.06377 6.78577 3.13926 6.89973 3.19046 7.02506C3.24166 7.1504 3.26757 7.28462 3.26669 7.42ZM7.73336 1.03333V11.9733C7.73336 12.1087 7.70658 12.2428 7.65457 12.3678C7.60256 12.4928 7.52634 12.6062 7.4303 12.7017C7.33426 12.7971 7.22029 12.8726 7.09496 12.9238C6.96963 12.975 6.83541 13.0009 6.70002 13H5.49336C5.22045 13 4.95862 12.8921 4.76503 12.6997C4.57143 12.5074 4.46178 12.2462 4.46002 11.9733V1.03333C4.46177 0.759816 4.5712 0.497998 4.76461 0.304588C4.95802 0.111178 5.21984 0.00174777 5.49336 0H6.70002C6.97408 0 7.23691 0.108869 7.4307 0.302656C7.62449 0.496444 7.73336 0.759276 7.73336 1.03333ZM12.1934 4.48667V11.9733C12.1934 12.2456 12.0852 12.5068 11.8927 12.6993C11.7001 12.8918 11.439 13 11.1667 13H9.96002C9.82464 13.0009 9.69042 12.975 9.56509 12.9238C9.43976 12.8726 9.32579 12.7971 9.22975 12.7017C9.1337 12.6062 9.05748 12.4928 9.00547 12.3678C8.95346 12.2428 8.92669 12.1087 8.92669 11.9733V4.48667C8.92669 4.35097 8.95342 4.2166 9.00535 4.09123C9.05728 3.96586 9.13339 3.85194 9.22934 3.75599C9.3253 3.66004 9.43921 3.58392 9.56458 3.53199C9.68995 3.48006 9.82432 3.45333 9.96002 3.45333H11.1934C11.4616 3.46199 11.7159 3.57467 11.9026 3.76753C12.0892 3.96038 12.1935 4.21829 12.1934 4.48667Z" fill="#00A8A3"/>
</svg>
