<svg width="19" height="22" viewBox="0 0 19 22" fill="none" xmlns="http://www.w3.org/2000/svg">
<path d="M9.78673 21.4328L9.77551 21.4348L9.70307 21.4705L9.68267 21.4746L9.66839 21.4705L9.59595 21.4348C9.58507 21.4314 9.57691 21.4331 9.57146 21.4399L9.56738 21.4501L9.55004 21.8868L9.55514 21.9072L9.56534 21.9204L9.67145 21.9959L9.68675 22L9.69899 21.9959L9.80509 21.9204L9.81734 21.9041L9.82142 21.8868L9.80407 21.4511C9.80135 21.4402 9.79557 21.4341 9.78673 21.4328ZM10.0571 21.3175L10.0438 21.3195L9.85508 21.4144L9.84488 21.4246L9.84182 21.4358L9.86019 21.8745L9.86529 21.8868L9.87345 21.8939L10.0785 21.9888C10.0914 21.9922 10.1013 21.9895 10.1081 21.9806L10.1122 21.9663L10.0775 21.3399C10.0741 21.3277 10.0673 21.3202 10.0571 21.3175ZM9.32763 21.3195C9.32314 21.3168 9.31776 21.3159 9.31263 21.317C9.3075 21.3182 9.303 21.3213 9.30009 21.3256L9.29396 21.3399L9.25928 21.9663C9.25996 21.9786 9.26574 21.9867 9.27662 21.9908L9.29192 21.9888L9.49699 21.8939L9.50719 21.8857L9.51127 21.8745L9.52862 21.4358L9.52555 21.4236L9.51535 21.4134L9.32763 21.3195Z" fill="#00A8A3"/>
<path d="M10.4062 0.408087C10.053 0.143193 9.62346 0 9.18197 0C8.74048 0 8.3109 0.143193 7.95771 0.408087L0.816175 5.76423C0.562761 5.95429 0.357078 6.20074 0.215415 6.48407C0.0737519 6.76739 0 7.07981 0 7.39658V17.0886C0 17.6298 0.214974 18.1488 0.59763 18.5314C0.980287 18.9141 1.49928 19.1291 2.04044 19.1291H6.01929C6.31693 19.1291 6.60238 19.0108 6.81284 18.8004C7.0233 18.5899 7.14153 18.3045 7.14153 18.0068V13.0078C7.14153 12.4666 7.35651 11.9476 7.73917 11.565C8.12182 11.1823 8.64081 10.9673 9.18197 10.9673C9.72313 10.9673 10.2421 11.1823 10.6248 11.565C11.0074 11.9476 11.2224 12.4666 11.2224 13.0078V18.0068C11.2224 18.3045 11.3406 18.5899 11.5511 18.8004C11.7616 19.0108 12.047 19.1291 12.3447 19.1291H16.3235C16.8647 19.1291 17.3837 18.9141 17.7663 18.5314C18.149 18.1488 18.3639 17.6298 18.3639 17.0886V7.39658C18.3639 7.07981 18.2902 6.76739 18.1485 6.48407C18.0069 6.20074 17.8012 5.95429 17.5478 5.76423L10.4062 0.408087Z" fill="#00A8A3"/>
</svg>
