<svg width="22" height="23" viewBox="0 0 22 23" fill="none" xmlns="http://www.w3.org/2000/svg">
<path d="M11.6522 21.4588L11.6401 21.461L11.562 21.4995L11.54 21.5039L11.5246 21.4995L11.4465 21.461C11.4348 21.4573 11.426 21.4591 11.4201 21.4665L11.4157 21.4775L11.397 21.9483L11.4025 21.9703L11.4135 21.9846L11.5279 22.066L11.5444 22.0704L11.5576 22.066L11.672 21.9846L11.6852 21.967L11.6896 21.9483L11.6709 21.4786C11.668 21.4668 11.6617 21.4602 11.6522 21.4588ZM11.9437 21.3345L11.9294 21.3367L11.7259 21.439L11.7149 21.45L11.7116 21.4621L11.7314 21.9351L11.7369 21.9483L11.7457 21.956L11.9668 22.0583C11.9807 22.0619 11.9914 22.059 11.9987 22.0495L12.0031 22.0341L11.9657 21.3587C11.962 21.3455 11.9547 21.3374 11.9437 21.3345ZM11.1572 21.3367C11.1523 21.3337 11.1466 21.3328 11.141 21.334C11.1355 21.3352 11.1306 21.3386 11.1275 21.3433L11.1209 21.3587L11.0835 22.0341C11.0842 22.0473 11.0905 22.0561 11.1022 22.0605L11.1187 22.0583L11.3398 21.956L11.3508 21.9472L11.3552 21.9351L11.3739 21.4621L11.3706 21.4489L11.3596 21.4379L11.1572 21.3367Z" fill="#00A8A3"/>
<path d="M11 0.0996094C17.0201 0.0996094 21.9004 4.97993 21.9004 11C21.9004 17.0201 17.0201 21.9004 11 21.9004H2.2002C1.64324 21.9004 1.10867 21.679 0.714844 21.2852C0.321017 20.8913 0.0996094 20.3568 0.0996094 19.7998V11C0.0996096 4.97993 4.97993 0.0996096 11 0.0996094ZM11 2.09961C8.63957 2.09961 6.37611 3.03796 4.70703 4.70703C3.03796 6.37611 2.09961 8.63957 2.09961 11V19.9004H11C13.3604 19.9004 15.6239 18.962 17.293 17.293C18.962 15.6239 19.9004 13.3604 19.9004 11C19.9004 8.63957 18.962 6.37611 17.293 4.70703C15.6239 3.03796 13.3604 2.09961 11 2.09961ZM11 13.2998C11.2548 13.3001 11.5002 13.3983 11.6855 13.5732C11.8706 13.7481 11.9821 13.987 11.9971 14.2412C12.012 14.4955 11.9291 14.746 11.7656 14.9414C11.6034 15.1353 11.3737 15.2606 11.123 15.292L10.9941 15.2998H7.7002C7.44534 15.2995 7.19998 15.2023 7.01465 15.0273C6.82931 14.8524 6.71806 14.6128 6.70312 14.3584C6.68824 14.104 6.77102 13.8536 6.93457 13.6582C7.09687 13.4643 7.3264 13.339 7.57715 13.3076L7.70605 13.2998H11ZM7.7002 8.90039H14.2998C14.565 8.90039 14.8193 9.00582 15.0068 9.19336C15.1943 9.38089 15.2998 9.63522 15.2998 9.90039C15.2997 10.1655 15.1943 10.42 15.0068 10.6074C14.8193 10.7948 14.5649 10.9004 14.2998 10.9004H7.7002C7.43512 10.9004 7.18067 10.7948 6.99316 10.6074C6.80572 10.42 6.7003 10.1655 6.7002 9.90039C6.7002 9.63522 6.80569 9.38089 6.99316 9.19336C7.1807 9.00582 7.43498 8.90039 7.7002 8.90039Z" fill="#00A8A3" stroke="#6B7280" stroke-width="0.2"/>
</svg>
