<svg width="28" height="21" viewBox="0 0 28 21" fill="none" xmlns="http://www.w3.org/2000/svg">
<path d="M6 0.5C7.39996 0.5 8.76525 1.49746 9.80859 3.32324C10.8439 5.13496 11.5 7.6714 11.5 10.5C11.5 13.3286 10.8439 15.865 9.80859 17.6768C8.76525 19.5025 7.39996 20.5 6 20.5C4.60004 20.5 3.23475 19.5025 2.19141 17.6768C1.15614 15.865 0.5 13.3286 0.5 10.5C0.5 7.6714 1.15614 5.13496 2.19141 3.32324C3.23475 1.49746 4.60004 0.5 6 0.5Z" fill="white" stroke="#00A8A3"/>
<ellipse cx="9" cy="11.0833" rx="3" ry="7.58333" fill="#00A8A3"/>
<path d="M22 0.5C23.4 0.5 24.7653 1.49746 25.8086 3.32324C26.8439 5.13496 27.5 7.6714 27.5 10.5C27.5 13.3286 26.8439 15.865 25.8086 17.6768C24.7653 19.5025 23.4 20.5 22 20.5C20.6 20.5 19.2347 19.5025 18.1914 17.6768C17.1561 15.865 16.5 13.3286 16.5 10.5C16.5 7.6714 17.1561 5.13496 18.1914 3.32324C19.2347 1.49746 20.6 0.5 22 0.5Z" fill="white" stroke="#00A8A3"/>
<ellipse cx="25" cy="11.0833" rx="3" ry="7.58333" fill="#00A8A3"/>
</svg>
