<svg width="28" height="34" viewBox="0 0 28 34" fill="none" xmlns="http://www.w3.org/2000/svg">
<path fill-rule="evenodd" clip-rule="evenodd" d="M4.66667 9.33333C4.66667 6.85798 5.65 4.48401 7.40034 2.73367C9.15068 0.98333 11.5246 0 14 0C16.4754 0 18.8493 0.98333 20.5997 2.73367C22.35 4.48401 23.3333 6.85798 23.3333 9.33333H24.8889C25.714 9.33333 26.5053 9.66111 27.0888 10.2446C27.6722 10.828 28 11.6193 28 12.4444V28C28 28.8251 27.6722 29.6164 27.0888 30.1999C26.5053 30.7833 25.714 31.1111 24.8889 31.1111H3.11111C2.28599 31.1111 1.49467 30.7833 0.911223 30.1999C0.327777 29.6164 0 28.8251 0 28V12.4444C0 11.6193 0.327777 10.828 0.911223 10.2446C1.49467 9.66111 2.28599 9.33333 3.11111 9.33333H4.66667ZM14 3.11111C15.6502 3.11111 17.2329 3.76666 18.3998 4.93356C19.5667 6.10045 20.2222 7.6831 20.2222 9.33333H7.77778C7.77778 7.6831 8.43333 6.10045 9.60022 4.93356C10.7671 3.76666 12.3498 3.11111 14 3.11111ZM17.1111 18.6667C17.1111 19.2128 16.9673 19.7492 16.6943 20.2222C16.4212 20.6951 16.0285 21.0878 15.5556 21.3609V23.3333C15.5556 23.7459 15.3917 24.1416 15.0999 24.4333C14.8082 24.725 14.4126 24.8889 14 24.8889C13.5874 24.8889 13.1918 24.725 12.9001 24.4333C12.6083 24.1416 12.4444 23.7459 12.4444 23.3333V21.3609C11.8514 21.0184 11.3879 20.4899 11.1258 19.8572C10.8638 19.2244 10.8178 18.5229 10.995 17.8614C11.1723 17.1999 11.5629 16.6154 12.1062 16.1985C12.6495 15.7816 13.3152 15.5556 14 15.5556C14.8251 15.5556 15.6164 15.8833 16.1999 16.4668C16.7833 17.0502 17.1111 17.8415 17.1111 18.6667Z" fill="#00A8A3"/>
</svg>
