<svg width="37" height="27" viewBox="0 0 37 27" fill="none" xmlns="http://www.w3.org/2000/svg">
<g clip-path="url(#clip0_888_932)">
<path d="M11.5978 15.962C9.79432 15.962 7.99081 15.9427 6.20014 15.885C2.72149 15.7823 0.680516 14.627 0.128554 12.4448C-0.160264 11.2896 -0.00622802 9.64009 1.00142 8.55542C1.69459 7.81091 2.65731 7.49642 3.70347 7.68255C4.42231 7.81091 4.90367 8.49766 4.77531 9.21649C4.64694 9.93533 3.9602 10.4167 3.24137 10.2883C3.03598 10.2498 2.99106 10.3012 2.93971 10.3589C2.68299 10.6285 2.57388 11.3024 2.69582 11.7966C2.92046 12.6823 4.12066 13.1701 6.27074 13.2343C11.11 13.3755 16.0649 13.2792 20.8592 13.1829C23.5934 13.1316 26.4238 13.0738 29.2029 13.061H29.6714C30.6919 13.061 31.706 13.0546 32.7264 13.0546H34.0165C34.7482 13.0546 35.3451 13.645 35.3451 14.3767C35.3451 15.1084 34.7546 15.7053 34.0229 15.7053H32.7329C31.7188 15.7053 30.7047 15.7053 29.6842 15.7117H29.2157C26.4559 15.7245 23.6383 15.7823 20.917 15.8336C17.8555 15.8978 14.7235 15.9556 11.5914 15.9556L11.5978 15.962Z" fill="#F89F1E"/>
<path d="M7.70819 26.4878C5.22436 26.4878 3.20264 24.4661 3.20264 21.9822C3.20264 19.4984 5.22436 17.4767 7.70819 17.4767C10.192 17.4767 12.2137 19.4984 12.2137 21.9822C12.2137 24.4661 10.192 26.4878 7.70819 26.4878ZM7.70819 20.121C6.68128 20.121 5.85334 20.9553 5.85334 21.9758C5.85334 22.9963 6.6877 23.8307 7.70819 23.8307C8.72868 23.8307 9.56304 22.9963 9.56304 21.9758C9.56304 20.9553 8.72868 20.121 7.70819 20.121Z" fill="#F89F1E"/>
<path d="M29.2414 26.4878C26.7576 26.4878 24.7358 24.4661 24.7358 21.9822C24.7358 19.4984 26.7576 17.4767 29.2414 17.4767C31.7252 17.4767 33.747 19.4984 33.747 21.9822C33.747 24.4661 31.7252 26.4878 29.2414 26.4878ZM29.2414 20.121C28.2145 20.121 27.3865 20.9553 27.3865 21.9758C27.3865 22.9963 28.2209 23.8307 29.2414 23.8307C30.2619 23.8307 31.0962 22.9963 31.0962 21.9758C31.0962 20.9553 30.2619 20.121 29.2414 20.121Z" fill="#F89F1E"/>
<path d="M36.4614 7.72105C36.4614 6.70698 35.1778 5.88545 33.5668 5.84053C33.5668 5.84053 33.5668 5.84053 33.5668 5.83411C33.5668 4.17822 32.2254 2.83682 30.5695 2.83682C30.0946 2.83682 29.6453 2.95877 29.2474 3.15773C28.7339 2.24635 27.7712 1.63021 26.648 1.63021C25.9356 1.63021 25.2874 1.89335 24.7675 2.31053C24.1578 0.956298 22.7971 0.00640869 21.2183 0.00640869C19.2864 0.00640869 17.6819 1.41841 17.3802 3.26684C16.7897 2.76622 16.0388 2.45173 15.2044 2.45173C13.6641 2.45173 12.3869 3.48506 11.9761 4.89064C11.6424 4.76227 11.2829 4.68525 10.8978 4.68525C9.66556 4.68525 8.61298 5.42976 8.15087 6.48876C7.00202 6.68772 6.1099 7.67612 6.0778 8.88274C6.0778 8.99185 6.09064 9.09454 6.10348 9.19723C5.94302 9.44754 5.84033 9.74919 5.84033 10.0701C5.84033 10.7889 6.31528 11.3987 6.96993 11.604C7.95833 12.0597 10.2111 11.604 14.6204 11.3987C15.0247 11.3794 15.4227 11.3602 15.827 11.3409C16.4046 11.3152 16.9887 11.2831 17.5663 11.2575C18.1119 11.2318 18.6574 11.1997 19.203 11.1676C19.7164 11.1419 20.2299 11.1098 20.7433 11.0778C21.2247 11.0521 21.706 11.02 22.1874 10.9879C22.6367 10.9622 23.086 10.9301 23.5352 10.898C23.9524 10.866 24.376 10.8403 24.7932 10.8082C25.1847 10.7761 25.5762 10.7504 25.9677 10.7183C26.3335 10.6862 26.693 10.6606 27.0588 10.6285C27.3925 10.5964 27.7327 10.5707 28.0665 10.5322C28.3745 10.5001 28.689 10.468 28.9971 10.4359C29.2795 10.4038 29.5683 10.3718 29.8507 10.3397C30.1138 10.3076 30.3706 10.2755 30.6337 10.2434C30.8712 10.2113 31.1087 10.1792 31.3461 10.1471C31.5644 10.115 31.7826 10.0829 31.9944 10.0508C32.1933 10.0188 32.3859 9.98666 32.5848 9.95457C32.7646 9.92248 32.9378 9.89039 33.1111 9.8583C33.2716 9.82621 33.4256 9.79412 33.5861 9.76203C33.7273 9.72994 33.8685 9.69784 34.0033 9.65934C34.1252 9.62724 34.2536 9.59515 34.3755 9.55665C34.4846 9.52455 34.5937 9.49246 34.6964 9.45395C34.7927 9.42186 34.8826 9.38977 34.9788 9.35126C35.0623 9.31917 35.1393 9.28708 35.2163 9.24857C35.2869 9.21648 35.3511 9.18439 35.4217 9.14588C35.4794 9.11379 35.5372 9.0817 35.5885 9.04319C35.6335 9.0111 35.6848 8.97901 35.7233 8.9405C35.7426 8.92766 35.7554 8.90841 35.7747 8.89557C36.1919 8.56825 36.455 8.1639 36.455 7.71463L36.4614 7.72105Z" fill="#F89F1E"/>
<path d="M15.8914 5.07032C15.3074 5.07032 14.7811 5.30779 14.396 5.69288C14.6206 5.59661 14.8645 5.54527 15.1212 5.54527C16.1353 5.54527 16.9504 6.36679 16.9504 7.37444C16.9504 8.3115 16.2508 9.07526 15.3459 9.19079C15.5192 9.23571 15.6989 9.26139 15.885 9.26139C17.0467 9.26139 17.9838 8.32433 17.9838 7.16265C17.9838 6.00096 17.0467 5.0639 15.885 5.0639L15.8914 5.07032Z" fill="white"/>
<path d="M16.9502 7.37447C16.9502 6.3604 16.1287 5.54529 15.121 5.54529C14.8643 5.54529 14.6204 5.59663 14.3958 5.69291C14.0235 6.07158 13.7925 6.59145 13.7925 7.16267C13.7925 8.13181 14.4536 8.94692 15.3521 9.19081C16.2571 9.0817 16.9566 8.31152 16.9566 7.37447H16.9502Z" fill="black"/>
<path d="M25.6278 4.5312C25.0437 4.5312 24.5174 4.76867 24.1323 5.15376C24.357 5.05749 24.6009 5.00614 24.8576 5.00614C25.8716 5.00614 26.6868 5.82767 26.6868 6.83532C26.6868 7.77237 25.9872 8.53614 25.0822 8.65166C25.2555 8.69659 25.4352 8.72226 25.6213 8.72226C26.783 8.72226 27.7201 7.78521 27.7201 6.62352C27.7201 5.46183 26.783 4.52478 25.6213 4.52478L25.6278 4.5312Z" fill="white"/>
<path d="M26.6865 6.83534C26.6865 5.82127 25.865 5.00616 24.8574 5.00616C24.6006 5.00616 24.3568 5.05751 24.1321 5.15378C23.7599 5.53245 23.5288 6.05233 23.5288 6.62354C23.5288 7.59269 24.1899 8.40779 25.0884 8.65168C25.9934 8.54258 26.693 7.7724 26.693 6.83534H26.6865Z" fill="black"/>
</g>
<defs>
<clipPath id="clip0_888_932">
<rect width="36.4616" height="26.4878" fill="white"/>
</clipPath>
</defs>
</svg>
