<svg width="67" height="49" viewBox="0 0 67 49" fill="none" xmlns="http://www.w3.org/2000/svg">
<path d="M21.2196 29.189C17.9256 29.189 14.6238 29.1503 11.3452 29.0572C4.98191 28.8712 1.24608 26.7475 0.238489 22.7637C-0.296308 20.6478 -0.00178231 17.625 1.84288 15.6486C3.11399 14.2844 4.8734 13.7186 6.78782 14.0519C8.10543 14.2844 8.98901 15.5478 8.75649 16.8654C8.52397 18.183 7.26061 19.0589 5.94299 18.8341C5.57096 18.7643 5.4857 18.8573 5.3927 18.9581C4.92765 19.4542 4.71839 20.6865 4.95091 21.5856C5.36169 23.2132 7.56289 24.0968 11.4925 24.2131C20.3438 24.4766 29.4121 24.2983 38.1781 24.1201C43.185 24.0193 48.3547 23.9185 53.4392 23.8953H54.2995C56.1674 23.8875 58.0276 23.8798 59.8878 23.8798H62.244C63.5848 23.8798 64.6699 24.9649 64.6699 26.3058C64.6699 27.6466 63.5848 28.7317 62.244 28.7317H59.8878C58.0276 28.7317 56.1752 28.7317 54.315 28.7472H53.4624C48.4167 28.7705 43.2625 28.8712 38.2788 28.972C32.6751 29.0805 26.9473 29.1968 21.2196 29.1968V29.189Z" fill="#E6F6F5"/>
<path d="M14.1046 48.4495C9.55499 48.4495 5.85791 44.7524 5.85791 40.2028C5.85791 35.6531 9.55499 31.9561 14.1046 31.9561C18.6543 31.9561 22.3514 35.6531 22.3514 40.2028C22.3514 44.7524 18.6543 48.4495 14.1046 48.4495ZM14.1046 36.808C12.229 36.808 10.7098 38.3349 10.7098 40.2028C10.7098 42.0707 12.2367 43.5976 14.1046 43.5976C15.9726 43.5976 17.4994 42.0707 17.4994 40.2028C17.4994 38.3349 15.9726 36.808 14.1046 36.808Z" fill="#E6F6F5"/>
<path d="M53.5011 48.4495C48.9515 48.4495 45.2544 44.7524 45.2544 40.2028C45.2544 35.6531 48.9515 31.9561 53.5011 31.9561C58.0508 31.9561 61.7478 35.6531 61.7478 40.2028C61.7478 44.7524 58.0508 48.4495 53.5011 48.4495ZM53.5011 36.808C51.6255 36.808 50.1063 38.3349 50.1063 40.2028C50.1063 42.0707 51.6332 43.5976 53.5011 43.5976C55.369 43.5976 56.8959 42.0707 56.8959 40.2028C56.8959 38.3349 55.369 36.808 53.5011 36.808Z" fill="#E6F6F5"/>
<path d="M66.7086 14.114C66.7086 12.2538 64.3602 10.7579 61.4149 10.6727C61.4149 10.6727 61.4149 10.6649 61.4149 10.6572C61.4149 7.62667 58.958 5.17746 55.9352 5.17746C55.0594 5.17746 54.2456 5.40222 53.517 5.76651C52.5792 4.10011 50.812 2.96851 48.7658 2.96851C47.4559 2.96851 46.2701 3.44905 45.3323 4.20862C44.2162 1.7284 41.7359 0 38.8372 0C35.2951 0 32.3654 2.58873 31.8151 5.96803C30.7377 5.05345 29.3581 4.47989 27.8312 4.47989C25.0177 4.47989 22.6693 6.37106 21.9252 8.93654C21.3129 8.69627 20.6541 8.55675 19.9565 8.55675C17.7088 8.55675 15.7789 9.91312 14.9341 11.8585C12.8259 12.2228 11.206 14.0287 11.144 16.2454C11.144 16.4392 11.1673 16.633 11.1905 16.819C10.8882 17.284 10.71 17.8266 10.71 18.4156C10.71 19.7332 11.5858 20.8416 12.7794 21.2214C14.5853 22.0584 18.7087 21.2214 26.7694 20.8493C27.5057 20.8183 28.242 20.7796 28.9783 20.7486C30.0402 20.6943 31.102 20.6478 32.1639 20.5936C33.1637 20.5393 34.1635 20.4928 35.1634 20.4308C36.1012 20.3765 37.039 20.3223 37.9769 20.268C38.8527 20.2138 39.7363 20.1595 40.6121 20.1053C41.4337 20.051 42.2552 19.9968 43.0768 19.9425C43.8441 19.8883 44.6115 19.834 45.3788 19.7797C46.0918 19.7255 46.8049 19.6712 47.5257 19.6092C48.1923 19.555 48.8511 19.5007 49.5176 19.4387C50.1299 19.3845 50.75 19.3302 51.3623 19.2682C51.9281 19.2139 52.4939 19.1597 53.0597 19.0977C53.579 19.0434 54.106 18.9814 54.6253 18.9272C55.1059 18.8729 55.5787 18.8109 56.0592 18.7489C56.4932 18.6946 56.935 18.6326 57.3691 18.5706C57.7644 18.5164 58.1596 18.4544 58.5549 18.3924C58.9115 18.3381 59.2757 18.2761 59.6323 18.2141C59.9578 18.1598 60.2756 18.0978 60.6011 18.0358C60.8879 17.9816 61.1747 17.9196 61.4692 17.8576C61.725 17.8033 61.9807 17.7413 62.2365 17.6716C62.4613 17.6173 62.686 17.5553 62.9108 17.4855C63.1123 17.4313 63.3061 17.3693 63.4999 17.2995C63.6704 17.2453 63.8409 17.1833 64.0114 17.1135C64.1587 17.0593 64.3059 16.9972 64.4532 16.9275C64.5772 16.8655 64.7012 16.8035 64.8252 16.7415C64.9337 16.6795 65.0345 16.6175 65.1353 16.5555C65.2205 16.4935 65.3058 16.4314 65.3833 16.3694C65.4143 16.3462 65.4453 16.3152 65.4763 16.2842C66.2436 15.6874 66.7164 14.9511 66.7164 14.1295L66.7086 14.114Z" fill="#E6F6F5"/>
<path d="M29.0714 9.26208C28.0018 9.26208 27.033 9.70387 26.3354 10.4092C26.7385 10.2309 27.188 10.1379 27.6608 10.1379C29.5132 10.1379 31.0091 11.6415 31.0091 13.4862C31.0091 15.1991 29.7302 16.602 28.0716 16.8112C28.3894 16.8965 28.7227 16.943 29.0637 16.943C31.1874 16.943 32.9003 15.2224 32.9003 13.1064C32.9003 10.9905 31.1796 9.26983 29.0637 9.26983L29.0714 9.26208Z" fill="white"/>
<path d="M31.0169 13.4862C31.0169 11.6338 29.5132 10.1379 27.6686 10.1379C27.1958 10.1379 26.7462 10.2387 26.3432 10.4092C25.6612 11.099 25.2349 12.0524 25.2349 13.1064C25.2349 14.8814 26.444 16.3772 28.0794 16.8113C29.7303 16.6098 31.0169 15.1991 31.0169 13.4862Z" fill="#00A8A3"/>
<path d="M46.8903 8.27771C45.8207 8.27771 44.8519 8.7195 44.1543 9.42481C44.5573 9.24655 45.0069 9.15354 45.4797 9.15354C47.3321 9.15354 48.828 10.6572 48.828 12.5018C48.828 14.2147 47.5491 15.6176 45.8904 15.8269C46.2082 15.9121 46.5415 15.9586 46.8825 15.9586C49.0062 15.9586 50.7191 14.238 50.7191 12.122C50.7191 10.0061 48.9985 8.28546 46.8825 8.28546L46.8903 8.27771Z" fill="white"/>
<path d="M48.8279 12.5019C48.8279 10.6494 47.3243 9.15356 45.4796 9.15356C45.0068 9.15356 44.5573 9.25432 44.1542 9.42484C43.4722 10.1146 43.0459 11.068 43.0459 12.1221C43.0459 13.897 44.255 15.3929 45.8904 15.8269C47.5413 15.6254 48.8279 14.2148 48.8279 12.5019Z" fill="#00A8A3"/>
</svg>
