<svg width="24" height="18" viewBox="0 0 24 18" fill="none" xmlns="http://www.w3.org/2000/svg">
<path d="M7.63326 10.5002C6.44831 10.5002 5.26056 10.4862 4.08118 10.4528C1.79213 10.3858 0.448248 9.62189 0.085791 8.18878C-0.10659 7.42761 -0.000641144 6.34023 0.662934 5.62926C1.12019 5.13854 1.75309 4.93501 2.44176 5.0549C2.91574 5.13854 3.23359 5.59301 3.14995 6.067C3.0663 6.54098 2.61184 6.85604 2.13786 6.77519C2.00403 6.75009 1.97336 6.78355 1.9399 6.8198C1.77261 6.99824 1.69733 7.44155 1.78097 7.76498C1.92875 8.35049 2.72057 8.66834 4.13416 8.71016C7.3182 8.80496 10.5803 8.74083 13.7337 8.6767C15.5348 8.64046 17.3945 8.60421 19.2235 8.59585H19.533C20.2049 8.59306 20.8741 8.59027 21.5432 8.59027H22.3908C22.8732 8.59027 23.2635 8.98061 23.2635 9.46296C23.2635 9.94531 22.8732 10.3357 22.3908 10.3357H21.5432C20.8741 10.3357 20.2077 10.3357 19.5386 10.3412H19.2319C17.4168 10.3496 15.5627 10.3858 13.7699 10.4221C11.7541 10.4611 9.69369 10.5029 7.63326 10.5029V10.5002Z" fill="#E6F6F5"/>
<path d="M5.07399 17.4287C3.43736 17.4287 2.10742 16.0988 2.10742 14.4621C2.10742 12.8255 3.43736 11.4955 5.07399 11.4955C6.71063 11.4955 8.04056 12.8255 8.04056 14.4621C8.04056 16.0988 6.71063 17.4287 5.07399 17.4287ZM5.07399 13.2409C4.39927 13.2409 3.85279 13.7902 3.85279 14.4621C3.85279 15.1341 4.40205 15.6833 5.07399 15.6833C5.74593 15.6833 6.29519 15.1341 6.29519 14.4621C6.29519 13.7902 5.74593 13.2409 5.07399 13.2409Z" fill="#E6F6F5"/>
<path d="M19.2459 17.4287C17.6092 17.4287 16.2793 16.0988 16.2793 14.4621C16.2793 12.8255 17.6092 11.4955 19.2459 11.4955C20.8825 11.4955 22.2124 12.8255 22.2124 14.4621C22.2124 16.0988 20.8825 17.4287 19.2459 17.4287ZM19.2459 13.2409C18.5711 13.2409 18.0247 13.7902 18.0247 14.4621C18.0247 15.1341 18.5739 15.6833 19.2459 15.6833C19.9178 15.6833 20.4671 15.1341 20.4671 14.4621C20.4671 13.7902 19.9178 13.2409 19.2459 13.2409Z" fill="#E6F6F5"/>
<path d="M23.9968 5.07722C23.9968 4.40806 23.152 3.86995 22.0925 3.83928C22.0925 3.83928 22.0925 3.83649 22.0925 3.8337C22.0925 2.74354 21.2087 1.86248 20.1213 1.86248C19.8062 1.86248 19.5135 1.94334 19.2514 2.07438C18.914 1.47493 18.2783 1.06786 17.5423 1.06786C17.0711 1.06786 16.6445 1.24073 16.3071 1.51396C15.9056 0.621757 15.0134 0 13.9707 0C12.6965 0 11.6426 0.931242 11.4446 2.14687C11.0571 1.81787 10.5608 1.61155 10.0115 1.61155C8.99943 1.61155 8.15462 2.29186 7.88696 3.21474C7.6667 3.1283 7.42971 3.07812 7.17878 3.07812C6.37022 3.07812 5.67598 3.56604 5.37207 4.26587C4.6137 4.39691 4.03098 5.04655 4.00867 5.84396C4.00867 5.91366 4.01704 5.98337 4.0254 6.05028C3.91667 6.21757 3.85254 6.41274 3.85254 6.62464C3.85254 7.09863 4.1676 7.49733 4.59697 7.63395C5.2466 7.93507 6.72989 7.63395 9.62955 7.50012C9.89442 7.48897 10.1593 7.47503 10.4242 7.46387C10.8061 7.44436 11.1881 7.42763 11.5701 7.40811C11.9298 7.38859 12.2894 7.37187 12.6491 7.34956C12.9865 7.33004 13.3238 7.31053 13.6612 7.29101C13.9762 7.27149 14.2941 7.25197 14.6091 7.23246C14.9047 7.21294 15.2002 7.19342 15.4958 7.17391C15.7718 7.15439 16.0478 7.13487 16.3238 7.11536C16.5804 7.09584 16.8369 7.07632 17.0962 7.05402C17.3359 7.0345 17.5729 7.01498 17.8127 6.99268C18.033 6.97316 18.256 6.95364 18.4763 6.93134C18.6798 6.91182 18.8833 6.8923 19.0869 6.87C19.2737 6.85048 19.4633 6.82818 19.6501 6.80866C19.823 6.78914 19.993 6.76684 20.1659 6.74453C20.322 6.72501 20.4809 6.70271 20.6371 6.6804C20.7793 6.66089 20.9215 6.63858 21.0637 6.61628C21.1919 6.59676 21.323 6.57445 21.4512 6.55215C21.5683 6.53263 21.6826 6.51033 21.7997 6.48802C21.9029 6.46851 22.0061 6.4462 22.112 6.4239C22.204 6.40438 22.296 6.38207 22.388 6.35698C22.4689 6.33746 22.5497 6.31516 22.6306 6.29006C22.7031 6.27055 22.7728 6.24824 22.8425 6.22315C22.9038 6.20363 22.9652 6.18133 23.0265 6.15623C23.0795 6.13672 23.1325 6.11441 23.1854 6.08932C23.23 6.06701 23.2747 6.04471 23.3193 6.0224C23.3583 6.0001 23.3945 5.97779 23.4308 5.95549C23.4615 5.93318 23.4921 5.91088 23.52 5.88857C23.5312 5.88021 23.5423 5.86905 23.5535 5.8579C23.8295 5.64321 23.9996 5.37834 23.9996 5.0828L23.9968 5.07722Z" fill="#E6F6F5"/>
<path d="M10.4574 3.33179C10.0726 3.33179 9.72408 3.49071 9.47314 3.74443C9.61813 3.68031 9.77984 3.64685 9.94991 3.64685C10.6163 3.64685 11.1544 4.18775 11.1544 4.85133C11.1544 5.46751 10.6943 5.97216 10.0977 6.04744C10.212 6.07811 10.3319 6.09484 10.4546 6.09484C11.2185 6.09484 11.8347 5.47587 11.8347 4.71471C11.8347 3.95354 11.2157 3.33457 10.4546 3.33457L10.4574 3.33179Z" fill="white"/>
<path d="M11.1576 4.85142C11.1576 4.18505 10.6167 3.64694 9.95311 3.64694C9.78303 3.64694 9.62132 3.68319 9.47634 3.74453C9.23098 3.99267 9.07764 4.33561 9.07764 4.7148C9.07764 5.35329 9.51259 5.8914 10.1009 6.04754C10.6948 5.97505 11.1576 5.4676 11.1576 4.85142Z" fill="#007F7B"/>
<path d="M16.867 2.97769C16.4823 2.97769 16.1337 3.13662 15.8828 3.39034C16.0278 3.32621 16.1895 3.29275 16.3596 3.29275C17.0259 3.29275 17.5641 3.83365 17.5641 4.49723C17.5641 5.11341 17.104 5.61807 16.5074 5.69335C16.6217 5.72402 16.7416 5.74075 16.8642 5.74075C17.6282 5.74075 18.2444 5.12178 18.2444 4.36061C18.2444 3.59945 17.6254 2.98048 16.8642 2.98048L16.867 2.97769Z" fill="white"/>
<path d="M17.5648 4.49727C17.5648 3.8309 17.0239 3.29279 16.3603 3.29279C16.1903 3.29279 16.0285 3.32903 15.8836 3.39037C15.6382 3.63852 15.4849 3.98146 15.4849 4.36065C15.4849 4.99913 15.9198 5.53724 16.5081 5.69338C17.102 5.62089 17.5648 5.11345 17.5648 4.49727Z" fill="#007F7B"/>
</svg>
