<svg width="22" height="22" viewBox="0 0 22 22" fill="none" xmlns="http://www.w3.org/2000/svg">
<path d="M18.3379 11.9194V18.3361C18.3379 18.5792 18.2413 18.8124 18.0694 18.9843C17.8975 19.1562 17.6643 19.2528 17.4212 19.2528H4.58789C4.34478 19.2528 4.11162 19.1562 3.93971 18.9843C3.7678 18.8124 3.67122 18.5792 3.67122 18.3361V11.9194H18.3379ZM13.2962 1.83608C13.8375 1.83597 14.3701 1.97282 14.8442 2.23389C15.3184 2.49496 15.7189 2.87176 16.0082 3.32921C16.2976 3.78667 16.4666 4.30991 16.4993 4.85022C16.5321 5.39053 16.4276 5.93035 16.1956 6.41942H19.2546C19.4977 6.41942 19.7308 6.516 19.9027 6.6879C20.0746 6.85981 20.1712 7.09297 20.1712 7.33609V10.0861C20.1712 10.3292 20.0746 10.5624 19.9027 10.7343C19.7308 10.9062 19.4977 11.0028 19.2546 11.0028H2.75456C2.51144 11.0028 2.27828 10.9062 2.10638 10.7343C1.93447 10.5624 1.83789 10.3292 1.83789 10.0861V7.33609C1.83789 7.09297 1.93447 6.85981 2.10638 6.6879C2.27828 6.516 2.51144 6.41942 2.75456 6.41942H5.81347C5.48692 5.73345 5.41438 4.95386 5.60878 4.21942C5.80318 3.48498 6.2519 2.84336 6.87506 2.40877C7.49822 1.97419 8.25538 1.77485 9.01175 1.84623C9.76812 1.91761 10.4746 2.25509 11.0055 2.79858C11.3035 2.49307 11.6598 2.25046 12.0533 2.08513C12.4468 1.9198 12.8694 1.83511 13.2962 1.83608ZM8.71289 3.66942C8.3597 3.66936 8.02002 3.80521 7.76429 4.04882C7.50855 4.29243 7.35636 4.6251 7.33927 4.97788C7.32218 5.33066 7.44149 5.67649 7.67249 5.94368C7.90348 6.21087 8.22843 6.37892 8.57997 6.413L8.71289 6.41942H10.0879V5.04442C10.0879 4.70261 9.96055 4.37306 9.73074 4.12003C9.50093 3.86701 9.18512 3.70865 8.84489 3.67583L8.71289 3.66942ZM13.2962 3.66942L13.1633 3.67583C12.846 3.70664 12.5493 3.84673 12.3239 4.07213C12.0985 4.29752 11.9584 4.59423 11.9276 4.9115L11.9212 5.04442V6.41942H13.2962L13.4282 6.413C13.7683 6.38003 14.084 6.2216 14.3136 5.96859C14.5433 5.71558 14.6705 5.38612 14.6705 5.04442C14.6705 4.70272 14.5433 4.37326 14.3136 4.12025C14.084 3.86724 13.7683 3.70881 13.4282 3.67583L13.2962 3.66942Z" fill="black"/>
</svg>
