<svg width="23" height="23" viewBox="0 0 23 23" fill="none" xmlns="http://www.w3.org/2000/svg">
<circle cx="11.5" cy="11.5" r="11.5" fill="#722B86"/>
<path d="M12.7144 6.59197H14.2742C14.4008 6.59197 14.5004 6.48792 14.5004 6.3658V5.22617C14.5004 5.0996 14.3963 5 14.2742 5H12.7144C12.5878 5 12.4882 5.10405 12.4882 5.22617V6.3658C12.4837 6.48792 12.5877 6.59197 12.7144 6.59197ZM9.02944 6.59197H10.5893C10.7159 6.59197 10.8154 6.48792 10.8154 6.3658V5.22617C10.8154 5.0996 10.7114 5 10.5893 5H9.02944C8.9029 5 8.80332 5.10405 8.80332 5.22617V6.3658C8.80332 6.48792 8.90277 6.59197 9.02944 6.59197ZM15.9473 11.1007H18V9.64006C18 9.64006 17.9186 7.6231 16.0241 7.596H7.36999V6.40664H5.30814V7.5553C5.30814 7.5553 5.36244 9.63103 7.2704 9.65825L8.7986 9.69896L8.77597 16.7629C8.77597 16.7629 8.75333 16.8804 8.89348 16.9574L10.485 17.5227C10.485 17.5227 10.8377 17.6675 10.8513 17.3101V9.66741H12.4428V16.6906C12.4428 16.6906 12.3976 16.8986 12.6283 16.9982L14.0887 17.5138C14.0887 17.5138 14.5454 17.6856 14.5408 17.2289V9.65393H15.9379L15.9469 11.1011L15.9473 11.1007Z" fill="#F6B133"/>
</svg>
