<svg width="14" height="13" viewBox="0 0 14 13" fill="none" xmlns="http://www.w3.org/2000/svg">
<path d="M11.5 0C12.163 0 12.7989 0.264978 13.2678 0.736643C13.7366 1.20831 14 1.84802 14 2.51505V7.54516C14 7.87545 13.9353 8.20249 13.8097 8.50764C13.6841 8.81278 13.4999 9.09003 13.2678 9.32358C12.7989 9.79524 12.163 10.0602 11.5 10.0602H11V12.0139C11 12.2033 10.9458 12.3887 10.8439 12.5479C10.742 12.7071 10.5966 12.8334 10.4252 12.9118C10.2538 12.9901 10.0636 13.0171 9.87739 12.9895C9.69115 12.9619 9.51673 12.881 9.375 12.7564L6.312 10.0602H2.5C2.1717 10.0602 1.84661 9.99517 1.54329 9.86877C1.23998 9.74238 0.96438 9.55712 0.732233 9.32358C0.500087 9.09003 0.315938 8.81278 0.190301 8.50764C0.0646642 8.20249 0 7.87545 0 7.54516V2.51505C0 1.84802 0.263392 1.20831 0.732233 0.736643C1.20107 0.264978 1.83696 0 2.5 0H11.5Z" fill="#DADADA"/>
</svg>
