<svg width="16" height="16" viewBox="0 0 16 16" fill="none" xmlns="http://www.w3.org/2000/svg">
<path d="M9.00621 2.09265C8.57154 1.30265 7.42754 1.30265 6.99221 2.09265C6.41973 3.13291 5.94782 4.22542 5.58288 5.35532C5.56567 5.39953 5.53539 5.43744 5.49609 5.464C5.45678 5.49056 5.41031 5.50451 5.36288 5.50399C4.38485 5.52941 3.41001 5.62656 2.44621 5.79465C1.55488 5.94999 1.16221 7.01932 1.83954 7.68132C1.92488 7.76488 2.0111 7.84799 2.09821 7.93065C2.75075 8.54854 3.44168 9.12458 4.16688 9.65532C4.19982 9.67719 4.22478 9.70916 4.23801 9.74642C4.25123 9.78369 4.252 9.82424 4.24021 9.86199C3.8741 10.9605 3.6125 12.091 3.45888 13.2387C3.33221 14.188 4.33754 14.7707 5.12221 14.368C6.0748 13.8798 6.98564 13.3141 7.84554 12.6767C7.89058 12.6448 7.94438 12.6277 7.99954 12.6277C8.05471 12.6277 8.10851 12.6448 8.15354 12.6767C9.01293 13.3149 9.92384 13.8806 10.8769 14.368C11.6615 14.7707 12.6669 14.188 12.5402 13.2387C12.3868 12.091 12.1254 10.9605 11.7595 9.86199C11.7478 9.82424 11.7485 9.78369 11.7617 9.74642C11.775 9.70916 11.7999 9.67719 11.8329 9.65532C12.6545 9.05391 13.4321 8.39445 14.1595 7.68199C14.8369 7.01932 14.4442 5.94999 13.5529 5.79465C12.5889 5.62652 11.6138 5.52937 10.6355 5.50399C10.5882 5.50437 10.5419 5.49036 10.5027 5.46381C10.4636 5.43725 10.4334 5.39942 10.4162 5.35532C10.0524 4.22498 9.57979 3.13237 9.00621 2.09265Z" fill="#00A8A3"/>
</svg>
