<svg width="118" height="38" viewBox="0 0 118 38" fill="none" xmlns="http://www.w3.org/2000/svg">
<path d="M12.7111 8.49475C10.4479 8.49475 8.34749 9.24657 6.65784 10.5177C6.56483 10.4014 6.47182 10.2929 6.36331 10.1844C5.689 9.5101 4.75892 9.09156 3.72808 9.09156C1.67415 9.09156 0 10.758 0 12.8196V33.8085C0 35.8702 1.67415 37.5366 3.72808 37.5366C5.78201 37.5366 7.45616 35.8702 7.45616 33.8085V27.6079C8.99079 28.5458 10.789 29.0883 12.7111 29.0883C18.3226 29.0883 22.8723 24.4767 22.8723 18.7954C22.8723 13.1142 18.3226 8.49475 12.7111 8.49475ZM11.2617 22.8645C9.61085 22.8645 8.18472 21.9267 7.45616 20.5471C7.13063 19.9425 6.95236 19.245 6.95236 18.5009C6.95236 17.7568 7.13063 17.0593 7.45616 16.4469C8.18472 15.0673 9.61085 14.1295 11.2617 14.1295C13.649 14.1295 15.5789 16.0904 15.5789 18.5009C15.5789 20.9113 13.649 22.8645 11.2617 22.8645Z" fill="#00A8A3"/>
<path d="M29.4216 10.0216H27.8172C26.0836 10.0216 24.6782 11.427 24.6782 13.1606V25.9725C24.6782 27.7062 26.0836 29.1115 27.8172 29.1115H29.4216C31.1553 29.1115 32.5607 27.7062 32.5607 25.9725V13.1606C32.5607 11.427 31.1553 10.0216 29.4216 10.0216Z" fill="#00A8A3"/>
<path d="M28.6158 9.64184C31.2784 9.64184 33.4368 7.48344 33.4368 4.82091C33.4368 2.15839 31.2784 0 28.6158 0C25.9533 0 23.7949 2.15839 23.7949 4.82091C23.7949 7.48344 25.9533 9.64184 28.6158 9.64184Z" fill="#00A8A3"/>
<path d="M55.3631 14.6488C54.2625 11.7345 51.604 9.46359 48.2945 8.66527C47.6435 8.55676 46.9769 8.49475 46.2871 8.49475C43.9464 8.49475 41.7839 9.17681 39.9858 10.3394C37.8156 11.75 36.1957 13.8582 35.4826 16.3384C35.2191 17.2453 35.0796 18.1909 35.0796 19.1752C35.0796 25.0657 40.0943 29.8479 46.2871 29.8479C49.4106 29.8479 52.2319 28.631 54.2625 26.6701C54.4408 26.4996 54.6191 26.3213 54.7818 26.1431C54.9833 25.9183 55.1616 25.7013 55.2701 25.4222C55.3864 25.12 55.4484 24.8022 55.4484 24.4844C55.4484 23.7016 55.1074 22.9885 54.5493 22.508C54.5261 22.4847 54.4951 22.4615 54.464 22.4382C54.03 22.0817 53.4565 21.8724 52.8442 21.8724C52.6581 21.8724 52.4644 21.8957 52.2784 21.9344C52.1233 21.9732 51.9761 22.0275 51.8443 22.1127C51.7048 22.198 51.5808 22.3142 51.4413 22.4072C51.263 22.539 51.077 22.663 50.8832 22.7715C49.8214 23.4071 48.6355 23.7558 47.3722 23.7558C45.0935 23.7558 43.0318 22.5933 41.5747 20.7331C42.4582 20.9036 43.3651 20.9889 44.2642 21.0509C44.3107 21.0509 44.3494 21.0586 44.3959 21.0586C45.5585 21.1361 46.7134 21.1904 47.876 21.2214C48.093 21.2291 48.3023 21.2369 48.5115 21.2369H48.9688C49.5501 21.2291 50.1314 21.2136 50.7127 21.1749C51.4335 21.1361 52.1621 21.0741 52.8829 20.9811C52.9139 20.9734 52.9527 20.9733 52.9837 20.9656C53.1464 20.9268 53.3247 20.9113 53.4875 20.8803C53.6502 20.8493 53.8285 20.8028 53.999 20.7563C54.5571 20.5936 55.1229 20.33 55.4174 19.7952C55.4871 19.6635 55.5491 19.5317 55.6034 19.3922C55.7274 19.0822 55.8049 18.7567 55.8514 18.4234C55.8514 18.3924 55.8592 18.3536 55.8669 18.3226C55.8669 18.3149 55.8669 18.2994 55.8669 18.2916C55.8824 18.2451 55.8824 18.1909 55.8824 18.1444C55.8902 18.0358 55.8979 17.9273 55.8979 17.8111V17.6638C55.8979 16.6097 55.7042 15.6021 55.3476 14.6565L55.3631 14.6488ZM42.156 16.4857C42.156 15.0363 43.6829 13.8582 45.5663 13.8582C47.4497 13.8582 48.9688 15.0363 48.9688 16.4857H42.156Z" fill="#00A8A3"/>
<path d="M73.8332 8.49475C71.57 8.49475 69.4696 9.24657 67.7799 10.5177C67.6869 10.4014 67.5939 10.2929 67.4854 10.1844C66.8111 9.5101 65.881 9.09156 64.8501 9.09156C62.7962 9.09156 61.1221 10.758 61.1221 12.8196V33.8085C61.1221 35.8702 62.7962 37.5366 64.8501 37.5366C66.9041 37.5366 68.5782 35.8702 68.5782 33.8085V27.6079C70.1129 28.5458 71.911 29.0883 73.8332 29.0883C79.4447 29.0883 83.9943 24.4767 83.9943 18.7954C83.9943 13.1142 79.4447 8.49475 73.8332 8.49475ZM72.3838 22.8645C70.7329 22.8645 69.3068 21.9267 68.5782 20.5471C68.2527 19.9425 68.0744 19.245 68.0744 18.5009C68.0744 17.7568 68.2527 17.0593 68.5782 16.4469C69.3068 15.0673 70.7329 14.1295 72.3838 14.1295C74.771 14.1295 76.7009 16.0904 76.7009 18.5009C76.7009 20.9113 74.771 22.8645 72.3838 22.8645Z" fill="#00A8A3"/>
<path d="M90.5437 10.0216H88.9393C87.2057 10.0216 85.8003 11.427 85.8003 13.1606V25.9725C85.8003 27.7062 87.2057 29.1115 88.9393 29.1115H90.5437C92.2773 29.1115 93.6827 27.7062 93.6827 25.9725V13.1606C93.6827 11.427 92.2773 10.0216 90.5437 10.0216Z" fill="#00A8A3"/>
<path d="M89.7374 9.64184C92.4 9.64184 94.5584 7.48344 94.5584 4.82091C94.5584 2.15839 92.4 0 89.7374 0C87.0749 0 84.9165 2.15839 84.9165 4.82091C84.9165 7.48344 87.0749 9.64184 89.7374 9.64184Z" fill="#00A8A3"/>
<path d="M116.485 14.6488C115.385 11.7345 112.726 9.46359 109.417 8.66527C108.766 8.55676 108.099 8.49475 107.409 8.49475C105.068 8.49475 102.906 9.17681 101.108 10.3394C98.9376 11.75 97.3178 13.8582 96.6047 16.3384C96.3412 17.2453 96.2017 18.1909 96.2017 19.1752C96.2017 25.0657 101.216 29.8479 107.409 29.8479C110.533 29.8479 113.354 28.631 115.385 26.6701C115.563 26.4996 115.741 26.3213 115.904 26.1431C116.105 25.9183 116.284 25.7013 116.392 25.4222C116.508 25.12 116.57 24.8022 116.57 24.4844C116.57 23.7016 116.229 22.9885 115.671 22.508C115.648 22.4847 115.617 22.4615 115.586 22.4382C115.152 22.0817 114.579 21.8724 113.966 21.8724C113.78 21.8724 113.586 21.8957 113.4 21.9344C113.245 21.9732 113.098 22.0275 112.966 22.1127C112.827 22.198 112.703 22.3142 112.563 22.4072C112.385 22.539 112.199 22.663 112.005 22.7715C110.943 23.4071 109.758 23.7558 108.494 23.7558C106.216 23.7558 104.154 22.5933 102.697 20.7331C103.58 20.9036 104.487 20.9889 105.386 21.0509C105.433 21.0509 105.471 21.0586 105.518 21.0586C106.681 21.1361 107.835 21.1904 108.998 21.2214C109.215 21.2291 109.424 21.2369 109.634 21.2369H110.091C110.672 21.2291 111.253 21.2136 111.835 21.1749C112.556 21.1361 113.284 21.0741 114.005 20.9811C114.036 20.9734 114.075 20.9733 114.106 20.9656C114.269 20.9268 114.447 20.9113 114.61 20.8803C114.772 20.8493 114.951 20.8028 115.121 20.7563C115.679 20.5936 116.245 20.33 116.539 19.7952C116.609 19.6635 116.671 19.5317 116.725 19.3922C116.849 19.0822 116.927 18.7567 116.973 18.4234C116.973 18.3924 116.981 18.3536 116.989 18.3226C116.989 18.3149 116.989 18.2994 116.989 18.2916C117.004 18.2451 117.004 18.1909 117.004 18.1444C117.012 18.0358 117.02 17.9273 117.02 17.8111V17.6638C117.02 16.6097 116.826 15.6021 116.47 14.6565L116.485 14.6488ZM103.278 16.4857C103.278 15.0363 104.805 13.8582 106.688 13.8582C108.572 13.8582 110.091 15.0363 110.091 16.4857H103.278Z" fill="#00A8A3"/>
</svg>
