<svg width="18" height="14" viewBox="0 0 18 14" fill="none" xmlns="http://www.w3.org/2000/svg">
<path d="M5.72523 7.8754C4.83647 7.8754 3.94562 7.86494 3.06104 7.83985C1.34416 7.78966 0.336203 7.21668 0.0643465 6.14181C-0.0799465 5.57092 -0.000480882 4.75535 0.497225 4.2221C0.840183 3.85405 1.31489 3.7014 1.83141 3.79132C2.18692 3.85405 2.42532 4.19492 2.36258 4.55042C2.29984 4.90592 1.95898 5.14222 1.60347 5.08158C1.50309 5.06276 1.48009 5.08785 1.455 5.11504C1.32952 5.24887 1.27306 5.58137 1.3358 5.82395C1.44663 6.2631 2.04053 6.50149 3.10077 6.53286C5.48893 6.60396 7.93563 6.55586 10.3008 6.50777C11.6517 6.48058 13.0465 6.4534 14.4184 6.44712H14.6505C15.1545 6.44503 15.6564 6.44294 16.1582 6.44294H16.794C17.1557 6.44294 17.4485 6.7357 17.4485 7.09748C17.4485 7.45925 17.1557 7.75202 16.794 7.75202H16.1582C15.6564 7.75202 15.1566 7.75202 14.6547 7.7562H14.4246C13.0633 7.76247 11.6726 7.78966 10.328 7.81685C8.81603 7.84612 7.27063 7.87749 5.72523 7.87749V7.8754Z" fill="#00A8A3"/>
<path d="M3.80609 13.072C2.57856 13.072 1.58105 12.0745 1.58105 10.847C1.58105 9.61944 2.57856 8.62195 3.80609 8.62195C5.03363 8.62195 6.03113 9.61944 6.03113 10.847C6.03113 12.0745 5.03363 13.072 3.80609 13.072ZM3.80609 9.93103C3.30002 9.93103 2.89015 10.343 2.89015 10.847C2.89015 11.3509 3.30211 11.7629 3.80609 11.7629C4.31007 11.7629 4.72204 11.3509 4.72204 10.847C4.72204 10.343 4.31007 9.93103 3.80609 9.93103Z" fill="#00A8A3"/>
<path d="M14.436 13.072C13.2084 13.072 12.2109 12.0745 12.2109 10.847C12.2109 9.61944 13.2084 8.62195 14.436 8.62195C15.6635 8.62195 16.661 9.61944 16.661 10.847C16.661 12.0745 15.6635 13.072 14.436 13.072ZM14.436 9.93103C13.9299 9.93103 13.52 10.343 13.52 10.847C13.52 11.3509 13.932 11.7629 14.436 11.7629C14.94 11.7629 15.3519 11.3509 15.3519 10.847C15.3519 10.343 14.94 9.93103 14.436 9.93103Z" fill="#00A8A3"/>
<path d="M17.9986 3.80804C17.9986 3.30616 17.365 2.90256 16.5703 2.87956C16.5703 2.87956 16.5703 2.87747 16.5703 2.87538C16.5703 2.05772 15.9074 1.39691 15.0918 1.39691C14.8555 1.39691 14.6359 1.45755 14.4394 1.55584C14.1863 1.10624 13.7095 0.800923 13.1575 0.800923C12.804 0.800923 12.4841 0.930576 12.2311 1.13551C11.9299 0.466334 11.2607 0 10.4786 0C9.52294 0 8.73247 0.698455 8.58399 1.61021C8.29332 1.36345 7.92108 1.2087 7.50912 1.2087C6.75001 1.2087 6.11637 1.71895 5.91562 2.41113C5.75041 2.34631 5.57266 2.30867 5.38445 2.30867C4.778 2.30867 4.2573 2.67462 4.02935 3.19951C3.46055 3.2978 3.02349 3.78504 3.00676 4.38312C3.00676 4.4354 3.01303 4.48768 3.0193 4.53787C2.93775 4.66334 2.88965 4.80972 2.88965 4.96865C2.88965 5.32415 3.12595 5.62319 3.448 5.72566C3.93525 5.95151 5.04777 5.72566 7.22262 5.62528C7.42129 5.61692 7.61995 5.60646 7.81861 5.5981C8.10511 5.58346 8.3916 5.57091 8.6781 5.55627C8.94786 5.54163 9.21763 5.52909 9.48739 5.51236C9.74043 5.49772 9.99346 5.48308 10.2465 5.46844C10.4828 5.45381 10.7212 5.43917 10.9575 5.42453C11.1792 5.40989 11.4008 5.39525 11.6225 5.38061C11.8295 5.36598 12.0366 5.35134 12.2436 5.3367C12.436 5.32206 12.6284 5.30742 12.8229 5.29069C13.0027 5.27605 13.1805 5.26142 13.3603 5.24469C13.5255 5.23005 13.6928 5.21541 13.858 5.19868C14.0107 5.18404 14.1633 5.1694 14.316 5.15267C14.4561 5.13804 14.5983 5.12131 14.7384 5.10667C14.8681 5.09203 14.9956 5.0753 15.1253 5.05857C15.2424 5.04393 15.3616 5.0272 15.4787 5.01047C15.5853 4.99584 15.692 4.97911 15.7986 4.96238C15.8948 4.94774 15.9931 4.93101 16.0893 4.91428C16.1772 4.89964 16.2629 4.88291 16.3507 4.86618C16.4281 4.85154 16.5055 4.83482 16.5849 4.81809C16.6539 4.80345 16.723 4.78672 16.792 4.7679C16.8526 4.75326 16.9133 4.73653 16.9739 4.71771C17.0283 4.70307 17.0806 4.68634 17.1328 4.66752C17.1788 4.65288 17.2248 4.63615 17.2709 4.61733C17.3106 4.60269 17.3503 4.58596 17.39 4.56714C17.4235 4.55041 17.457 4.53368 17.4904 4.51695C17.5197 4.50023 17.5469 4.4835 17.5741 4.46677C17.5971 4.45004 17.6201 4.43331 17.641 4.41658C17.6494 4.4103 17.6577 4.40194 17.6661 4.39357C17.8731 4.23255 18.0007 4.03389 18.0007 3.81223L17.9986 3.80804Z" fill="#00A8A3"/>
<path d="M7.84366 2.49893C7.55508 2.49893 7.29368 2.61813 7.10547 2.80843C7.21421 2.76033 7.3355 2.73524 7.46306 2.73524C7.96286 2.73524 8.36646 3.14093 8.36646 3.63863C8.36646 4.10078 8.02142 4.47928 7.5739 4.53574C7.65964 4.55875 7.74956 4.57129 7.84157 4.57129C8.41456 4.57129 8.87672 4.10705 8.87672 3.53616C8.87672 2.96527 8.41247 2.50102 7.84157 2.50102L7.84366 2.49893Z" fill="white"/>
<path d="M8.36863 3.63871C8.36863 3.13892 7.96294 2.73532 7.46523 2.73532C7.33767 2.73532 7.21638 2.76251 7.10764 2.80851C6.92361 2.99463 6.80859 3.25184 6.80859 3.53624C6.80859 4.01512 7.13482 4.41872 7.57607 4.53583C8.02149 4.48146 8.36863 4.10086 8.36863 3.63871Z" fill="#00A8A3"/>
<path d="M12.6513 2.23337C12.3627 2.23337 12.1013 2.35257 11.9131 2.54286C12.0218 2.49477 12.1431 2.46967 12.2707 2.46967C12.7705 2.46967 13.1741 2.87536 13.1741 3.37306C13.1741 3.83521 12.829 4.21372 12.3815 4.27018C12.4673 4.29318 12.5572 4.30573 12.6492 4.30573C13.2222 4.30573 13.6843 3.84149 13.6843 3.27059C13.6843 2.6997 13.2201 2.23546 12.6492 2.23546L12.6513 2.23337Z" fill="white"/>
<path d="M13.1743 3.37309C13.1743 2.87329 12.7686 2.4697 12.2709 2.4697C12.1433 2.4697 12.022 2.49688 11.9133 2.54289C11.7293 2.729 11.6143 2.98622 11.6143 3.27062C11.6143 3.7495 11.9405 4.1531 12.3817 4.2702C12.8272 4.21583 13.1743 3.83524 13.1743 3.37309Z" fill="#00A8A3"/>
</svg>
