<svg width="14" height="14" viewBox="0 0 14 14" fill="none" xmlns="http://www.w3.org/2000/svg">
<path d="M11.667 0.666672H1.66699C1.40178 0.666672 1.14742 0.772029 0.959885 0.959565C0.772349 1.1471 0.666992 1.40146 0.666992 1.66667V11.6667C0.666992 11.9319 0.772349 12.1862 0.959885 12.3738C1.14742 12.5613 1.40178 12.6667 1.66699 12.6667H11.667C11.9322 12.6667 12.1866 12.5613 12.3741 12.3738C12.5616 12.1862 12.667 11.9319 12.667 11.6667V1.66667C12.667 1.40146 12.5616 1.1471 12.3741 0.959565C12.1866 0.772029 11.9322 0.666672 11.667 0.666672Z" stroke="#00A8A3" stroke-width="1.33333" stroke-linecap="round" stroke-linejoin="round"/>
<path d="M5.66732 9.00001L7.33398 10.3333L10.0007 7.00001M3.33398 3.66667H10.0007M3.33398 6.33334H6.00065" stroke="#00A8A3" stroke-width="1.33333" stroke-linecap="round" stroke-linejoin="round"/>
</svg>
