<svg width="16" height="16" viewBox="0 0 16 16" fill="none" xmlns="http://www.w3.org/2000/svg">
<path d="M9.00621 2.09267C8.57154 1.30267 7.42754 1.30267 6.99221 2.09267C6.41973 3.13292 5.94782 4.22543 5.58288 5.35533C5.56567 5.39954 5.53539 5.43745 5.49609 5.46401C5.45678 5.49057 5.41031 5.50452 5.36288 5.504C4.38485 5.52942 3.41001 5.62657 2.44621 5.79467C1.55488 5.95 1.16221 7.01933 1.83954 7.68133C1.92488 7.76489 2.0111 7.848 2.09821 7.93067C2.75075 8.54855 3.44168 9.12459 4.16688 9.65533C4.19982 9.6772 4.22478 9.70917 4.23801 9.74644C4.25123 9.78371 4.252 9.82426 4.24021 9.862C3.8741 10.9605 3.6125 12.091 3.45888 13.2387C3.33221 14.188 4.33754 14.7707 5.12221 14.368C6.0748 13.8798 6.98564 13.3141 7.84554 12.6767C7.89058 12.6448 7.94438 12.6277 7.99954 12.6277C8.05471 12.6277 8.10851 12.6448 8.15354 12.6767C9.01293 13.3149 9.92384 13.8806 10.8769 14.368C11.6615 14.7707 12.6669 14.188 12.5402 13.2387C12.3868 12.0911 12.1254 10.9605 11.7595 9.862C11.7478 9.82426 11.7485 9.78371 11.7617 9.74644C11.775 9.70917 11.7999 9.6772 11.8329 9.65533C12.6545 9.05393 13.4321 8.39446 14.1595 7.682C14.8369 7.01933 14.4442 5.95 13.5529 5.79467C12.5889 5.62654 11.6138 5.52939 10.6355 5.504C10.5882 5.50439 10.5419 5.49037 10.5027 5.46382C10.4636 5.43727 10.4334 5.39943 10.4162 5.35533C10.0524 4.225 9.57979 3.13238 9.00621 2.09267Z" fill="#00A8A3"/>
</svg>
