<svg width="15" height="15" viewBox="0 0 15 15" fill="none" xmlns="http://www.w3.org/2000/svg">
<path d="M9.17067 0H5.41067L4.97933 2.158C4.6222 2.31804 4.28261 2.51464 3.966 2.74467L1.87933 2.03867L0 5.29467L1.654 6.748C1.61406 7.1372 1.61406 7.52947 1.654 7.91867L0 9.372L1.88 12.628L3.966 11.9227C4.28067 12.1507 4.61933 12.348 4.97933 12.5087L5.41067 14.6667H9.17067L9.602 12.5087C9.95913 12.3486 10.2987 12.152 10.6153 11.922L12.702 12.628L14.582 9.372L12.9273 7.91867C12.9673 7.52947 12.9673 7.1372 12.9273 6.748L14.5813 5.29467L12.7013 2.03867L10.616 2.744C10.2994 2.51421 9.95977 2.31783 9.60267 2.158L9.17067 0ZM7.29067 10C6.58342 10 5.90515 9.71905 5.40505 9.21895C4.90495 8.71885 4.624 8.04058 4.624 7.33333C4.624 6.62609 4.90495 5.94781 5.40505 5.44772C5.90515 4.94762 6.58342 4.66667 7.29067 4.66667C7.99791 4.66667 8.67619 4.94762 9.17629 5.44772C9.67638 5.94781 9.95733 6.62609 9.95733 7.33333C9.95733 8.04058 9.67638 8.71885 9.17629 9.21895C8.67619 9.71905 7.99791 10 7.29067 10Z" fill="#00A8A3"/>
</svg>
