<svg width="16" height="16" viewBox="0 0 16 16" fill="none" xmlns="http://www.w3.org/2000/svg">
<path d="M8 1.33334C4.31867 1.33334 1.33334 3.94934 1.33334 7.17601C1.33334 8.852 2.14267 10.3573 3.42934 11.408C3.36534 11.992 3.156 12.6473 2.83267 13.244C2.728 13.4373 2.86 13.6707 3.07867 13.6453C4.25867 13.5093 5.27 13.2 5.97267 12.7867C6.616 12.9613 7.296 13.0573 8 13.0573C11.6813 13.0573 14.6667 10.4413 14.6667 7.17601C14.6667 3.94934 11.6813 1.33334 8 1.33334ZM5.16667 8.16667C4.70643 8.16667 4.33334 7.79357 4.33334 7.33334C4.33334 6.8731 4.70643 6.5 5.16667 6.5C5.6269 6.5 6 6.8731 6 7.33334C6 7.79357 5.6269 8.16667 5.16667 8.16667ZM8 8.16667C7.53977 8.16667 7.16667 7.79357 7.16667 7.33334C7.16667 6.8731 7.53977 6.5 8 6.5C8.46024 6.5 8.83334 6.8731 8.83334 7.33334C8.83334 7.79357 8.46024 8.16667 8 8.16667ZM10.8333 8.16667C10.3731 8.16667 10 7.79357 10 7.33334C10 6.8731 10.3731 6.5 10.8333 6.5C11.2936 6.5 11.6667 6.8731 11.6667 7.33334C11.6667 7.79357 11.2936 8.16667 10.8333 8.16667Z" fill="#00A8A3"/>
</svg>
